<svg xmlns="http://www.w3.org/2000/svg" width="121" height="85" fill="none" viewBox="0 0 121 85"><path fill="#fff" d="M113.875 58.06c-.85-.82-8.133-6.361-10.869-8.427l-.024-.02c-.024-.019-2.499-2.008-4.733-3.013-2.274-1.026-3.36-1.1-4.08-1.148l-12.044-.922-.088-.01c-.48-.08-1.177-.116-1.407-.038a.56.56 0 0 0-.315.234q-.055.074-.1.123l-.048.05-3.436 3.342a1 1 0 0 1-.082.07c-.136.106-.846.64-1.526.824-.595.16-1.081.126-1.47.097q-.101-.008-.204-.013h-.016l-5.925-.42c-.306-.01-3.213-.117-5.673-.839-2.734-.802-5.113-1.82-7.842-4.179-2.141-1.85-3.712-3.776-4.949-6.063-1.795-3.32-2.838-8.524-2.88-8.744-.01-.046-1.038-5.045-2.717-7.81-1.69-2.782-6.87-7.309-6.92-7.355a1 1 0 0 1-.097-.096c-.316-.305-2.533-2.352-5.559-2.811-3.26-.494-5.371.443-7.169 1.53-.393.236-.7.434-.973.61-.996.639-1.494.958-3.175 1.334-1.66.37-2.92.18-3.754.056a8 8 0 0 0-.556-.072q-.092-.003-.127.002c-.045.067-.11.218-.134.273-.045.104-.14.361-.238.634-.315.874-.846 2.337-1.476 3.454-.698 1.235-1.047 1.783-1.974 3.154l-.19.28c-.81 1.198-1.648 2.438-2.305 3.634-.55 1.002-.839 1.927-1.031 2.539l-.104.328c-.095.287-.231.738-.403 1.307a143 143 0 0 1-1.249 3.97c-.49 1.463-.133 1.946.104 2.264q.063.084.113.155l6.097 7.913c.38.32.74.919.695 1.745-.039.698-.472 1.307-.727 1.608-.18.214-2.76 2.834-3.912 4.003-.117.163-.231.407-.226.502.025.09.21.317.317.377l.19.09c2.602 1.263 4.95 2.302 6.983 3.091 3.394 1.319 6.081 2.031 8.764 2.704 2.538.638 6.003 1.352 12.467 1.83.105.008 2.618.212 4.627 2.154 1.73 1.673 2.174 3.262 2.368 4.46.034.203.044.393.052.561.006.118.016.29.035.366.035.02.123.057.306.091l43.86 6.338s.017.001.025.003c.004 0 .73.12 1.414.045.264-.03.848-.344 1.093-.59.568-.569.759-1.037.852-2.085.104-1.17.4-4.358.4-4.358a1 1 0 0 1 .017-.112c.027-.13.194-.793.779-1.175.337-.22.883-.434 1.573-.217.574.18 5.123 1.895 9.76 4.115.297.139 1.068.39 1.527.262.888-.246 1.374-.435 1.991-1.088.194-.205.598-.76 1.065-1.407.647-.893 1.534-2.118 2.564-3.378a33 33 0 0 1 1.289-1.457c.691-.753 1.406-1.531 1.953-2.35a1 1 0 0 1 .112-.14c.255-.26.524-.615.641-.83-.24-.33-.893-.958-1.305-1.354zm-8.25 8.246.078.039zm4.01-6.163c-.47.513-.957 1.042-1.435 1.627-1.098 1.345-2.024 2.622-2.699 3.554-.162.223-.346.478-.5.687-4.637-2.177-8.952-3.79-9.56-3.98a5.62 5.62 0 0 0-4.845.664c-1.753 1.144-2.287 2.89-2.436 3.586a5 5 0 0 0-.085.556s-.184 1.993-.312 3.409L47.245 64.39c-.457-1.42-1.316-3.1-3.062-4.787-2.89-2.791-6.358-3.176-7.022-3.224-6.17-.456-9.433-1.127-11.81-1.725-2.56-.642-5.12-1.321-8.308-2.558a71 71 0 0 1-2.668-1.106c.704-.724.787-.821.86-.906.692-.815 1.537-2.15 1.63-3.875.108-1.97-.67-3.505-1.656-4.513l-5.397-7.003c.449-1.363.841-2.66 1.135-3.634a74 74 0 0 1 .497-1.604c.163-.523.365-1.171.73-1.836.572-1.042 1.326-2.156 2.122-3.334l.19-.28c.917-1.36 1.338-2.005 2.134-3.416.396-.7.742-1.463 1.036-2.176a12.8 12.8 0 0 0 2.74-.31c2.189-.49 3.128-1.026 4.416-1.852.264-.17.537-.345.886-.556 1.24-.75 2.44-1.343 4.596-1.017 1.53.232 2.912 1.264 3.393 1.71q.147.153.306.293c1.98 1.727 5.2 4.87 6.162 6.454.975 1.606 1.889 4.888 2.235 6.58.135.68 1.25 6.078 3.265 9.806 1.443 2.672 3.344 5.008 5.814 7.142 3.446 2.978 6.495 4.145 9.277 4.962 2.765.811 5.846.965 6.56.99l5.853.416.218.014c.534.038 1.526.11 2.753-.222 1.27-.344 2.35-1.085 2.883-1.497q.212-.165.405-.353l2.675-2.602 11.774.901.04.003c.47.032 1.113.075 2.756.817 1.466.66 3.311 2.03 3.895 2.498q.06.05.123.096c3.465 2.617 7.28 5.538 9.267 7.11l-.315.343z"/><path fill="#fff" d="M117.888 53.925c-1.113-1.074-7.555-5.975-11.338-8.834-.534-.425-3.208-2.51-5.92-3.731-2.815-1.27-4.57-1.544-6.042-1.645l-11.825-.904c-1.11-.166-2.631-.238-4.004.232a6.3 6.3 0 0 0-2.822 1.925l-2.54 2.47-5.496-.39a4 4 0 0 0-.204-.009c-.67-.02-2.735-.17-4.23-.608-2.172-.638-3.723-1.306-5.69-3.006-2.096-1.813-3.085-3.404-3.648-4.448-1.14-2.11-2.048-5.863-2.3-7.127l-.004-.022c-.124-.614-1.277-6.098-3.436-9.654-1.977-3.255-6.632-7.455-7.904-8.572-.753-.736-4.024-3.685-8.742-4.4-5.123-.777-8.586.82-11.031 2.296-.459.276-.816.506-1.105.692q-.633.406-1.315.559c-.603.134-1.032.07-1.626-.02-.319-.047-.681-.102-1.084-.125-1.247-.074-4.316.143-5.884 3.707-.124.28-.231.578-.38.99-.255.705-.683 1.886-1.078 2.586-.62 1.1-.882 1.506-1.731 2.765l-.188.276c-.884 1.306-1.796 2.656-2.582 4.085-.827 1.507-1.252 2.865-1.48 3.595q-.042.137-.08.251-.169.525-.44 1.43c-.31 1.022-.733 2.42-1.198 3.81-.956 2.85-.642 5.371.93 7.495q.076.113.16.222l4.512 5.854-1.918 1.95q-.173.174-.327.367c-.468.583-1.951 2.692-1.385 5.313.396 1.848 1.764 3.567 3.48 4.38l.147.07c2.742 1.33 5.237 2.433 7.41 3.278 3.701 1.439 6.7 2.233 9.451 2.923 2.763.694 6.507 1.47 13.343 1.98.133.026.73.155 1.141.555.53.51.613.795.674 1.15v.045c.033.588.098 1.81.886 3.089.627 1.016 1.87 2.315 4.23 2.73l.146.025 43.833 6.333c.305.048.983.139 1.812.139a10 10 0 0 0 1.126-.06c1.914-.209 3.652-1.345 4.558-2.254 1.586-1.592 2.152-3.212 2.39-4.676 1.338.569 2.857 1.242 4.401 1.982.672.32 3.059 1.312 5.57.615 1.482-.412 3.071-1.021 4.636-2.675.455-.48.891-1.082 1.552-1.993.64-.884 1.437-1.983 2.36-3.113.302-.367.675-.775 1.07-1.206.72-.784 1.524-1.66 2.256-2.695 1.306-1.444 1.983-2.947 2.01-4.468.048-2.49-1.558-4.036-3.11-5.53zm-81.519 12.01.084.007s-.03 0-.084-.006m79.609-4.418c-.619.913-1.364 1.724-2.086 2.51-.434.474-.845.92-1.215 1.375-.994 1.216-1.827 2.367-2.495 3.29-.549.76-.946 1.306-1.227 1.602-.972 1.027-1.877 1.34-2.873 1.617-1.278.355-2.716-.304-2.875-.38-4.501-2.155-8.631-3.708-9.4-3.98-.064.699-.291 3.168-.381 4.165-.112 1.26-.386 2.247-1.403 3.266-.494.496-1.47 1.06-2.248 1.144a7 7 0 0 1-.696.035 8 8 0 0 1-1.238-.094L43.974 69.73l-.028-.005c-1.84-.323-1.909-1.622-1.94-2.247a3 3 0 0 0-.031-.356c-.164-1.012-.496-2.121-1.809-3.39-1.493-1.443-3.415-1.617-3.434-1.619-6.607-.487-10.172-1.225-12.79-1.882-2.635-.662-5.5-1.42-8.995-2.778-2.078-.806-4.476-1.868-7.125-3.152l-.178-.087c-.54-.255-1.204-.944-1.37-1.718-.214-.998.486-1.938.629-2.117a1 1 0 0 1 .066-.073c1.396-1.416 3.68-3.741 3.866-3.95.187-.221.262-.41.267-.466.007-.112-.016-.163-.027-.18a1 1 0 0 1-.194-.189l-6.199-8.043-.053-.075q-.022-.034-.057-.08c-.356-.48-1.192-1.603-.384-4.01.485-1.444.918-2.874 1.233-3.918.177-.58.315-1.038.416-1.348l.096-.302c.213-.686.537-1.723 1.18-2.893.7-1.273 1.563-2.549 2.397-3.784l.188-.278c.906-1.342 1.223-1.838 1.893-3.025.552-.978 1.05-2.346 1.344-3.164.125-.344.215-.591.285-.753.215-.489.661-1.504 2.136-1.419.228.013.462.048.733.09.733.11 1.737.262 3.045-.03 1.347-.301 1.651-.498 2.556-1.076.282-.18.603-.387 1.016-.638 2.006-1.213 4.58-2.373 8.457-1.785 3.912.593 6.577 3.295 6.688 3.409.62.543 5.48 4.853 7.243 7.755 1.853 3.052 2.911 8.21 2.956 8.428.012.056 1.031 5.146 2.688 8.209 1.122 2.076 2.556 3.832 4.515 5.524 2.476 2.14 4.562 3.037 7.126 3.79 2.3.675 5.176.762 5.204.762l.042.001 5.938.422.229.014c.32.023.55.04.829-.036.215-.058.592-.296.81-.457l3.356-3.265a2.46 2.46 0 0 1 1.22-.884c.776-.265 1.975-.1 2.309-.048l11.995.918c.797.054 2.144.145 4.732 1.313 2.4 1.08 4.913 3.08 5.139 3.26 1.071.809 9.947 7.522 11.03 8.567 1.284 1.237 1.954 1.92 1.94 2.7-.016.817-.781 1.723-1.172 2.136z"/></svg>