<svg xmlns="http://www.w3.org/2000/svg" width="121" height="85" fill="none" viewBox="0 0 121 85"><path fill="#fff" d="m88.945 33.117.04-.004-.043.004h.004z"/><path fill="#fff" d="m113.987 15.85-.067.016a1628 1628 0 0 1-11.752 2.51c-5.79 1.215-11.022 1.86-15.225 2.377q-1.16.142-2.195.275c-4.342.556-14.3 1.316-14.401 1.324q-.016 0-.031.002l-6.48.274h-.019c-.359.008-8.787.186-9.978.189-1.024.006-5.02.17-6.728.243l-.216.01 2.314 3.73.016.026c.07.122 1.736 3.017 2.83 5.218.504 1.013.556 1.882.157 2.587-.561.99-1.74 1.106-1.875 1.115a1 1 0 0 1-.19-.004c-.097-.013-2.402-.315-3.561-.561-1.371-.292-1.889-1.287-1.985-1.858l-.316-1.55c-.091-.459-.592-1.311-.928-1.786-.105-.133-.623-.776-1.165-1.509-.327-.44-.599-.595-.672-.633-.028-.006-.014-.006-.056-.023-.003 0-.799-.316-1.946-.305l.008.026c.281.603 3.368 7.23 4.181 9.103.998 2.295.01 4.422-.034 4.511-.017.036-.442.932-1.055 2.126-.698 1.355-1.64 1.768-1.914 1.862-2.37.908-3.677 1.393-3.882 1.443l-.042.01a6.5 6.5 0 0 1-3.04.06c-.905-.196-2.647-.813-3.995-1.507-.942-.483-1.817-1.41-2.598-2.755l-.028-.05c-.06-.103-.261-.466-.64-1.15-.517-.94-1.298-2.36-1.52-2.724a318 318 0 0 0-3.319-5.245c-.275-.42-.67-.457-1.691-.164a7 7 0 0 1-.328.089c-.476.11-1.99.62-2.532.807L5.652 37.886a1 1 0 0 0 .059.076l11.646 11.099c.174.165 17.687 16.75 18.733 17.737 1.2 1.133 2.78 2.268 3.49 2.533a3 3 0 0 0-.12-.786l-.015-.057c-.015-.066-1.588-6.563-1.905-7.934-.36-1.555-.247-2.705.465-4.738.746-2.127 2.855-3.42 2.943-3.475l.069-.037c.065-.033 6.574-3.257 8.804-4.33 1.907-.917 2.257-1.691 3.193-3.764l.051-.112c1.08-2.39 2.94-2.868 3.348-2.946.536-.138 1.993-.575 2.757-1.06.706-.447 1.052-2.223 1.2-2.982l.019-.098c.24-1.219.764-2.107 1.591-3.23 1.01-1.372 2.908-2.045 4.435-2.586 1.903-.675 3.518.103 3.587.135q.03.014.06.033c.195.114 4.776 2.81 5.57 3.312.332.209.742.118.848.09.646-.296 1.425-.678 1.588-.795.762-.565 1.497-1.156 2.746-2.633 1.519-1.799 3.084-1.93 3.882-1.847.613.062 2.684.443 3.553 2.691.301.781.677.906.773.924.835-.1 8.114-.969 9.711-1.148 1.084-.122 1.506-.517 1.584-.602.034-.057.045-.06.1-.115 4.516-4.567 13.293-13.483 14.184-14.533.545-.645.722-.96.778-1.1h-.006c-.322 0-.908.096-1.386.238zM34.484 54.575c-.573 1.636-.93 3.095-.869 4.74L19.925 46.35l-7.26-6.92 5.635-1.935c.459-.157.95-.32 1.357-.452a321 321 0 0 1 2.118 3.378c.184.302 1.032 1.843 1.441 2.583.49.889.612 1.11.695 1.25l.015.026c1.147 1.973 2.535 3.387 4.119 4.199 1.525.784 3.544 1.54 4.91 1.834 1.5.326 3.03.31 4.55-.042-1.047.918-2.335 2.36-3.018 4.306zm15.182-12.021-.051.114c-.297.657-.605 1.337-.773 1.553-.035.045-.21.178-.635.382-.683.327-1.738.845-2.887 1.409q.324-.455.611-1.013a75 75 0 0 0 1.107-2.23c.18-.377.765-1.736.84-3.572.874.133 1.644.234 1.786.253q.475.061.952.026a6.3 6.3 0 0 0 1.641-.357c-.995.812-1.916 1.939-2.593 3.436zm48.44-14.287c-1.342.152-4.892.575-7.282.858-1.505-2.163-3.833-3.158-5.748-3.355-1.528-.157-4.485.042-7.107 3.148-.813.96-1.317 1.421-1.735 1.753a829 829 0 0 0-4.285-2.534 4 4 0 0 0-.301-.162c-1.485-.732-3.965-1.197-6.477-.305-1.9.673-4.5 1.596-6.19 3.89-1.084 1.47-1.881 2.836-2.253 4.73l-.02.102c-.035.184-.1.513-.172.809-.29.106-.627.213-.925.296-.41.081-.84.207-1.278.385a5.7 5.7 0 0 0 1.121-1.403c.59-1.042 1.37-3.222-.06-6.102a98 98 0 0 0-2.03-3.812q.287-.007.46-.006h.026c1.265 0 9.148-.17 10.047-.19l.096-.003 6.48-.275a3 3 0 0 0 .157-.01c.412-.03 10.154-.775 14.59-1.344q1.027-.131 2.178-.271c4.273-.527 9.59-1.183 15.535-2.43q.848-.177 1.657-.349a2647 2647 0 0 1-6.483 6.58z"/><path fill="#fff" d="M119.922 12.22c-.858-1.217-2.945-3.05-7.347-1.803-.879.191-5.481 1.192-11.552 2.465-5.561 1.167-10.664 1.795-14.762 2.302q-1.174.144-2.221.277c-4.003.513-13.104 1.219-14.04 1.29l-6.352.27c-3.488.076-8.92.187-9.789.187h-.03c-1.022 0-3.947.12-6.956.25l-.625.026c-2.087.087-3.843 1.175-4.698 2.906a5.1 5.1 0 0 0-.482 1.613 12 12 0 0 0-1.6-.096c-1.958.014-3.661.897-4.673 2.424-1.021 1.543-1.186 3.546-.44 5.358q.04.097.086.195c.032.07 3.274 7.03 4.115 8.956q0 .028-.009.062c-.11.23-.343.71-.648 1.314-1.087.413-2.167.82-2.57.964a1 1 0 0 1-.408-.003c-.362-.078-1.53-.474-2.48-.943-.078-.082-.235-.272-.46-.662l-.036-.062c-.063-.108-.33-.594-.566-1.023-.796-1.443-1.379-2.5-1.645-2.935a323 323 0 0 0-3.424-5.414 6.33 6.33 0 0 0-5.041-2.866c-1.264-.06-2.3.24-2.859.399l-.096.028c-.757.182-2.224.675-3.039.955l-11.57 3.974q-.372.127-.716.315C1.37 33.825.3 35.324.055 37.053c-.369 2.603 1.224 4.41 1.72 4.902l.064.06 11.672 11.126c.723.684 17.694 16.755 18.74 17.743a26 26 0 0 0 2.923 2.363c.779.534 2.556 1.753 4.65 1.753.613 0 1.253-.104 1.904-.362 2.839-1.122 4.105-4.227 3.123-7.597-.22-.911-1.576-6.513-1.864-7.754-.074-.324-.107-.461.282-1.57.076-.13.306-.362.514-.523 1.289-.637 6.523-3.227 8.457-4.158 3.744-1.801 4.778-4.089 5.87-6.51l.01-.022c.89-.246 2.682-.807 4.036-1.666 2.746-1.74 3.393-5.056 3.704-6.65l.018-.093c.013-.061.04-.198.488-.821.314-.198 1.026-.468 1.558-.66 1.813 1.07 4.254 2.513 4.718 2.807 2.011 1.275 4.3 1.152 5.77.614a5 5 0 0 0 .323-.132c1.924-.875 2.417-1.24 2.658-1.419a18.4 18.4 0 0 0 2.675-2.376c1.45 1.937 3.559 2.724 5.306 2.604q.116-.008.231-.022c.081-.01 8.08-.966 9.745-1.151 2.772-.31 4.363-1.593 5.126-2.432 3.199-3.235 13.224-13.389 14.388-14.762.723-.852 1.512-1.898 1.896-3.187.505-1.698.207-3.45-.838-4.934zm-3.901 5.7c-1.139 1.345-13.337 13.684-14.244 14.604-.241.293-1.053 1.095-2.838 1.295-1.68.187-9.694 1.145-9.773 1.154l-.047.005c-.653.044-1.927-.352-2.611-2.12-.473-1.223-1.56-1.461-2.004-1.506-.76-.08-1.541.335-2.267 1.195-1.377 1.629-2.235 2.314-3.062 2.93-.373.276-1.508.802-1.977 1.016l-.066.026c-.135.05-1.352.463-2.496-.261-.73-.463-5.017-2.985-5.477-3.258a3.04 3.04 0 0 0-2.121-.042c-1.286.456-2.885 1.023-3.556 1.934-.79 1.072-1.108 1.699-1.262 2.48l-.019.096c-.227 1.163-.648 3.327-2.035 4.206-1.192.756-3.24 1.278-3.327 1.3-.044.011-.06.016-.101.02-.121.024-1.253.28-1.974 1.877l-.051.112c-.976 2.163-1.565 3.469-4.086 4.681-2.128 1.022-8.176 4.018-8.743 4.298-.211.136-1.638 1.099-2.122 2.478-.59 1.683-.682 2.512-.408 3.693.304 1.316 1.78 7.41 1.894 7.887.355 1.155.333 2.657-.889 3.139a1.5 1.5 0 0 1-.556.102c-.636 0-1.43-.352-2.524-1.101a22 22 0 0 1-2.472-1.996L16.071 50.423 4.408 39.304l-.012-.012c-.13-.13-.774-.819-.648-1.716.056-.391.276-.943 1.02-1.348a1 1 0 0 1 .144-.062l11.571-3.974c.208-.072 2.061-.708 2.714-.86a4 4 0 0 0 .24-.066c.792-.227 2.646-.76 3.759.932.858 1.303 2.975 4.68 3.352 5.301.244.401.975 1.729 1.562 2.795.275.5.56 1.016.608 1.097l.037.064c.748 1.284 1.413 1.815 1.839 2.033 1.197.616 2.768 1.177 3.537 1.344a4.7 4.7 0 0 0 2.195-.047l.04-.01c.261-.08 2.086-.768 3.689-1.382.045-.017.032-.017.065-.023.089-.04.482-.25.84-.943.598-1.163 1.023-2.062 1.028-2.071s.66-1.465.008-2.96c-.825-1.899-4.144-9.022-4.178-9.094l-.017-.039c-.073-.176-.409-1.094.1-1.86.225-.34.685-.749 1.591-.755 1.44-.005 2.453.357 2.65.435.216.078.875.379 1.545 1.28.572.772 1.13 1.463 1.135 1.47l.034.046c.105.15 1.046 1.485 1.254 2.527.174.871.317 1.559.317 1.56.008.04.01.02.01.036.029.081.14.267.53.35.943.2 2.799.454 3.294.52.13-.028.29-.099.327-.166.037-.068.043-.328-.206-.827-1.03-2.074-2.643-4.885-2.768-5.102l-2.522-4.069c-.132-.198-.56-.932-.2-1.66.175-.355.58-.788 1.51-.827l.628-.027c1.857-.08 5.712-.244 6.797-.244h.028c1.204 0 9.586-.181 9.911-.189l6.453-.273c.45-.034 10.075-.774 14.29-1.313q1.039-.134 2.202-.275c4.169-.514 9.357-1.153 15.072-2.353a1670 1670 0 0 0 11.703-2.498c1.199-.354 2.747-.576 3.387.332.9 1.278.109 2.405-.855 3.542z"/></svg>