<svg xmlns="http://www.w3.org/2000/svg" width="121" height="85" fill="none" viewBox="0 0 121 85"><path fill="#fff" d="m40.52 21.022-.017-.012zm77.948 33.36c-4.453-2.779-11.738-7.336-12.378-7.764-.918-.62-2.314-1.404-2.469-1.491l-.02-.01C81.71 33.041 81.319 32.851 81.191 32.788c-2.218-1.083-4.836-.446-6.368 1.545q-.093.12-.177.247s-1.84 2.753-2.079 3.106c-.288.426-.735 1.15-.821 1.29q-.067.106-.125.217c-.212.392-.435.801-.656 1.206a318 318 0 0 1-2.76-1.571 19 19 0 0 0-2.223-1.14l-.106-.042c-2.073-.806-5.662-2.192-6.398-2.424-2.13-.678-4.37-.037-5.892 1.49-1.171-.316-6.376-1.726-10.1-2.75a793 793 0 0 1 2.233-3.263c1.23-1.734 1.244-3.863.18-5.514a6 6 0 0 0-.618-1.738c.144-.264.2-.394.247-.502.973-2.257.253-4.865-1.748-6.344l-.09-.064a428 428 0 0 0-3.44-2.399c-.407-.273-1.178-.786-1.178-.786a5 5 0 0 0-.404-.24c-1.973-1.036-4.22-2.226-4.564-2.423a23 23 0 0 0-2.042-.995c-.154-.064-3.788-1.57-5.114-2.115-2.782-1.14-5.47-.287-6.087-.06a2878 2878 0 0 1-7.996 2.899 8.1 8.1 0 0 0-2.448 1.392l-.1.087c-.156.139-3.819 3.406-4.646 4.163-.886.81-2.323 1.678-2.663 1.859C1.057 18.917.36 20.375.12 21.422a4.8 4.8 0 0 0 .36 3.168 5539 5539 0 0 0 2.467 14.886q.014.069.025.133c.091.522.262 1.495.904 2.489 1.422 2.206 3.801 2.783 5.662 2.394 2.944-.525 7.094-1.258 8.41-1.477l.034.008c.07.017.107.023.18.037 3.396.62 8.936 1.635 9.69 1.786 2.225.533 4.09-.173 4.81-.515a385 385 0 0 1 4.118-1.844q.21-.083.36-.136c.217.047.475.11.69.167l13.08 3.556c1.383.375 3.676 1.79 4.656 2.395q.301.186.515.316c1.049.63 3.64 2.205 3.642 2.205l.106.062c.159.09 15.866 9.045 17.7 10.094 1.762 1.006 6.156 3.737 6.2 3.765q.1.061.203.119c.011.006 1.061.59 2.13 1.295a122 122 0 0 0 3.211 2.029l15.429 8.832q.149.086.305.159a5.84 5.84 0 0 0 2.653.655 5.5 5.5 0 0 0 4.584-2.484c.349-.536.824-1.246.995-1.478.462-.629 1.037-1.579 1.146-1.762q.052-.087.103-.178c.958-1.77 5.748-10.615 5.927-10.955l.01-.019c1.246-2.401.405-5.291-1.956-6.742zm-90.732-9.565.076.02zm89.443 14.617a8648 8648 0 0 1-5.907 10.915l-.019.035c-.023.04-.58.964-.961 1.481a52 52 0 0 0-1.117 1.655 1.82 1.82 0 0 1-1.517.805 2.25 2.25 0 0 1-1.048-.276 1 1 0 0 1-.092-.046L91.09 65.17l-.023-.014c-.07-.043-1.736-1.064-2.986-1.89a40 40 0 0 0-2.42-1.47c-.045-.028-4.497-2.795-6.319-3.836L61.64 47.866l-.022-.012s-2.6-1.578-3.65-2.211q-.2-.121-.48-.295c-1.21-.746-3.724-2.3-5.62-2.814-2.31-.626-13.094-3.559-13.094-3.559-.65-.172-1.516-.354-1.746-.355-.223.001-.764.125-1.61.467-.407.165-3.224 1.435-4.297 1.92-.21.104-1.26.572-2.47.26-.33-.075-6.061-1.125-9.83-1.814l-.037-.007c-.314-.07-.77-.138-.957-.12-.4.043-5.585.96-8.995 1.569a1.77 1.77 0 0 1-1.88-.785c-.242-.374-.312-.779-.374-1.135l-.035-.193c-.074-.38-2.234-13.473-2.512-15.16a3 3 0 0 0-.147-.444 1.15 1.15 0 0 1-.196-.94c.128-.562.626-.874.989-1.059.288-.146 2.147-1.212 3.461-2.412.813-.744 4.46-3.996 4.614-4.135l.02-.016c.061-.05.608-.501 1.291-.736.46-.16 7.981-2.894 8.057-2.921.063-.024 1.797-.663 3.445.012 1.32.54 5.064 2.093 5.1 2.109.05.021.976.421 1.631.795.6.34 4.633 2.461 4.674 2.483q.041.022.08.047s.76.504 1.16.774a417 417 0 0 1 3.398 2.37c.51.378.905 1.148.562 1.945-.144.334-.905 1.559-1.263 2.13a.5.5 0 0 0 .053.084l.947 1.236c.06.077.367.504.43 1.129.013.13.068.46.11.699.761.57.649 1.31.287 1.815-.135.191-3.153 4.611-5.185 7.588l-.01.04c.292.027.65.064.93.114.221.042.48.124.874.25.385.122.913.29 1.617.486a2525 2525 0 0 0 11.94 3.259c.076.023 1.621.487 2.385.728.096-.254.212-.571.285-.773.451-1.255 1.658-1.928 2.805-1.563.72.227 5.624 2.133 6.18 2.348l.022.01c.033.013.815.343 1.76.905.609.361 4.997 2.833 6.044 3.423.42-.715 1.893-3.416 2.459-4.462q.011-.023.024-.042c.02-.032.477-.776.732-1.152.244-.361 2.093-3.126 2.093-3.126l.035-.05c.376-.49 1.121-.851 1.868-.486.424.207 20.015 11.01 22.248 12.243.061.034 1.4.782 2.203 1.327.607.412 8.449 5.314 12.512 7.85.612.368 1.031 1.155.627 1.932z"/><path fill="#fff" d="m40.541 21.037-.02-.013s.04.027.021.015zM100.95 49.93c-6.963-3.841-19.841-10.94-21.9-12.057-.451.673-1.741 2.603-1.944 2.903a39 39 0 0 0-.675 1.062c-.276.509-2.204 4.063-2.576 4.655a1.63 1.63 0 0 1-2.105.657q-.024-.011-.047-.025c-.229-.128-5.599-3.15-6.306-3.57-.776-.463-1.437-.75-1.521-.787-1.51-.586-5.498-2.128-6.06-2.306-.164-.051-.408.098-.531.439-.168.464-.34.936-.45 1.186-.088.203-.22.377-.378.516.774.438 1.466.866 1.988 1.188q.27.168.463.284c1.014.61 3.463 2.098 3.646 2.208.491.279 15.877 9.052 17.692 10.089 1.808 1.032 5.99 3.629 6.356 3.856.173.096 1.294.724 2.483 1.51 1.171.776 2.775 1.76 2.92 1.85l15.35 8.787.064.032a.6.6 0 0 0 .238.087 51 51 0 0 1 1.16-1.713c.303-.413.779-1.197.855-1.322 1.753-3.237 4.903-9.054 5.699-10.53-1.677-1.046-11.625-7.257-12.36-7.756-.736-.5-2.05-1.234-2.062-1.241zm5.551 17.703-.013.023-12.615-7.222a114 114 0 0 1-2.77-1.754 46 46 0 0 0-2.64-1.61c-.67-.416-4.62-2.863-6.401-3.882l-6.163-3.516a5.4 5.4 0 0 0 1.053-1.227c.384-.611 1.796-3.2 2.646-4.77.174-.281.421-.673.54-.847l.09-.133c4.495 2.47 12.857 7.08 18.951 10.441.46.257 1.343.77 1.783 1.07.59.4 5.791 3.654 9.557 6.008-1.201 2.22-2.777 5.132-4.018 7.42m9.083-8.574.013.006-.017-.01zM40.666 27.204c-.01-.058-.12-.67-.15-.945a.5.5 0 0 0-.073-.215l-.935-1.223c-.68-.89-.441-1.742-.173-2.138.403-.64.861-1.39 1.064-1.747-.574-.402-2.733-1.917-3.207-2.236a187 187 0 0 0-1.112-.742c-.458-.24-4.089-2.15-4.688-2.49a18 18 0 0 0-1.439-.7c-.025-.01-3.764-1.56-5.081-2.1-.973-.399-2.111.009-2.122.012-.317.114-7.615 2.768-8.09 2.933a2.6 2.6 0 0 0-.705.401c-.253.226-3.805 3.394-4.585 4.107-1.256 1.147-2.994 2.217-3.7 2.605.059.17.106.34.142.489a7741 7741 0 0 0 2.523 15.22l.041.224c.028.153.063.36.1.439 2.043-.365 8.732-1.556 9.186-1.597.543-.05 1.306.11 1.501.152 2.907.532 9.652 1.764 9.94 1.839.611.157 1.203-.129 1.209-.132l.035-.017c.157-.071 3.855-1.745 4.382-1.959q.609-.244 1.107-.39a3 3 0 0 1-.109-.489l-.003-.018c-.09-.54.12-1.022.188-1.156a1 1 0 0 1 .064-.11c.454-.666 3.998-5.86 5.005-7.327a1.56 1.56 0 0 1-.32-.693zm-12.039 8.907q.067-.035.156-.076-.078.036-.156.076m4.332-2.954q-.18.264-.323.553c-.091.186-.2.432-.297.726-.904.402-2.167.971-3.035 1.364-.96-.185-3.318-.623-9.42-1.736-.579-.125-1.593-.295-2.542-.21-.192.016-.521.045-5.896.996-.45-2.713-1.131-6.835-1.713-10.36a21 21 0 0 0 2.102-1.66 822 822 0 0 1 4.3-3.852c1.286-.463 6.228-2.258 7.676-2.785 1.427.586 4.364 1.804 4.719 1.951.29.127.79.36 1.052.509.603.343 3.62 1.932 4.629 2.462.247.165.674.449.94.628l.476.326c-.447 1.495-.29 3.324.975 4.98l.278.363-3.922 5.743z"/></svg>