<svg xmlns="http://www.w3.org/2000/svg" width="121" height="85" fill="none" viewBox="0 0 121 85"><path fill="#fff" d="M114.206 35.63c-.641-.971-2.276-1.863-2.905-2.15-4.228-1.411-10.624-3.535-11.038-3.654-.339-.095-1.377-.387-2.687.285-.975.5-2.027 1.715-2.035 3.202-.014 2.689 2.07 3.569 2.23 3.632.142.049 1.322.46 1.833.626.549.14 5.69 1.562 7.026 6.244 1.34 4.689-.206 6.162-1.701 6.922l-.333.17-.033-.01c-1.316.5-2.518.061-3.08-.323-.574-.343-9.436-5.633-14.58-8.686a9272 9272 0 0 0-13.267-7.843c-3.283-1.94-5.876-3.47-6.355-3.756-1.787-1.066-3.868-1.358-5.709-.8-2.124.645-3.25 2.343-3.262 2.36l-.017.026c-.072.103-7.123 10.262-8.209 11.839-.899 1.304-1.077 2.796-1.103 3.57-.003.077.005.3.011.515.03 1.03.046 2.004-.091 2.606-.328 1.433-1.125 2.144-1.696 2.554-1.09.782-2.59.785-2.757.785-.006 0-1.892 0-6.839-.032-2.003-.014-3.99-.36-6.073-1.06-1.716-.577-4.248-2.074-4.355-2.137l-.039-.024c-.34-.225-8.343-5.514-8.994-5.994-.938-.69-1.414-1.462-1.595-2.578-.143-.877.077-1.869.59-2.652 1.136-1.742 3.203-1.732 3.528-1.718.484 0 9.443.03 13.074.022a25 25 0 0 0 1.514-.034 8.32 8.32 0 0 0 6.106-3.101c1.075-1.361 1.553-3.79.552-5.237-.994-1.435-2.288-1.657-2.99-1.657h-.03c-.298.003-2.286.003-5.04.003-4.902 0-11.616 0-14.08.014-2.975.017-6.502 1.077-9.206 2.767-1.178.735-2.681 1.857-3.87 4.018-1.218 2.218-1.457 4.483-.705 6.733.743 2.223 2.365 3.955 4.57 4.878l.05.021c.65.276 4.494 1.808 5.991 2.4 1.648.654 2.515 1.761 2.885 2.362l.033.054c.402.65.951 1.543.863 3.85-.076 1.963.094 2.41.807 3.152.73.76 1.967.657 1.979.655l.091-.005 85.116.02c2.366.062 4.276-.76 5.687-2.438 1.368-1.628 1.358-3.82 1.358-3.842 0-.137.007-12.283 0-12.766-.012-.914-.547-2.767-1.22-3.784zM14.031 37.252c-1.015 1.554-1.43 3.467-1.141 5.248q.035.225.083.442a75 75 0 0 1-.903-.368l-.064-.026c-1.237-.518-2.074-1.406-2.486-2.638-.425-1.275-.286-2.482.44-3.8.77-1.402 1.698-2.11 2.586-2.665 2.12-1.324 4.966-2.188 7.253-2.2 2.168-.013 7.66-.015 12.289-.015h1.77l4.894-.001c-.017.294-.154.73-.306.92a4.66 4.66 0 0 1-3.383 1.695c-.291.015-.522.027-1.328.029-3.486.01-11.924-.018-12.965-.021-2.08-.082-5.015.756-6.74 3.399zM24.102 54.75c.025-.694.006-1.314-.048-1.874l1.035.685.19.12c.245.144.992.583 1.93 1.069zm26.615.006c.888-.99 1.493-2.173 1.805-3.535.235-1.025.221-2.207.183-3.533l-.01-.329c.016-.326.092-1.037.454-1.561 1.083-1.572 8.13-11.727 8.202-11.828l-.01.048.078-.14c.129-.157.582-.66 1.24-.859.491-.149 1.5-.29 2.714.434.486.29 3.083 1.824 6.37 3.765 4.53 2.677 10.17 6.005 13.26 7.84 4.988 2.96 13.475 8.026 14.499 8.637a7.2 7.2 0 0 0 3.049 1.073zm53.446.012q.157-.018.317-.043l.147.043zm7.549-2.604-.008-.055.007.101c-.021.333-.157 1.045-.494 1.446-.674.802-1.524 1.148-2.741 1.115h-3.325l1.465-.746c1.854-.941 3.122-2.342 3.769-4.166.682-1.923.622-4.229-.184-7.051-1.81-6.339-8.08-8.381-9.538-8.777-.357-.118-.976-.332-1.389-.475a1 1 0 0 1-.017-.121l.036-.043c.971.307 6.821 2.251 10.601 3.511.475.24 1.034.602 1.244.81.24.413.534 1.364.574 1.783.005.74.002 7.91 0 12.667z"/><path fill="#fff" d="M120.994 39.343c-.026-2.05-.944-4.953-2.133-6.753-1.575-2.385-4.476-3.805-5.326-4.183l-.205-.091-.212-.07c-3.971-1.325-10.723-3.572-11.331-3.746-2.89-.815-5.273-.076-6.762.689-3.051 1.564-5.033 4.742-5.05 8.095-.01 1.843.436 3.38 1.113 4.634l-1.326-.787c-3.1-1.838-8.742-5.171-13.277-7.85a3961 3961 0 0 1-6.333-3.743c-3.136-1.872-6.853-2.364-10.2-1.349-3.751 1.137-5.765 3.825-6.27 4.582-.575.83-7.122 10.262-8.188 11.81-1.612 2.338-2.017 4.832-2.074 6.515-.008.25 0 .506.009.862.002.063.005.147.006.242-1.022-.003-2.868-.01-5.786-.03-1.4-.01-2.817-.262-4.33-.77-.775-.26-2.297-1.068-3.191-1.591-1.37-.906-2.8-1.854-4.097-2.713 2.759.006 5.91.01 7.73.006a29 29 0 0 0 1.798-.043c5.721-.303 9.032-3.744 10.19-5.21 2.307-2.92 3.356-8.047.758-11.797-1.803-2.601-4.588-4.078-7.656-4.052-.273.003-2.46.003-4.99.002-4.909 0-11.634 0-14.114.014-4.012.023-8.551 1.375-12.137 3.616-1.612 1.007-3.967 2.73-5.79 6.05C-.665 36.19-.154 40.226.712 42.818c1.256 3.76 3.988 6.684 7.695 8.235l.03.012c.782.33 5.04 2.024 6.111 2.449a.6.6 0 0 1 .206.123l.026.043.033.05c.012.107.028.327.014.694-.093 2.407.017 4.77 2.348 7.19 2.219 2.307 5.132 2.416 6.236 2.362l84.894.02.307.003c3.88 0 7.326-1.564 9.733-4.43 2.531-3.014 2.659-6.59 2.651-7.429 0-2.115.006-12.299 0-12.798zm-76.55 8.86h.065-.067zm71.049 9.002c-1.709 2.035-4.081 3.104-6.875 3.104q-.135 0-.272-.003l-85.044-.02c-.358.026-2.192.082-3.446-1.222-1.238-1.284-1.403-2.378-1.321-4.497.066-1.75-.268-2.29-.591-2.815l-.034-.055c-.25-.406-.84-1.156-1.988-1.61-1.385-.55-5.337-2.122-6.032-2.417l-.043-.019c-2.705-1.132-4.697-3.26-5.611-5.997-.92-2.758-.64-5.517.838-8.2 1.41-2.563 3.249-3.908 4.51-4.697 2.98-1.862 6.882-3.031 10.183-3.05 2.47-.014 9.188-.014 14.092-.014 2.644 0 4.734 0 5.023-.003 1.062-.004 3.071.297 4.566 2.455.716 1.035 1.007 2.42.815 3.9-.167 1.296-.69 2.58-1.436 3.523a10.2 10.2 0 0 1-7.467 3.804c-.4.021-.729.035-1.61.037-3.717.009-13.01-.022-13.102-.022h-.06c-.045-.005-1.277-.057-1.886.878a2 2 0 0 0-.314 1.354c.103.637.321.987.867 1.389.508.375 6.574 4.393 8.896 5.926.229.134 2.52 1.472 3.979 1.961 1.893.636 3.69.95 5.493.963 4.938.034 6.818.034 6.836.033.299 0 1.156-.076 1.662-.436.376-.269.786-.655.971-1.467.098-.423.062-1.584.047-2.141a12 12 0 0 1-.011-.63c.04-1.191.32-2.946 1.426-4.552 1.074-1.558 7.946-11.46 8.206-11.834.156-.237 1.576-2.297 4.272-3.113 2.343-.711 4.97-.351 7.206.982.475.283 3.066 1.815 6.348 3.752a8718 8718 0 0 1 13.27 7.846c5.294 3.14 14.52 8.65 14.613 8.705l.065.044a1.57 1.57 0 0 0 1.547.043l.184-.094c.69-.379 1.582-1.166.578-4.68-1.082-3.794-5.67-4.952-5.716-4.964l-.068-.02c-.54-.176-1.86-.636-1.915-.654a5.6 5.6 0 0 1-3.46-5.379c.013-2.268 1.535-4.062 3.04-4.834 1.303-.668 2.665-.809 4.048-.418.591.167 10.083 3.333 11.164 3.693l.084.032c.271.12 2.667 1.218 3.738 2.84.892 1.35 1.509 3.558 1.525 4.774.006.493 0 12.195 0 12.77.003.233-.009 2.925-1.788 5.044z"/></svg>