<svg xmlns="http://www.w3.org/2000/svg" width="121" height="85" fill="none" viewBox="0 0 121 85"><path fill="#fff" d="m104.972 17.492-.417-3.718-.014-.11c-.358-2.563-2.312-7.15-7.371-8.084-4.754-.878-8.026 1.758-9.278 3.54l-7.084 9.531c-.106.137-.22.286-.335.427a69 69 0 0 1-1.484-.096c-4.03-.298-8.275.571-8.856.697-1.2.249-24.318 5.034-26.212 5.438-3.005.64-4.829 2.643-5.535 4.307l-3.13 7.321-.022.02-.048.149a2 2 0 0 1-.084.163c.017-2.705.09-14.596.11-16.544.03-2.866-.507-5.017-1.211-7.532-.85-3.028-2.755-5.85-2.971-6.162l-2.9-3.97c-1.225-1.855-3.765-3.37-6.876-2.713-3.498.743-5.05 3.736-5.025 6.228v4.13l-.092 32.284L16 71.037c-.007 1.431.049 3.104.785 4.835 1.26 2.953 3.843 5.057 6.91 5.625 3.057.567 6.015-.32 8.182-2.353.427 1.201 1.245 2.241 2.39 2.982a6.9 6.9 0 0 0 2.65 1.007l.175.025.176.011c1.136.071 27.83 1.728 29.419 1.814q.31.017.607.017c2.69 0 4.56-.992 5.904-1.879 2.295-1.51 3.289-3.887 3.465-4.348l.076-.22c.02-.061 1.955-6.118 2.77-8.472.231-.667.986-1.322 1.337-1.55.637-.37 6.762-3.934 9.854-5.742 4.903-2.866 4.681-7.986 3.335-10.729l-.073-.15-.086-.144a965 965 0 0 1-2.963-5.032c1.216-1.619 4.37-5.812 5.805-7.714 2.173.082 4.121-.913 5.251-2.695.63-.993.84-1.977.91-2.5.139-.905 1.503-9.778 1.777-11.612.423-2.812.351-4.325.318-4.722zM33.095 61.513v.01zm68.19-39.801c-.276 1.842-1.7 11.106-1.782 11.638-.103 1.005-.924 2.417-2.792 2.273-1.588-.124-1.612-.092-2.024.444-.657.86-6.931 9.205-6.994 9.289l-.01.012c-.03.04-.834 1.134-.136 2.347.992 1.723 3.371 5.735 3.395 5.776l.032.06c.678 1.382 1.134 4.48-2 6.314-3.245 1.897-9.836 5.73-9.901 5.769-.016.008-2.058 1.244-2.785 3.339-.829 2.394-2.776 8.49-2.795 8.552l-.016.044c-.026.07-.68 1.75-2.157 2.72-1.197.79-2.354 1.318-4.006 1.318q-.214 0-.443-.012c-1.575-.085-29.113-1.796-29.391-1.813l-.07-.007c-1.117-.162-2.69-1.105-2.44-3.036.21-1.614 1.222-7.607 1.298-8.05.08-.637.283-2.348.28-2.896-.006-.728-.045-4.313-.045-4.313 0-.005-.017-.66-.36-1.276-.42-.752-1.137-1.118-2.195-1.118h-.011c-.645 0-1.143.19-1.526.574-.901.906-.899 2.585-.899 2.602l-.012 9.56c-.002 1.31-.148 2.357-.87 3.515-.67 1.075-2.626 3.504-6.31 2.823-1.942-.36-3.586-1.712-4.398-3.615-.483-1.136-.519-2.35-.513-3.494l.136-28.239.09-32.292V6.36c-.01-.831.458-2.49 2.33-2.888a3.145 3.145 0 0 1 3.347 1.3l2.909 3.981c.072.106 1.785 2.613 2.498 5.156.651 2.326 1.111 4.161 1.086 6.584-.023 2.162-.11 16.483-.112 17.088.01.196.186 2.728 2.86 3.224 2.596.482 3.773-2.567 3.821-2.697l.016-.038 3.133-7.327c.03-.07.793-1.816 3.112-2.311 1.893-.404 25.965-5.387 26.208-5.437.163-.035 4.223-.903 7.894-.632 2.988.22 3.128.12 3.276.013q.059-.045.13-.092c.222-.15.9-.951 1.396-1.606l7.127-9.59c.204-.29 2.123-2.87 5.885-2.175 3.947.73 4.592 5.032 4.617 5.215l.003.022.408 3.614c.004.053.1 1.331-.293 3.946z"/><path fill="#fff" d="M99.478 14.355c-.034-.217-.551-3.276-3.24-3.773-2.77-.511-4.12 1.394-4.175 1.476l-.022.03-7.14 9.607c-.284.376-1.242 1.614-1.802 1.993q-.047.032-.087.062c-.663.48-1.082.551-4.403.305-3.42-.253-7.374.591-7.414.6-.25.052-24.318 5.034-26.205 5.436-1.422.304-1.886 1.284-1.905 1.326l-3.121 7.303a7.6 7.6 0 0 1-1.278 2.092c-1.222 1.4-2.759 1.975-4.444 1.663-3.277-.608-4.214-3.443-4.253-4.856v-.028c0-.149.09-14.912.113-17.113.02-2.015-.314-3.577-1.024-6.111-.616-2.199-2.149-4.484-2.257-4.644l-2.944-4.036c-.045-.07-.526-.772-1.558-.554-.927.196-.979 1.046-.979 1.214v4.179l-.092 32.295-.136 28.24c-.004.968.021 1.983.379 2.824.282.661 1.153 2.242 3.141 2.61 2.555.473 3.95-1.082 4.552-2.05.514-.824.612-1.558.614-2.623l.013-9.55c0-.083-.019-2.377 1.382-3.795.71-.718 1.632-1.085 2.741-1.086 2.18-.011 3.236 1.12 3.739 2.065.512.966.534 1.907.534 2.01 0 0 .04 3.588.044 4.318.005.763-.264 2.897-.296 3.138l-.005.034c-.012.063-1.082 6.393-1.29 8.002-.108.837.617 1.072.97 1.137 1.272.079 27.793 1.724 29.333 1.808 1.27.069 2.164-.201 3.417-1.027.946-.622 1.435-1.741 1.5-1.894.148-.466 1.992-6.234 2.798-8.562.936-2.697 3.427-4.187 3.533-4.25.07-.04 6.66-3.873 9.901-5.768 2.43-1.421 1.515-3.71 1.343-4.083a778 778 0 0 1-3.385-5.759c-1.242-2.154.127-4.048.26-4.224.283-.376 6.341-8.432 7.002-9.298.96-1.254 1.724-1.247 3.511-1.107.717.056.921-.389.967-.773l.006-.043c.015-.097 1.501-9.77 1.784-11.655.34-2.272.287-3.43.28-3.552l-.4-3.554zm-3.248 6.607c-.199 1.334-1.006 6.595-1.463 9.568-1.363.158-2.83.738-4.147 2.455-.658.862-6.555 8.705-7 9.296-1.455 1.893-2.17 5.078-.504 7.967.803 1.394 2.44 4.163 3.122 5.315-3.288 1.923-9.676 5.638-9.74 5.676l-.018.01c-.612.36-3.73 2.343-5.021 6.064-.765 2.21-2.389 7.277-2.76 8.438a1.6 1.6 0 0 1-.217.308c-.742.486-.928.476-1.332.455a17413 17413 0 0 1-26.725-1.647c.305-1.895.697-4.238.885-5.347l.025-.17c.124-.963.328-2.71.322-3.59-.004-.713-.042-4.162-.045-4.328-.03-3.608-2.724-7.434-7.662-7.434h-.023c-2.024.005-3.81.73-5.163 2.1-2.248 2.275-2.364 5.462-2.36 6.191l-.013 9.528c0 .677-.05.755-.1.838-.388.622-.718.561-1.036.502-.364-.068-.56-.443-.627-.598-.115-.269-.11-1.185-.11-1.484l.137-28.247.085-29.982c.399.723.832 1.624 1.06 2.431.646 2.311.915 3.54.898 5.164-.023 2.208-.11 16.52-.114 17.129v.135c.087 3.291 2.325 7.23 7.034 8.102 2.854.53 5.638-.481 7.639-2.771A11 11 0 0 0 43.118 40l2.842-6.65c3.176-.668 25.686-5.328 25.922-5.377l.034-.007c.035-.007 3.536-.748 6.442-.532 3.232.24 4.854.36 6.657-.944l.017-.013c.304-.206 1.08-.747 2.588-2.74l7.162-9.637.014-.02c.263-.271.653-.2.822-.168q.04.007.039.008c.133.092.366.546.45.932l.374 3.304c.005.233-.001 1.153-.25 2.8z"/></svg>