<svg xmlns="http://www.w3.org/2000/svg" width="121" height="85" fill="none" viewBox="0 0 121 85"><path fill="#fff" d="M113.733 33.688a17 17 0 0 0-.773-2.52c-.718-1.81-2.523-6.24-3.779-8.256q-.197-.317-.4-.657c-1.662-2.747-3.73-6.164-11.142-7.807-8.341-1.85-18.28-4.027-18.379-4.05l-.017-.004c-.08-.02-7.902-1.875-11.628-1.686-3.06.153-7.245.883-12.442 2.168-3.615.893-42.412 11.361-42.805 11.467-.027.008-4.084 1.186-5.783 2.797-.503.478-.791 1.056-.853 1.715a2.42 2.42 0 0 0 .642 1.853c.33.361.715.741 1.144 1.13 1.238 1.121 2.675 2.402 2.788 2.503.758.652 1.862 2.473.672 4.765-1.078 2.072-1.967 3.414-2.142 3.67-.177.331-1.772 3.462-1.329 7.171.583 4.868 2.762 7.515 3.673 8.426 1.738 1.743 3.971 3.701 8.475 4.868 4.794 1.242 23.408 6.044 23.596 6.093l32.793 8.46 5.622 1.425c.542.105 2.079.22 2.939-.448 1.004-.78 1.589-1.83 1.897-3.402.262-1.34 1.372-7.666 1.459-8.16.03-.297.327-3.46-.715-5.67-1.138-2.414-2.204-4-4.871-5.969-2.72-2.007-12.97-9.176-13.073-9.25l-8.569-6.052-5.816-4.254a7 7 0 0 1-1.387-1.345c-.761-.977-1.723-2.514-1.972-4.276a13.36 13.36 0 0 1 1.23-7.739c1.123-2.306 2.542-4.54 5.312-5.252 2.247-.58 8.394-1.861 10.484-2.105 2.07-.24 5.69-.304 6.686 1.978.564 1.294.189 2.778-.226 3.798-.198.489-.469.96-.802 1.398-.868 1.133-1.534 2.067-1.739 2.437-.365.664-.914 2.777.933 4.553 1.683 1.618 4.02.518 4.36.343.579-.403 1.285-.938 1.445-1.117.358-.4 4.704-4.752 5.198-5.246.108-.106 2.546-2.488 5.095-3.133 1.864-.471 5.019-1.155 6.289-1.426a4.2 4.2 0 0 1 2.37.166c.838.317 1.458.868 1.79 1.591.758 1.65.567 2.927-.618 4.14-.91.93-7.445 6.771-7.844 7.128-.093.09-2.063 2.034-2.583 5.378-.524 3.38 1.183 6.068 1.198 6.095.02.03 1.44 2.228 3.487 3.574q.022.014.041.029c.376.25 3.23 2.15 5.509 3.522 2.447 1.473 9.695 5.765 9.768 5.809 0 0 .692.373 1.432.123.664-.224 1.237-.883 1.701-1.96 1.651-3.822 3.019-8.595 3.033-8.642l.016-.05s.378-1.228-.036-3.572c-.323-1.82-.986-4.867-1.353-6.523zm-61.073 3.39 5.804 4.245.064.046 8.565 6.05.018.012c.103.072 10.312 7.215 12.993 9.192 2.052 1.514 2.767 2.576 3.689 4.532.408.868.47 2.576.384 3.543-.418 2.386-1.212 6.89-1.42 7.946-.085.432-.177.69-.264.852l-.078-.006-5.427-1.376-32.783-8.458c-.188-.049-18.8-4.85-23.593-6.09-3.576-.927-5.224-2.36-6.73-3.87-.493-.493-2.136-2.4-2.591-6.198-.272-2.269.602-4.3.845-4.81a44 44 0 0 0 2.225-3.836c1.977-3.806.596-7.503-1.538-9.36-.199-.178-1.413-1.26-2.532-2.272a20 20 0 0 1 3.115-1.222c1.238-.334 26.659-7.193 37.796-10.153-.905 1.211-1.48 2.395-1.849 3.152a17.13 17.13 0 0 0-1.575 9.927c.366 2.59 1.691 4.733 2.734 6.07a10.8 10.8 0 0 0 2.147 2.083zm29.098-18.34-.025.025c-2.894 2.896-4.636 4.653-5.19 5.236-.09.074-.24.19-.41.317a51 51 0 0 1 1.144-1.545 10 10 0 0 0 1.301-2.269c.914-2.243 1.04-4.402.372-6.28 1.055.232 3.65.8 6.878 1.51-2.109 1.136-3.682 2.624-4.07 3.005m12.298 14.005q.021-.018.042-.04l-.049.043.005-.004zm17.379 10.061c-.069.235-1.117 3.852-2.432 7.125a1853 1853 0 0 1-7.86-4.677c-2.133-1.286-4.817-3.067-5.312-3.397l-.11-.075c-1.089-.714-2.053-1.969-2.358-2.427l-.015-.023-.006-.008c-.003-.005.002 0 .005.005-.148-.27-.908-1.75-.642-3.46.289-1.862 1.257-3 1.455-3.217 1.763-1.575 7.007-6.272 7.934-7.218.7-.716 1.571-1.862 1.954-3.397.566.698 1.011 1.434 1.465 2.183q.217.358.425.696c.758 1.219 2.056 4.08 3.474 7.652.248.624.448 1.279.596 1.944.36 1.625 1.01 4.614 1.32 6.365.202 1.135.129 1.784.107 1.93"/><path fill="#fff" d="M120.719 39.222c-.324-1.827-.939-4.685-1.4-6.764a22.5 22.5 0 0 0-1.038-3.382c-1.176-2.964-2.865-6.96-4.237-9.166q-.178-.287-.364-.596c-1.869-3.087-4.995-8.254-14.798-10.427-8.07-1.79-17.632-3.885-18.354-4.043-1.08-.257-8.81-2.045-13.204-1.825-3.426.172-7.98.956-13.53 2.328-3.675.907-41.322 11.065-42.924 11.497l-.072.02c-.905.26-5.552 1.679-8.16 4.15-1.51 1.434-2.41 3.27-2.603 5.31a8.1 8.1 0 0 0 2.109 6.226c.448.49.96.996 1.525 1.509.558.505 1.154 1.041 1.656 1.49a30 30 0 0 1-1.236 2.05 5 5 0 0 0-.224.358c-.28.496-2.715 5.01-2.038 10.668.766 6.387 3.646 10.113 5.296 11.767 1.524 1.53 4.696 4.71 11.094 6.367 4.797 1.243 23.415 6.045 23.602 6.094l32.793 8.461.019.005 5.651 1.432q.105.026.211.05c.296.06 1.084.199 2.114.199 1.57 0 3.701-.321 5.516-1.73 2.114-1.642 3.421-3.869 3.995-6.807.283-1.443 1.435-8.022 1.485-8.3q.023-.131.038-.263c.097-.828.497-5.144-1.216-8.78-1.438-3.05-3.051-5.473-6.644-8.126-2.758-2.034-12.62-8.934-13.18-9.327l-8.525-6.022-5.77-4.218a1.3 1.3 0 0 1-.257-.249c-.51-.653-.782-1.263-.826-1.576a7.7 7.7 0 0 1 .714-4.46c1.007-2.07 1.45-2.184 1.595-2.22 1.877-.483 6.254-1.398 8.612-1.797-.412.599-.569.885-.653 1.035-1.651 2.99-1.74 7.833 1.969 11.4 3.84 3.695 8.813 2.5 11.145 1.212q.21-.117.408-.254c1.697-1.174 2.271-1.785 2.473-2.01.189-.2.945-.965 1.937-1.964a16.1 16.1 0 0 0-2.14 5.872c-.827 5.32 1.64 9.422 2.035 10.04.251.392 2.131 3.232 5.049 5.187l.063.042c.13.087 3.233 2.164 5.782 3.698 2.466 1.485 9.506 5.654 9.815 5.836 1.389.819 3.72 1.417 6.101.643 1.584-.514 3.772-1.823 5.201-5.132 1.726-3.995 3.107-8.733 3.267-9.288.242-.803.704-2.937.123-6.218zm-3.783 5.15c-.108.376-1.446 4.998-3.111 8.854-.695 1.61-1.664 2.627-2.88 3.022-1.544.502-2.835-.217-2.976-.3-.075-.045-7.33-4.34-9.783-5.818-2.47-1.488-5.596-3.577-5.626-3.6l-.03-.02c-2.373-1.575-3.933-4.003-3.999-4.106-.079-.122-2.118-3.29-1.478-7.41.635-4.089 3.068-6.385 3.17-6.48l.014-.013c2.379-2.126 7.06-6.334 7.761-7.049.555-.567.723-.994.25-2.021-.123-.268-.363-.466-.735-.607a2.27 2.27 0 0 0-1.291-.084c-.984.211-4.336.933-6.22 1.41-2.043.517-4.198 2.617-4.218 2.638-1.92 1.923-4.876 4.891-5.12 5.164-.396.441-1.5 1.218-1.828 1.445a1 1 0 0 1-.081.05c-.097.054-.986.53-2.21.713-1.73.256-3.263-.204-4.436-1.333-1.171-1.127-1.821-2.523-1.878-4.04-.045-1.179.28-2.217.6-2.797.35-.63 1.335-1.944 1.893-2.672.232-.304.418-.627.553-.959.386-.95.475-1.797.245-2.327-.348-.796-2.243-1.138-4.715-.848-2.027.236-8.027 1.49-10.23 2.057-1.905.491-3.007 2.052-4.073 4.243a11.47 11.47 0 0 0-1.058 6.645c.2 1.42 1.082 2.724 1.59 3.376.286.37.627.698 1.011.98l5.802 4.244 8.553 6.04c.1.07 10.37 7.255 13.108 9.275 2.976 2.197 4.216 4.046 5.462 6.688 1.322 2.807.9 6.563.88 6.721l-.008.052c-.05.277-1.195 6.821-1.47 8.229-.25 1.275-.79 3.134-2.597 4.536-.975.757-2.209.933-3.143.933-.71 0-1.25-.102-1.37-.127l-.043-.01-5.65-1.432-32.797-8.463c-.187-.049-18.803-4.85-23.6-6.092-5.386-1.397-7.962-3.98-9.348-5.368-1.303-1.306-3.584-4.283-4.213-9.54-.544-4.539 1.487-8.202 1.575-8.355l.044-.072c.01-.012.931-1.36 2.05-3.512.758-1.458-.063-2.308-.237-2.463a602 602 0 0 1-2.812-2.525c-.476-.43-.901-.853-1.27-1.255a4.32 4.32 0 0 1-1.132-3.312c.105-1.114.603-2.12 1.439-2.914 2.039-1.931 6.4-3.197 6.585-3.25.405-.109 39.224-10.583 42.859-11.48 5.314-1.316 9.622-2.063 12.804-2.223 3.97-.198 11.717 1.629 12.159 1.733.346.076 10.14 2.221 18.375 4.048 8.21 1.82 10.608 5.784 12.361 8.679q.198.329.389.636c1.287 2.07 3.016 6.251 3.932 8.56.357.905.648 1.848.861 2.809.37 1.67 1.04 4.749 1.368 6.602.48 2.704.061 4.216-.027 4.49z"/></svg>