<svg xmlns="http://www.w3.org/2000/svg" width="121" height="85" fill="none" viewBox="0 0 121 85"><path fill="#fff" d="M49.861 57.36c-1.302.032-1.987.554-2.591 1.014q-.161.125-.309.23l-.06.044c-.637.457-1.024.734-1.338 1.366-.064.129-.136.5-.195.798-.073.381-.157.812-.294 1.24-.394 1.232-1.67 1.801-2.051 1.946-.433.165-3.427 1.291-3.427 1.291l-.043.016c-.137.043-1.37.42-2.424.113-1.322-.385-1.987-1.058-2.507-1.725-.352-.451-.696-.843-1.34-1.073-.43-.154-.713-.09-1.468.116-.28.077-.597.164-.97.243-1.356.29-2.44.373-4.145.32l-.163-.003c-.954 0-2.173.239-3.626.708-1.528.495-3.892 1.436-5.884 2.345-2.956 1.349-10.2 4.508-10.271 4.54-.004 0-.922.43-1.105 1.301-.211 1.012.468 1.704.61 1.799l.074.05c.32.216.852.58 2.361.19 1.417-.363 2.335-1.474 2.582-1.805.077-.101.175-.246.289-.413.728-1.067 2.086-3.053 4.485-4.416a12.62 12.62 0 0 1 8.136-1.531c1.73.254 2.202.193 2.856.11l.341-.042c.569-.063 1.075-.25 1.566-.429.756-.277 1.54-.565 2.423-.342 1.198.302 1.648.958 2.082 1.594l.12.175a2.72 2.72 0 0 0 1.336.997c.65.224 1.617.135 2.958-.272 1.763-.535 3.724-1.528 4.767-2.415.771-.653 1.47-1.366 2.209-2.119.763-.776 1.553-1.58 2.55-2.467 1.83-1.624 3.722-2.418 5.525-2.974-.825.006-1.48-.175-2.021-.327-.393-.11-.73-.204-1.038-.198zm17.61-11.013c-.41.254-.856.526-1.322.807 1.998-1.187 3.59-1.792 4.635-2.098.53-.154 1.297-.352 2.036-.518a14 14 0 0 0-1.399.062c-.886.096-1.779.403-3.95 1.745z"/><path fill="#fff" d="M118.002 7.04c-2.403-1.58-5.438-1.345-7.927.606-.847.62-7.728 5.174-10.721 6.985-.614.37-1.21.772-1.787 1.16q-.42.285-.858.573c-2.847 1.864-5.84 4.41-8.245 6.456-3.2 2.723-14.567 12.22-15.44 12.95q-.15.12-.292.242l-1.436 1.2v.64c-.193.38-.34.776-.444 1.179l-.035.003c-2.2.238-3.976 1.115-6.297 2.551a227 227 0 0 1-6.649 3.934c-.65.366-.894.456-1.073.522a5.75 5.75 0 0 0-2.404 1.585c-1.075 1.176-1.517 2.65-1.32 4.389v.003l-.018.155a.6.6 0 0 1-.11.093.4.4 0 0 1-.077.015 6 6 0 0 1-.458-.119c-.615-.17-1.542-.432-2.688-.403-3.117.078-4.962 1.483-5.85 2.158a5 5 0 0 1-.184.137l-.059.042c-.857.615-2.152 1.543-3.087 3.42a7 7 0 0 0-.559 1.64l-1.405.528c-.747-.85-1.796-1.762-3.406-2.34-2.118-.757-3.823-.29-4.842-.012-.238.065-.442.121-.659.168-.897.191-1.553.238-2.805.2-2.443-.073-4.884.716-5.687.977-1.71.553-4.316 1.589-6.484 2.578-2.914 1.33-10.114 4.47-10.181 4.5-1.727.75-3.778 2.535-4.355 5.29-.71 3.393 1.056 6.323 2.992 7.606l.025.017C3.728 79.043 5.135 80 7.507 80c.76 0 1.618-.098 2.579-.345 3.113-.798 5.013-2.986 5.686-3.89.143-.192.277-.389.42-.597.538-.79 1.354-1.984 2.623-2.704 1.42-.806 2.95-1.095 4.55-.859 2.316.341 3.28.266 4.389.125q.124-.017.255-.031a10.4 10.4 0 0 0 1.783-.369 8.4 8.4 0 0 0 3.285 2.093c1.831.631 3.87.566 6.418-.206 1.987-.602 4.81-1.84 6.77-3.506.963-.819 1.785-1.654 2.58-2.463.697-.711 1.42-1.445 2.275-2.206 1.143-1.016 2.319-1.487 3.965-1.96 2.916-.837 5.597-2.457 7.973-4.814.705-.7 1.513-1.719 2.548-3.206.54-.778 1.54-1.892 2.463-2.5 2.07-1.366 3.576-1.921 4.288-2.13.771-.225 2.092-.535 2.72-.638.115-.018.473-.057.733-.085.343-.037.716-.078 1.088-.125 1.478-.19 2.961-.913 3.96-1.93 1.185-1.206 1.923-2.612 2.255-4.294.613-.418 1.526-1.019 2.147-1.423.466.042 1.137.126 1.55.177a34 34 0 0 0 1.606.177c.112.01.469.061.73.097 1.581.222 4.227.594 6.613.255 2.142-.303 5.289-1.08 8.128-3.052q.29-.2.675-.462c1.218-.83 3.059-2.08 4.829-3.552 1.531-1.273 2.997-2.76 4.124-4.186 2.538-3.211 4.361-6.702 5.42-10.377.838-2.908 1.871-6.966 1.914-7.138l.075-.294.036-.301c.22-1.84-.425-4.58-2.959-6.243zm-.752 5.8-.008.061-.015.06c-.011.041-1.061 4.17-1.883 7.022-.925 3.206-2.528 6.266-4.763 9.096-.972 1.229-2.242 2.518-3.58 3.63-1.634 1.356-3.385 2.547-4.543 3.336-.268.182-.507.344-.706.484-2.236 1.554-4.778 2.173-6.518 2.42-1.862.265-4.091-.047-5.566-.256-.408-.058-.76-.107-.964-.123-.36-.026-.88-.092-1.433-.16-.906-.112-2.15-.266-2.588-.227-.198.017-.678.188-1.031.347-.346.224-2.17 1.406-3.01 2-.7.493-1.097 1.58-1.18 2.029-.124.68-.382 1.576-1.27 2.48-.413.421-1.124.76-1.767.843-.346.044-.695.082-1.015.117-.374.04-.726.077-.936.113-.865.142-2.335.496-3.165.74-1.117.326-2.944 1.043-5.299 2.597-1.434.946-2.767 2.47-3.474 3.488-.888 1.279-1.58 2.158-2.112 2.687-1.922 1.909-4.065 3.212-6.368 3.872-1.653.474-3.572 1.117-5.419 2.76-.95.844-1.718 1.625-2.459 2.38-.77.784-1.498 1.525-2.331 2.232-1.237 1.052-3.422 2.167-5.436 2.779-1.755.532-3.062.611-4.112.25a4.6 4.6 0 0 1-2.389-1.884c-.372-.544-.484-.71-.996-.838-.309-.078-.704.057-1.324.285-.567.206-1.209.443-1.998.532q-.165.019-.313.038c-.742.095-1.382.178-3.368-.115-2.41-.353-4.81.098-6.94 1.307-2.021 1.148-3.22 2.903-3.865 3.846q-.187.275-.332.474c-.34.456-1.604 1.985-3.616 2.502a6.6 6.6 0 0 1-1.639.225c-1.235 0-1.901-.454-2.24-.683l-.054-.037c-.743-.493-1.782-1.941-1.406-3.735.381-1.826 2.113-2.6 2.186-2.63.072-.032 7.3-3.185 10.242-4.528 2.051-.935 4.495-1.909 6.082-2.422.651-.212 2.63-.848 4.425-.797 1.557.047 2.491-.023 3.697-.28.32-.068.598-.144.866-.217.816-.223 1.585-.434 2.593-.074 1.058.38 1.674 1.033 2.182 1.682.36.46.702.832 1.559 1.083.374.109.992.003 1.31-.093.296-.112 2.982-1.124 3.392-1.28.316-.119.825-.424.936-.77.103-.321.173-.68.24-1.024.095-.494.177-.92.355-1.276.522-1.047 1.2-1.534 1.92-2.05l.061-.044q.129-.094.266-.2c.706-.536 1.771-1.348 3.679-1.395.584-.015 1.095.128 1.587.266.548.154 1.067.299 1.732.248 1.117-.086 2.034-.56 2.805-1.452.693-.8.768-1.43.847-2.095q.025-.223.06-.452c0-.045-.018-.147-.029-.217-.062-.378-.176-1.083.338-1.648.35-.381.637-.488.94-.6.28-.103.7-.259 1.608-.769a234 234 0 0 0 6.786-4.015c2.2-1.361 3.395-1.87 4.731-2.015.61-.065 1.131-.07 1.634-.074.75-.007 1.399-.011 2.177-.23.348-.097.466-.151.505-.176a1 1 0 0 0 .036-.102 2 2 0 0 0-.364-.382c-.205-.136-.55-.445-.726-1.061-.212-.744.202-1.368.553-1.738v-.026l.191-.16q.086-.075.143-.12c.14-.117 12.195-10.189 15.519-13.015 2.325-1.98 5.219-4.442 7.87-6.177q.458-.302.897-.597c.565-.38 1.099-.739 1.636-1.064 3.075-1.86 10.46-6.742 11.069-7.223 1.229-.973 2.537-1.134 3.59-.444a2.9 2.9 0 0 1 1.302 2.683z"/><path fill="#fff" d="m58.743 51.294-.105.04c.006.052.017.111.023.156.037.226.082.506.033.804q-.029.184-.052.385c-.093.787-.22 1.863-1.29 3.096l-.058.068a15.4 15.4 0 0 0 1.814-1.548c.445-.442 1.082-1.258 1.894-2.427.84-1.209 2.325-2.889 3.979-3.98q.426-.28.83-.53a229 229 0 0 1-5.192 3.043c-1.038.582-1.56.776-1.876.892zm56.179-39.575c-.46-.302-1.076.087-1.403.347-.756.595-8.294 5.561-11.261 7.356-.498.302-1.014.65-1.56 1.016q-.448.303-.916.61c-2.553 1.671-5.398 4.092-7.683 6.036-3.017 2.567-13.213 11.09-15.196 12.746v.033l-.372.278c-.06.046-.125.11-.175.168.379.293 1.32 1.145 1.064 2.186-.212.865-.609 1.268-1.267 1.542l.037-.005c.266-.034.57-.197.671-.298.498-.508.667-.971.766-1.511.147-.789.718-2.352 1.94-3.216.959-.676 3.043-2.024 3.131-2.081l.055-.036.06-.028c.172-.08 1.063-.48 1.708-.538.593-.053 1.61.064 2.984.233.528.065 1.028.128 1.34.15.265.021.627.07 1.086.136 1.287.18 3.442.484 5.043.257 1.539-.218 3.778-.76 5.713-2.103q.308-.214.721-.493c1.129-.769 2.836-1.93 4.4-3.229 1.239-1.031 2.415-2.221 3.308-3.35 2.085-2.639 3.576-5.484 4.434-8.457.747-2.594 1.688-6.265 1.844-6.878 0-.151-.041-.585-.474-.87zm-8.74 13.889c-.726.92-1.734 1.937-2.765 2.794-1.427 1.185-2.979 2.242-4.115 3.013l-.752.515c-1.039.722-2.496 1.245-4.104 1.472-1.006.143-2.725-.08-3.78-.227a904 904 0 0 0 3.855-3.25c2.205-1.876 4.951-4.213 7.309-5.756q.488-.32.953-.635c.508-.342.989-.664 1.41-.92 1.294-.782 3.451-2.162 5.566-3.54-.746 2.276-1.948 4.471-3.577 6.534"/></svg>