<svg xmlns="http://www.w3.org/2000/svg" width="121" height="85" fill="none" viewBox="0 0 121 85"><path fill="#fff" d="M114.933 28.796c-.451-1.556-1.444-2.993-2.263-4.073a15088 15088 0 0 0-7.405-10.036l-2.168-2.935c-.334-.425-.562-.66-.716-.793.023.765.1 2.393.154 3.515l.036.755c.035.664.292 1.355.706 1.89l.043.06c.188.283.427.613.679.96.364.502.741 1.02 1.035 1.503l.236.39c.384.629.817 1.34 1.024 2.07l.006.026c.276 1.093.461 2.028.135 3.268l-.017.068-.028.065c-.72 1.706-2.17 3.098-4.193 4.026-1.583.727-3.507 1.15-5.28 1.164-9.301.21-34.901.675-45.832.874l-5.268.096c-.027 0-.083 0-.136-.003h-.023c-.33-.022-.8-.105-1.171-.373-.617-.43-.994-1.21-.976-2.03-.01-1.107-.114-8.966-.117-9.296-.053-1.514-.859-3.46-1.878-4.53-1.822-1.98-4.511-2.874-6.248-2.874h-.037l-.03-.001c-1.034-.065-1.697-.057-1.973.025a6 6 0 0 0-.067.227c-.113.406-.454 1.642-1.836 1.491-.92-.108-2.58-.426-3.911-.683a74 74 0 0 0-1.766-.327l-.06-.012c-.034 2.25-.046 6.261-.059 10.146-.01 3.576-.02 6.954-.048 8.776v.023c-.237 6.274-2.34 8.076-7.446 10.97l-.028.015c-.923.485-2.038.91-3.218 1.364-2.03.779-4.331 1.66-5.887 2.966-.651.593-1.16 1.424-1.362 2.228l-.023.076c-.478 1.403-1.1 4.079-1.513 5.85l-.175.747c.156.045.33.087.507.131.265.063.538.13.81.221 1.88.562 5.43 2.972 8.284 4.911.813.553 1.582 1.074 2.178 1.462 5.126 3.32 15.763 9.075 22.316 10.883 2.45.715 4.086.883 6.433.957 11.586.243 33.68.141 51.436.059 5.468-.026 10.64-.049 15.047-.062v-.289c-.004-.471-.009-1.005.249-1.601l.019-.042c.31-.633.822-.96 1.195-1.2.16-.103.284-.182.37-.26.254-6.75.324-16.933.387-25.932.04-5.84.079-11.357.161-15.525.004-.234-.118-.716-.217-1.101l-.071-.281zm-3.725 16.88c-.056 8.194-.12 17.369-.322 23.995-.389.383-.785.87-1.121 1.492-3.672.013-7.742.032-11.99.051-17.72.081-39.768.183-51.324-.058-2.053-.066-3.396-.203-5.44-.8l-.068-.02c-5.896-1.627-16.13-7.088-21.249-10.404-.562-.363-1.313-.875-2.109-1.414-2.886-1.96-5.26-3.538-7.21-4.527.275-1.113.56-2.2.787-2.864l.063-.183.048-.194c.02-.06.09-.182.175-.274 1.078-.864 3.006-1.602 4.712-2.255 1.289-.495 2.505-.961 3.627-1.549l.138-.076c2.56-1.451 5.003-2.946 6.74-5.276 1.142-1.532 2.477-3.93 2.665-8.923l.003-.112c.027-1.845.037-5.234.048-8.821.007-1.88.011-3.79.02-5.51a29 29 0 0 0 1.47.22l.033.004c1.477.163 3.292-.257 4.597-1.704.772.09 2.227.577 3.174 1.605l.055.058c.367.388.777 1.382.809 1.959.016 1.204.104 8.024.117 9.178-.02 2.06.973 4.043 2.61 5.205 1.105.788 2.317 1.017 3.144 1.07l.046.004c.112.007.265.013.45.008.37-.008 2.308-.042 5.245-.097 10.921-.198 36.484-.663 45.831-.873 4.794-.049 10.549-2.31 12.82-7.257.556.75 1.157 1.656 1.413 2.484q.026.109.056.218c.027.107.064.25.09.362-.079 4.154-.116 9.56-.156 15.275z"/><path fill="#fff" d="m120.6 27.632-.064-.253-.046-.176c-.71-2.475-2.082-4.492-3.204-5.976l-7.381-10.003-2.143-2.903-.134-.174c-.658-.837-2.664-3.383-5.876-3.13-1.874.15-3.507 1.233-4.478 2.971l-.122.22-.1.23a5.5 5.5 0 0 0-.453 2.237v.064c.006.645.078 2.201.165 4.019l.037.778a9.3 9.3 0 0 0 1.794 4.994c.238.352.493.704.742 1.046.274.376.584.802.752 1.077q.122.205.256.423c.11.18.279.459.377.641-.777.688-2.506 1.185-3.849 1.195h-.07c-9.303.21-34.895.676-45.823.875l-1.733.032c-.034-2.664-.075-5.86-.077-5.91v-.098c-.1-2.95-1.453-6.215-3.45-8.334-3.148-3.401-7.462-4.65-10.29-4.696-1.74-.105-3.563-.107-5.179.84a5.4 5.4 0 0 0-.738.514L28.5 7.942c-.791-.152-1.425-.275-1.87-.348a6 6 0 0 0-.306-.051c-1.586-.246-3.168.132-4.351 1.041l-.037.03c-1.345 1.053-2.112 2.665-2.117 4.434-.037 2.254-.05 6.39-.062 10.393-.012 3.521-.021 6.847-.047 8.65-.091 2.27-.445 3.023-.745 3.425-.545.731-1.866 1.572-3.686 2.606-.626.32-1.559.676-2.544 1.054-2.34.896-5.251 2.012-7.553 3.952l-.123.108a10.47 10.47 0 0 0-3.062 4.931C1.44 49.854.83 52.473.38 54.403l-.237 1.015c-.612 2.73.79 5.422 3.263 6.356.61.247 1.17.383 1.59.483.116.028.275.066.316.08l.183.057c1.173.402 5.05 3.034 6.706 4.16.839.57 1.633 1.108 2.283 1.53 5.577 3.613 16.664 9.592 23.88 11.592 2.977.865 5.121 1.085 7.813 1.17h.051c5.473.117 13.244.154 21.792.154 9.68 0 20.355-.048 29.802-.092 5.577-.026 10.846-.05 15.306-.061l.252-.007a5.4 5.4 0 0 0 1.804-.43 5.2 5.2 0 0 0 1.011-.55l.143-.09.205-.163a5.45 5.45 0 0 0 2.029-3.675c.414-.38.852-.875 1.224-1.524l.594-1.035.047-1.195c.266-6.839.338-17.246.402-26.43.041-5.821.079-11.319.159-15.434.024-1.033-.208-1.946-.396-2.679zm-3.614 18.086c-.064 9.154-.135 19.53-.4 26.305l-.009.24-.119.206c-.311.544-.761.831-1.12 1.062-.263.168-.419.273-.493.404-.08.2-.082.4-.079.786 0 .152.004.31-.001.478-.01.591-.214 1.046-.604 1.356l-.102.073a1.6 1.6 0 0 1-.334.187 1.6 1.6 0 0 1-.559.149h-.049c-4.465.013-9.734.037-15.315.063-9.445.043-20.12.092-29.792.092-8.519 0-16.26-.039-21.703-.152-2.462-.078-4.287-.265-6.905-1.028-6.808-1.878-17.455-7.634-22.834-11.12a125 125 0 0 1-2.214-1.483c-2.608-1.771-6.18-4.198-7.766-4.663l-.04-.013a7 7 0 0 0-.658-.178c-.363-.087-.737-.177-1.096-.329-.767-.271-1.058-1.18-.89-1.91.012-.058.023-.097.033-.136l.194-.828c.443-1.9 1.048-4.498 1.554-5.998.303-1.172 1.01-2.325 1.945-3.167l.024-.021c1.805-1.521 4.274-2.467 6.45-3.302 1.12-.43 2.18-.835 3.001-1.264 4.708-2.67 6.25-3.988 6.454-9.337.027-1.813.037-5.18.048-8.741.013-4.01.026-8.157.062-10.375-.004-.602.207-1.077.631-1.408.51-.392 1.173-.339 1.453-.295.078.011.123.02.171.029l.044.008c.372.06 1.038.187 1.81.336 1.183.227 2.629.505 3.516.628l.015-.052c.11-.402.28-1.007.878-1.353.653-.384 1.637-.407 3.105-.316 2.213.008 5.418 1.085 7.627 3.482 1.342 1.411 2.333 3.802 2.4 5.803v.02c0 .08.108 8.267.118 9.328v.039c-.005.156.058.322.146.398a1 1 0 0 0 .199.033h.016l5.253-.096c10.931-.198 36.528-.665 45.838-.873 2.902-.023 6.523-1.268 7.702-3.946.169-.688.104-1.195-.154-2.217-.136-.471-.493-1.057-.809-1.574q-.13-.211-.245-.407c-.244-.402-.597-.886-.938-1.356-.258-.355-.502-.69-.711-1.006a5.47 5.47 0 0 1-1.086-2.951l-.037-.76c-.066-1.371-.156-3.247-.162-3.869v-.037c0-.186.011-.392.138-.688l.045-.09c.432-.774 1.013-.974 1.423-1.008 1.166-.09 2.068 1.055 2.552 1.671l.063.08 2.142 2.902 7.399 10.028c.915 1.208 2.042 2.845 2.578 4.716l.009.036.072.284c.142.554.288 1.127.276 1.624-.081 4.153-.12 9.663-.16 15.496z"/></svg>