<svg xmlns="http://www.w3.org/2000/svg" width="121" height="85" fill="none" viewBox="0 0 121 85"><path fill="#fff" d="M117.505 72.023c-.4-1.201-1.412-2.799-2.197-3.935L99.92 45.215l.018.013-.067-.087-.033-.057 12.88-15.915c.346-.414 1.246-1.6 1.982-3.478 1.12-2.86-.183-5.75-.61-6.568l-5.657-10.177c-.373-.762-1.14-1.935-2.695-3.267-2.247-1.925-5.103-2.027-5.729-2.027h-8.278c-.987-.05-3.833-.012-6.624 1.713-3.164 1.955-4.32 4.609-4.608 5.408-2.537 6.826-5.523 14.576-6.137 15.746-.216.41-.418.828-.614 1.233-1.046 2.168-2.347 4.868-7.457 8.652-2.966 2.196-5.881 3.057-7.525 3.237l2.576-9.349.007-.027c.245-.909.761-3.25.277-5.347-.496-2.143-1.773-4.004-3.7-5.384-.753-.572-3.706-3.484-4.73-4.984-1.688-2.468-2.072-5.097-2.278-6.508-.048-.327-.088-.608-.142-.884-.148-.763-.49-2.55-1.977-4.195C47.21 1.207 44.894.217 41.916.022 38.488-.202 35.5 1.288 33.72 4.109c-1.132 1.792-1.423 3.55-1.486 4.047l-1.782 15.367-3.212-9.07c-.254-.755-1.22-3.162-3.675-4.824-2.028-1.374-4.499-1.854-6.777-1.319-1.032.243-7.174 2.298-8.17 2.766-.998.468-3.332 1.564-4.527 3.95C3.387 16.433 3 17.97 3 19.357c0 1.59.441 3.15.576 3.59l.029.093 8.786 24.724.015.043c.201.548.935 2.435 1.97 3.745 1.214 1.535 2.794 2.43 3.25 2.667l10.058 5.167-.068-.015.139.056c.198.127.466.38.476.504.01.16.004.279-.007.361l-11.334 6.13c-3.247 1.617-6.291 5.566-5.395 10.522.58 3.21 2.498 5.711 5.398 7.042.713.327 1.399.543 2.005.685l.275.275 87.838.048q.166.007.409.007c1.535 0 5.21-.305 7.753-2.979 2.589-2.724 3.484-6.554 2.334-9.996zm-4.946 7.517c-1.619 1.703-4.276 1.857-5.185 1.857-.136 0-.234-.003-.282-.006l-86.427-.048-.02-.02c-1.841-.154-4.938-1.336-5.606-5.024-.655-3.62 1.993-5.947 3.503-6.683l12.018-6.5c.138-.095 1.419-1.049 1.264-3.422-.152-2.35-2.378-3.456-2.472-3.502l-.023-.01-10.032-5.154c-.057-.03-1.273-.67-2.092-1.708-.737-.935-1.35-2.571-1.417-2.754l-8.77-24.677c-.016-.056-.417-1.373-.417-2.534s.444-2.19.71-2.719c.635-1.27 2.067-1.942 2.836-2.304.666-.313 6.597-2.316 7.463-2.52.616-.145 2.23-.358 3.93.794 1.621 1.096 2.211 2.772 2.29 3.012l5.726 16.173c.02.055.527 1.482 1.704 1.419 1.58-.08 1.817-1.136 1.85-1.347l2.695-23.25c.234-1.854 1.764-5.27 5.875-5.002 4.807.314 5.352 3.153 5.557 4.222.038.198.074.443.116.726.231 1.58.712 4.864 2.869 8.019 1.315 1.924 4.734 5.257 5.6 5.875 1.206.86 2 1.993 2.295 3.272.326 1.407-.186 3.384-.244 3.604l-2.708 9.823c-.008.024-.793 2.67.885 3.691.695.423 2.335.662 4.849.065 2.526-.6 5.204-1.883 7.538-3.612 5.825-4.314 7.405-7.59 8.558-9.982.19-.391.368-.762.553-1.111.846-1.599 4.513-11.286 6.336-16.196.087-.249.818-2.16 3.12-3.581 2.072-1.283 4.265-1.199 4.622-1.175h8.39c.075-.003 2.019-.001 3.378 1.163 1.271 1.089 1.709 1.9 1.832 2.18l5.667 10.192c.108.209 1.043 2.08.45 3.597-.581 1.483-1.298 2.37-1.406 2.499L96.75 43.175c-.056.076-.667.937-.647 1.824.025 1.082.804 2.198.812 2.21l.013.018 15.405 22.896c.141.202 1.436 2.094 1.753 3.043.726 2.178.141 4.623-1.528 6.379z"/><path fill="#fff" d="M110.845 71.132 95.441 48.237c-.147-.207-1.1-1.619-1.137-3.203-.034-1.538.913-2.822 1.021-2.963l.015-.02 13.222-16.335s.608-.724 1.105-1.993c.223-.57-.104-1.587-.367-2.101l-5.714-10.277-.011-.034c-.043-.091-.354-.676-1.354-1.532-.84-.72-2.188-.73-2.202-.73h-8.466l-.04-.002c-.016 0-1.871-.138-3.563.909-1.827 1.129-2.344 2.58-2.365 2.64l-.01.028c-.216.583-5.322 14.318-6.436 16.42-.168.318-.34.674-.521 1.05-1.165 2.417-2.926 6.069-9.109 10.646-2.526 1.87-5.437 3.263-8.194 3.918-2.626.624-4.886.522-6.201-.277-1.22-.743-1.892-2-1.94-3.635a7.2 7.2 0 0 1 .264-2.111l2.695-9.778c.126-.474.419-1.903.228-2.727-.198-.858-.732-1.603-1.587-2.214-1.074-.766-4.624-4.252-6.04-6.323-2.391-3.498-2.912-7.061-3.163-8.773a18 18 0 0 0-.1-.642c-.183-.957-.49-2.548-3.906-2.77-1.452-.094-2.513.406-3.244 1.534a5.2 5.2 0 0 0-.725 1.892L34.9 32.084c-.111.956-.995 2.796-3.547 2.924-2.028.102-3.152-1.607-3.5-2.64l-5.737-16.203c-.003-.007-.414-1.278-1.583-2.068-1.11-.752-2.123-.623-2.507-.531-.753.177-6.536 2.127-7.11 2.397-.573.268-1.635.768-1.993 1.478-.325.651-.519 1.367-.519 1.914 0 .83.293 1.848.333 1.99l8.747 24.612c.153.415.662 1.65 1.136 2.25.577.729 1.5 1.222 1.51 1.227l10.017 5.146c.277.135 3.262 1.67 3.478 5.002.233 3.59-2.035 5.021-2.131 5.08l-.042.024-12.105 6.544c-.125.061-3.109 1.566-2.532 4.75.627 3.465 4.089 3.56 4.236 3.562l86.121.048c.025.003 2.73.133 4.086-1.291.949-.998 1.743-2.723 1.126-4.57-.179-.534-1.036-1.878-1.534-2.6zM100.018 12.65h-.051zm8.673 63.118c-.245.127-.875.243-1.329.23l-.054-.005-84.144-.047-.088-.11-1.944.104a1.8 1.8 0 0 1-.56-.175c-.087-.05-.155-.089-.216-.425-.042-.23-.017-.294.097-.444.162-.21.401-.38.514-.451l12.196-6.595.21-.12c1.947-1.192 4.122-4.102 3.845-8.381-.334-5.15-4.567-7.54-5.437-7.978l-9.951-5.112-.01-.006-.05-.025.048.024a2.3 2.3 0 0 1-.365-.272c-.147-.229-.422-.819-.585-1.258l-8.7-24.476a6 6 0 0 1-.158-.812q.15-.079.375-.186c.8-.32 4.865-1.695 6.198-2.1.048.059.098.139.128.202l5.734 16.195c.905 2.656 3.439 5.24 7.085 5.06 2.402-.12 4.434-1.187 5.722-3.004.932-1.314 1.166-2.605 1.223-3.101L41.16 9.356l.004-.02.009-.1-.009.096c.027-.11.075-.237.122-.335l.04.002c.273.018.483.046.638.078l.04.264c.266 1.825.89 6.098 3.752 10.283 1.624 2.376 5.464 6.182 6.921 7.222q.088.064.136.108a6.5 6.5 0 0 1-.164.979l-2.675 9.706a10.7 10.7 0 0 0-.402 3.212c.084 2.83 1.421 5.236 3.667 6.603 2.757 1.677 6.366 1.31 8.909.705 2.279-.542 5.778-1.767 9.506-4.527 6.896-5.107 8.97-9.407 10.21-11.976.173-.36.322-.67.459-.929 1.147-2.163 5.345-13.393 6.621-16.828.054-.102.3-.513.902-.885.488-.302 1.106-.372 1.381-.377l.051.01h8.673q.015 0 .028.004l-.083.007.09-.006.06.01c.18.164.288.286.345.353l5.599 10.07c-.108.192-.193.312-.22.351L92.536 39.788l-.075.095c-.428.559-1.822 2.59-1.762 5.234.057 2.482 1.313 4.504 1.77 5.158l15.377 22.857.03.044c.428.621.923 1.418 1.1 1.767.059.308-.132.636-.29.824z"/></svg>