<svg xmlns="http://www.w3.org/2000/svg" width="121" height="85" fill="none" viewBox="0 0 121 85"><path fill="#fff" d="m69.423 35.424.003.003.005.008.013.021.031.053q.037.06.09.153a9 9 0 0 1 .267.494c.094.188.238.49.367.847.075.207.39 1.066.346 2.155v.007a5.5 5.5 0 0 1-1.014 2.938 6.6 6.6 0 0 1-.955 1.076 8 8 0 0 1-.847.669l-.036.023-.001.002-.016.01-.056.039-.204.137a103 103 0 0 1-3 1.943c-.934.581-1.903 1.16-2.664 1.607-.382.225-.717.42-.97.568l-.31.181-.115.068-.001-.001c-.517.315-1.141.626-1.552.829l-.274.136a4 4 0 0 0 .058.44l.081.388.001.002c.262 1.203.361 2.266.342 3.794-.02 1.668-.183 4.124-1.698 6.466h-.001c-1.485 2.298-3.638 3.85-6.082 4.417-.48.11-1.01.21-1.377.277l-.48.085-.144.023-.042.007q-.008 0-.013.003h-.004v.001h-.012L38.91 66.938l.075.529c.112.78.248 1.704.278 1.942.043.34.089.856.098 1.424.008.492-.003 1.4-.235 2.342v.006a5.37 5.37 0 0 1-1.847 2.92 5.7 5.7 0 0 1-1.983 1.01l-.003.002-.365.124a56 56 0 0 1-5.787 1.614c-1.636.361-3.477.653-4.74.881v.001c-1.26.229-2.388.432-3.2.579l-.957.172-.26.047-.067.013-.018.003h-.006l-.038.008h-.005l-.006.002-.014.002-.043.006-.131.022c-.106.016-.25.038-.42.06-.322.043-.814.1-1.333.124v.002a7.4 7.4 0 0 1-2.625-.352c-.73-.237-2.175-.838-3.197-2.33a9 9 0 0 1-1.1-2.254 9 9 0 0 1-.267-1.013l-.02-.1-.007-.043-.003-.02-.002-.009v-.007l3.945-.662v.004l.001.005.003.014.008.04.027.13c.025.107.063.252.119.422.108.332.293.789.595 1.231.303.443.776.671 1.135.788.385.125.81.178 1.2.16l.532-.04a14 14 0 0 0 .794-.102l.097-.016.027-.005h.008l.002-.002h.011l.004-.002.018-.003.067-.012.259-.047.958-.173 3.199-.578c1.398-.253 3.052-.512 4.588-.852a52 52 0 0 0 5.82-1.651l.134-.037a1.6 1.6 0 0 0 .542-.275c.303-.244.416-.553.469-.763.107-.436.124-.934.118-1.324a10 10 0 0 0-.067-.985c-.055-.442-.484-3.293-.529-3.78-.069-.748-.424-1.424-.855-1.912-.096-.108-.165-.184-.234-.266q-.048-.06-.08-.105.046-.024.106-.048a3.4 3.4 0 0 1 .632-.177h.004l14.186-2.276h.003l.003-.001.01-.001.035-.006.129-.023A26 26 0 0 0 50.329 61c1.354-.313 2.66-1.196 3.627-2.692.88-1.362 1.04-2.864 1.058-4.343.016-1.282-.065-2.038-.25-2.894-.15-.687-.234-1.107-.253-2.067-.026-1.37.409-2.241 1.18-2.656.408-.22.874-.448 1.338-.678.445-.22.909-.452 1.25-.66l-.001-.001c.237-.145 2.282-1.316 4.025-2.402l.001.001a96 96 0 0 0 2.88-1.867l.192-.129.048-.033.002-.002.004-.002.01-.007q.014-.008.033-.022a3.5 3.5 0 0 0 .41-.323c.112-.102.254-.245.375-.418.111-.159.277-.442.292-.809a1.7 1.7 0 0 0-.113-.636 4 4 0 0 0-.179-.407 6 6 0 0 0-.16-.297l-.053-.092-.016-.026-.005-.009-.002-.003-.002-.002c3.286-2.032 3.398-2.1 3.402-2.102zM9.94 29.674l14.925-9.083.017-.01.015-.01.048-.031.188-.118a125 125 0 0 1 3.05-1.852c1.878-1.102 4.127-2.347 5.746-3.02 2.4-.995 4.11-1.513 5.633-1.79 1.524-.277 2.902-.32 4.672-.326 2.755-.01 4.96.567 6.539 1.193l-.009.058-.009.061-.005.044v.008q.01-.086.026-.17.232.091.445.184c.8.346 1.407.69 1.809.944.2.126.349.23.444.299q.072.052.103.077l.017.013.005.004.026.022a5 5 0 0 0 .37.265c.112.07.26.156.423.225.148.062.398.152.69.142l.006-.001c.531-.021.967-.22 1.259-.557.133-.154.214-.312.261-.44q.014-.04.024-.076l.164.11.152.106.046.032.012.01.003.001v.001l.027.017-2.145 3.283.002.001c.116-.18.547-.841 2.143-3.284l.004.004.004.002.034.02.068.04q.083.047.218.109c.177.079.43.17.734.223l.002.001c.484.083.939.039 1.249-.014a4 4 0 0 0 .51-.12l.037-.012.005-.002 3.513-1.032.06-.02h.002l.004-.002.017-.006.058-.021.202-.08c.169-.066.404-.162.664-.279.495-.221 1.178-.558 1.664-.946l.48-.368c.45-.329.829-.544 1.25-.688.955-.325 1.856-.495 2.715-.64.825-.138 1.703-.265 2.455-.509l.378-.132c.878-.329 1.71-.787 2.161-1.135l.105-.078c.14.216.49.703.982 1.172.525.5 1.38 1.144 2.435 1.192 1.335.062 2.452-.696 2.886-.939l.003-.002a73 73 0 0 1 2.006-1.09c.22-.108.664-.31 1.204-.352a21 21 0 0 1 1.073-.056h6.094q.039.001.11.007c.098.008.234.021.385.045.335.053.613.136.754.225h.001c.53.332 1.32 1.122 1.873 1.932.328.48.768 1.046 1.275 1.544.493.484 1.125.978 1.847 1.205 1.271.4 3.013.222 4.227-.35.443-.21 1.547-.656 2.62-1.076a115 115 0 0 1 1.941-.737l.158-.055.054-.017c.377-.105.776-.273 1.872-.266 1.937.012 4.57 1.663 4.546 5.143-.026 3.875-3.435 6.109-6.011 6.136-2.668.029-4.929-1.17-7.512-2.984l-.655-.464a36 36 0 0 1-3.365-2.69 58 58 0 0 0-3.222-2.64c-2.05-1.567-3.948-2.689-4.519-2.995a4.3 4.3 0 0 0-.818-.363 2.6 2.6 0 0 0-.696-.104l-.236.001c-.588.018-1.082.29-1.428.545a5 5 0 0 0-.873.852c-.133.165-1.107 1.486-2.052 2.763a679 679 0 0 1-1.823 2.45l-.203.264-.014.019-.004.005c-.266.316-.933 1.01-1.603 1.377l-.133.068c-.428.204-.788.309-1.44.309-.13 0-.564-.007-1.182-.013-.609-.007-1.383-.013-2.17-.014-.785 0-1.59.006-2.264.024-.636.016-1.254.045-1.595.112-2.34.46-4.444 2.04-5.455 3.356-.93 1.212-1.644 2.375-1.771 4.123-.036.49-.068 2.194-.09 3.722l-.026 2.076-.007.664-.002.184v.079l-4.001.017v-.135l.003-.187.007-.667c.007-.555.015-1.307.027-2.088.02-1.446.051-3.316.098-3.958.212-2.893 1.47-4.81 2.59-6.266a12.5 12.5 0 0 1 2.08-2.088l-2.548.748-.022.008a8 8 0 0 1-1.015.241 7.7 7.7 0 0 1-2.603.015l-.006-.001-.071-.014a6 6 0 0 1-2.101.466h-.025a5.65 5.65 0 0 1-2.384-.452 7 7 0 0 1-1.014-.537 8 8 0 0 1-.722-.517 5 5 0 0 0-.23-.153 9.4 9.4 0 0 0-1.265-.658c-1.174-.508-2.992-1.057-5.382-1.048-1.73.006-2.813.05-3.972.261-1.155.21-2.581.623-4.815 1.55-1.34.556-3.378 1.674-5.254 2.774a121 121 0 0 0-3.125 1.9l-.042.028-.01.006-.001.001-.086.054-14.85 9.038q-.008.007-.02.014a5 5 0 0 0-.3.245c-.287.258-.487.51-.577.683a1.8 1.8 0 0 0-.19.713 5.8 5.8 0 0 1 1.79.97l.305.264.005.005a6.2 6.2 0 0 1 1.58 2.416 6.5 6.5 0 0 1 .31 1.224l.235 1.585q.018.087.034.176l4.839 29.006 2.519-.455c1.6-.29 2.975-.5 4.36-.806.747-.165 1.44-.34 2.062-.508l-.13-.92-.01-.073a8 8 0 0 1-.39-.536 6.1 6.1 0 0 1-1.022-3.36c0-2.19 1.225-3.62 2.011-4.294a7 7 0 0 1 2.006-1.182 9.4 9.4 0 0 1 1.786-.5l.053-.01.022-.003.014-.003h.002c.001 0 .002 0 .636 3.95h-.003l-.007.001-.022.003-.07.014a5.7 5.7 0 0 0-.948.272 3 3 0 0 0-.865.497c-.284.243-.614.66-.614 1.255 0 .488.178.878.37 1.172.175.269.408.52.55.68.208.235.34.525.363.772.047.509.5 3.564.536 3.846.019.15.047.444.052.767.003.189-.005.363-.018.513-.614.204-2.103.73-4.314 1.276l-1.184.276c-.742.165-1.505.308-2.264.443l-2.249.394-4.155.751-.259.047-.067.012-.018.003h-.005l-.016.003a13 13 0 0 1-.767.101l-.426.033a1.5 1.5 0 0 1-.489-.064 1 1 0 0 1-.125-.054 3 3 0 0 1-.392-.94l-.015-.063v-.007L11.318 42a1 1 0 0 0-.024-.105l-.255-1.73-.005-.036a2.4 2.4 0 0 0-.11-.41 2.2 2.2 0 0 0-.555-.86h-.001l-.083-.072a1.8 1.8 0 0 0-.553-.293 3 3 0 0 0-.504-.113 4 4 0 0 0-.482-.034H8.69l-1.134.015h-.048q-.018 0-.04-.004-.016-.044-.032-.096a2 2 0 0 1-.048-.214v-.009l-.334-2.473-.009-.052-.005-.041a5.6 5.6 0 0 1-.03-.96 5.8 5.8 0 0 1 .64-2.375c.39-.746.959-1.367 1.453-1.81a8 8 0 0 1 .79-.62l.041-.028zm-1.058-1.697-.003.003-.006.004-.022.014q-.027.016-.071.046-.09.06-.24.169a10 10 0 0 0-.77.626c-.599.536-1.354 1.34-1.893 2.373a7.84 7.84 0 0 0-.817 4.536l.013.084.335 2.487.002.012v.006l.002.01q0 .013.005.03l.018.099c.015.079.039.188.072.311.056.204.179.605.436.92v.001c.363.442.875.57 1.124.613a2.7 2.7 0 0 0 .53.04h.002l1.126-.014.009-.001h.005l.05.002c.047.001.11.005.173.013q.042.007.074.015l.01.023.016.053v.005l.274 1.855q.01.066.03.13l5.262 31.54-3.945.66v-.001l-5.1-30.572a5.7 5.7 0 0 1-2.737-1.83l-.005-.006c-.823-1.01-1.118-2.119-1.193-2.392a8 8 0 0 1-.177-.801l-.012-.074-.004-.03-.003-.021-.001-.003v-.002l-.008-.057-.325-2.42-.02-.131a10 10 0 0 1-.06-.526 11.85 11.85 0 0 1 1.293-6.415c.838-1.605 1.96-2.778 2.765-3.5a14 14 0 0 1 1.456-1.14l.13-.084.049-.032.02-.013.01-.006q.003 0 .004-.003l.003-.001c.006.007.105.166 2.114 3.395m26.114 39.59.01-.002.007-.001zm-2.55-.039q.065-.02.139-.04l.001-.002zM62.83 34.715v.044a4 4 0 0 0 .034.459c.031.277.097.671.239 1.063l.152.37c.174.383.4.799.585 1.122.13.226.249.427.336.572l.106.172.029.046.008.014q0 .003.003.004v.001l.007.01.034.06c.025.043.055.1.087.16-.022.016-.04.035-.059.048l-.047.034-.007.004-.021.015-.003.002-.013.008-.048.033-.185.125a100 100 0 0 1-2.82 1.827c-1.785 1.112-3.641 2.168-4.01 2.393-.253.154-.634.347-1.097.576-.222.11-.46.227-.698.347l-.7.361c-1.695.911-2.265 2.692-2.23 4.458.022 1.128.128 1.684.296 2.454.149.682.22 1.283.205 2.443-.017 1.384-.174 2.41-.737 3.282-.708 1.095-1.591 1.642-2.4 1.83-.334.077-.748.156-1.087.218l-.42.073-.121.02-.032.006-.008.001h-.003l-14.182 2.277h-.001l-.634-3.95 14.175-2.275h.004l.025-.005.107-.018.378-.066c.254-.046.519-.098.735-.145a1 1 0 0 0 .09-.122 1 1 0 0 0 .03-.107c.038-.182.073-.493.08-1.07.012-.914-.041-1.207-.114-1.541a14.7 14.7 0 0 1-.387-3.226v-.002c-.05-2.558.795-6.153 4.335-8.057.523-.282 1.114-.57 1.518-.77a32 32 0 0 0 .727-.372l.063-.036.003-.001c.188-.115.872-.511 1.524-.895.731-.43 1.62-.959 2.451-1.476l.002-.001.133-.085a9 9 0 0 1-.378-1.756 10 10 0 0 1-.057-.81l-.002-.077v-.032l-.001-.014v-.011c0-.001.01-.002 4-.019zM5.088 40.934l.001.008.003.024.007.049zm87.41-36.686.038.001.096.004q.113.005.279.018c.215.016.512.046.853.1.514.081 1.793.308 3.003 1.065l.267.173c1.329.903 2.566 2.269 3.382 3.463q.072.105.152.212c.71-.314 1.797-.75 2.677-1.095.909-.355 2.226-.862 2.732-1.002-.089.024.548-.173 1.151-.288.685-.13 1.452-.2 2.362-.195h.003-.001c4.833.03 10.556 3.985 10.508 11.183-.053 7.842-6.84 12.04-11.95 12.094-4.65.05-8.234-2.113-11.023-4.073-2.045-1.435-3.084-2.272-4.555-3.578a52 52 0 0 0-2.882-2.358l-.002-.001a36 36 0 0 0-1.647-1.184l-.506.685c-.48.649-.968 1.307-1.355 1.827-.317.425-.722.968-.921 1.205-.407.483-1.824 2.078-3.738 2.994l-.002.001c-1.213.58-2.455.896-4.028.896-.172 0-.686-.007-1.244-.013-.6-.007-1.352-.013-2.111-.014-.766 0-1.51.005-2.103.02a19 19 0 0 0-.685.029h-.008a3.5 3.5 0 0 0-1.004.468 4.4 4.4 0 0 0-.529.403q-.105.096-.163.16-.03.032-.044.05l-.015.018c-.367.477-.476.674-.516.758-.014.03-.016.04-.016.04-.001.004-.01.034-.015.106v.004c0 .004-.006.102-.014.34-.007.219-.013.498-.02.822-.014.647-.027 1.435-.038 2.204l-.027 2.059-.005.55q.073.144.217.4a20 20 0 0 0 .352.59l.002.004.016.027-3.401 2.103-.003-.005-.002-.002-.006-.01-.12-.197c-.082-.134-.192-.32-.31-.527-.187-.326-.37-.667-.494-.938l-.101-.245a2.8 2.8 0 0 1-.132-.608 4 4 0 0 1-.019-.225l-.001-.058-.001-.012v-.047l.002-.183.007-.662.027-2.07c.022-1.57.052-3.19.083-3.604l.02-.216c.122-1.059.558-1.813 1.343-2.835.757-.985 2.456-2.258 4.256-2.612.143-.028.577-.058 1.26-.076a86 86 0 0 1 2.212-.023c.777 0 1.543.008 2.149.014.598.006 1.058.012 1.202.012.96 0 1.614-.175 2.304-.504 1.113-.533 2.078-1.575 2.403-1.961.18-.214 1.18-1.564 2.121-2.836l1.33-1.798.464-.624.147-.194.044-.06.017-.021v-.002c.148-.184.327-.366.503-.496.187-.138.287-.154.3-.155l.213.004a.5.5 0 0 1 .097.018c.07.02.17.063.436.206.482.258 2.289 1.323 4.248 2.821l.001.002a56 56 0 0 1 3.108 2.545c1.354 1.202 2.274 1.944 4.2 3.296 2.652 1.863 5.353 3.382 8.681 3.347 3.421-.036 7.957-2.925 7.991-8.123.032-4.719-3.631-7.138-6.534-7.156-1.399-.009-2.036.232-2.419.338-.253.07-1.311.47-2.345.874-1.057.413-2.229.886-2.745 1.13-.814.384-2.037.484-2.774.252-.283-.09-.646-.332-1.048-.726a8.5 8.5 0 0 1-1.022-1.244c-.659-.965-1.637-1.98-2.466-2.499-.497-.312-1.109-.443-1.504-.506a7 7 0 0 0-.707-.074l-.049-.002h-.025c.101-3.83.106-3.992.107-3.999h.013zm-16.693-.026c1.84 0 3.134.884 3.821 1.529q.146.14.274.277a52 52 0 0 1 1.404-.752l.01-.005a9.3 9.3 0 0 1 3.385-.95l.61-.042a25 25 0 0 1 .81-.032h.103l.035-.002h6.078l.132.002-.105 3.998h-6.088l-.072.001-.264.008a23 23 0 0 0-.925.055 5.3 5.3 0 0 0-1.93.551l-.002.001a75 75 0 0 0-2.1 1.139c-.617.345-1.122.673-1.701.688h-.116l-.124-.015c-.295-.058-.653-.275-1.024-.628a5 5 0 0 1-.635-.736l-.056-.084-.166-.25a2 2 0 0 0-.269-.307 1.58 1.58 0 0 0-1.084-.446c-.247 0-.514.028-.81.162-.246.11-.469.278-.667.43-.306.236-1.106.68-1.936.95-.573.186-1.252.285-2.17.44-.883.148-1.914.339-3.027.718-.899.305-1.602.802-2.334 1.387-.273.217-.754.468-1.234.683a15 15 0 0 1-.755.313l-.025.008-3.513 1.033-.04.012-.003.001-.048.015c-.048.013-.121.03-.21.046a1.8 1.8 0 0 1-.57.014 1.1 1.1 0 0 1-.313-.106l-.034-.023-.16-.11-.392-.267-.191-.11c-.45-.224-.919-.218-1.364-.125l-.136.037a1.44 1.44 0 0 0-.625.425 2.2 2.2 0 0 0-.3.46l-.018.037-.01-.006-.043-.034-.007-.007-.01-.007-.372.456h-.001l.29-.356.082-.101-.002-.001-.005-.004q-.005-.005-.014-.01-.016-.014-.043-.034-.053-.042-.149-.113a11 11 0 0 0-.552-.37 15.4 15.4 0 0 0-2.08-1.088c-1.81-.784-4.446-1.556-7.79-1.543-1.79.007-3.316.048-5.022.358-1.708.31-3.56.882-6.041 1.911-1.76.73-4.113 2.04-5.992 3.143a128 128 0 0 0-3.101 1.881l-.194.123-.05.032-.012.007-14.922 9.083-.009.004L6.77 24.58l.042-.025 14.913-9.078.012-.007.204-.13a131 131 0 0 1 3.205-1.945c1.88-1.103 4.443-2.54 6.482-3.386 2.647-1.098 4.784-1.775 6.86-2.153 2.071-.376 3.89-.415 5.721-.422 3.98-.015 7.162.905 9.395 1.872q.657.287 1.205.569.18-.053.373-.095c.984-.207 2.459-.298 3.966.452l2.41-.709.018-.005c.108-.043.257-.105.418-.177.449-.201.525-.28.37-.157.83-.663 1.972-1.513 3.543-2.047 1.43-.487 2.72-.721 3.653-.878 1.101-.185 1.384-.23 1.596-.299h.002a4.3 4.3 0 0 0 .792-.362c.052-.032.022-.018-.063.048.17-.132.735-.58 1.462-.908a5.9 5.9 0 0 1 2.457-.516m33.272 12.492-.079.009h-.002l-.005.002-.016.003-.095.028-.108.031c.064-.02.064-.023-.055.02l-.445.165c-.379.142-.872.33-1.388.532-1.105.432-2.073.828-2.369.968q-.18.084-.369.162c1.636 1.01 2.728 1.36 3.8 1.348.222-.002.826-.154 1.356-.623.43-.38.693-.851.698-1.54.002-.37-.065-.58-.11-.684a.7.7 0 0 0-.172-.25.8.8 0 0 0-.323-.182 4 4 0 0 0-.318.01m-34.181-1.478q-.327.127-.651.234c-1.112.36-2.387.542-3.028.65-.8.135-1.434.262-2.064.475l-.088.057q.171-.039.344-.073l.287-.049c.69-.103 1.503-.125 1.974-.137.727-.02 1.574-.025 2.373-.025.806 0 1.594.008 2.21.015l.777.009h.147l.009-.007a7.9 7.9 0 0 1-2.29-1.149m-20.175.03.002-.011.004-.023.008-.042.007-.025zm-.233-.212-3.59-.998v-.002zm-3.713-.426-.003-.001.01-.066.02-.095zm4.249-.233v.002l.9-1.102-.002-.003zm-4.203-.026.014-.07q.014-.062.032-.125-.025.098-.046.195m5.102-1.079.001.003 1.465-1.794-.004-.003c.002.001.001 0-1.462 1.794"/></svg>