<svg xmlns="http://www.w3.org/2000/svg" width="121" height="85" fill="none" viewBox="0 0 121 85"><path fill="#fff" d="m115.207 18.245-.009-.003a56 56 0 0 1-2.039-.688c-1.583-.556-1.85-1.678-1.765-2.301.011-.5.075-3.612.044-4.64q-.01-.309-.416-.369l-.014-.002a142 142 0 0 0-3.299-.366c-.837-.075-4.763-.15-6.722-.18l-9.374-.032c-.185 0-18.495-.065-20.376-.051-1.867.014-7.829.299-7.888.302l-8.936.317h-.028l-5.35.032-14.007-.06c-.201 0-19.963-.113-21.648-.127-1.276-.012-1.906.226-2.636.5q-.21.081-.428.158c-.666.236-2.443 1.932-3.17 3.025-.659.989-.925 2.071-1.408 4.036l-.012.055c-.057.227-.204.957.148 1.108.605 0 3.24 0 3.983-.032.62-.027 1.37.065 1.89.148q.474.075.908.274c.211.098.622.27 1.025.318.036.005.13-.01.28-.095a1.45 1.45 0 0 0 .569-.597c.431-.82.561-1.045.622-1.142l.016-.026c.208-.335.762-1.227 1.946-1.326.377-.03.942.047 1.518.577.395.364.674.844.805 1.387.81 3.338 2.204 9.12 2.439 10.336.12.63.57.754.8.774h.035c.209.001 20.823.162 24.727.198 3.95.036 6.125.843 6.345.93.263.098 7.095 2.644 9.023 3.388 2.172.837 2.843 2.23 2.965 2.527.082.181.649 1.457 1.288 3.217.416 1.142 1.36 1.37 1.583 1.408.751.005 7.793.047 9.305.033h.065c1.752 0 3.603.677 3.683.706l.048.02c.102.044 2.5 1.11 3.494 3.567.67 1.658 2.092 2.64 2.321 2.79.357.171 2.603 1.24 4.166 1.835 1.821.694 2.406 2.122 2.464 2.857l.003.067c.004.87.13 21.316.113 22.389-.007.416.069.613.852.876.223.075.448-.153.488-.195a.5.5 0 0 1 .076-.081c.201-.189 4.939-4.628 5.89-5.497a.5.5 0 0 0 .113-.135l-.008-.024a.28.28 0 0 0-.15-.142c-.397-.17-2.423-1.037-3.357-1.454-1.397-.624-1.431-1.945-1.124-2.631l.016-.033c.032-.067 3.308-6.694 4.086-8.42.782-1.737 3.694-8.366 3.723-8.433.051-.117 5.237-12.063 6.602-15.23 1.337-3.1 2.337-5.5 3.036-8.177.683-2.622.818-6.047.813-7.145-.001-.342-.094-.488-.147-.524zM12.28 15.375a17 17 0 0 0-1.486-.168c.37-.4.826-.839 1.122-1.066l.155-.058c.598-.224.704-.263 1.278-.259l.475.003a6.6 6.6 0 0 0-1.544 1.549zm98.62 9.6c-.631 2.422-1.58 4.694-2.851 7.64-1.349 3.129-6.432 14.838-6.596 15.218-.12.272-2.517 5.73-3.49 7.908l-.015-2.665q0-.169-.014-.339c-.158-1.999-1.528-4.787-4.868-6.06-1.103-.419-2.732-1.167-3.58-1.568-.225-.185-.597-.547-.763-.957-1.505-3.716-4.827-5.316-5.48-5.598a7 7 0 0 0-.242-.098c-.436-.161-2.732-.964-5.094-.94-1.116.01-5.355-.012-7.71-.024a52 52 0 0 0-.984-2.389c-.418-.968-1.714-3.23-5.053-4.519-1.929-.744-8.466-3.181-9.038-3.395-.655-.25-3.262-1.135-7.652-1.175-3.114-.028-16.857-.136-22.402-.18-.512-2.2-1.3-5.473-1.975-8.26a6.47 6.47 0 0 0-2.453-3.71c6.11.037 13.856.08 14.372.083l13.997.061h.05l5.351-.032q.07.001.138-.004l8.923-.316q.03 0 .06-.003c1.647-.08 6.25-.289 7.734-.3 1.859-.014 20.15.052 20.336.052l9.356.033c2.638.04 5.834.113 6.42.163l.287.027-.025 1.375c-.196 2.218.995 4.736 3.866 5.924-.1 1.315-.29 2.841-.603 4.045z"/><path fill="#fff" d="M120.997 18.742c-.016-3.11-1.945-5.102-3.92-5.792a71 71 0 0 0 0-2.502c-.104-3.42-2.791-5.487-5.417-5.78-.299-.036-2.357-.285-3.452-.382-1.174-.105-5.76-.18-7.136-.2h-.055l-9.385-.032c-.756-.004-18.527-.066-20.44-.052-1.928.014-7.566.282-8.088.309l-8.824.313-5.255.033-13.968-.06c-.199 0-19.953-.113-21.631-.127-2.334-.017-3.742.511-4.676.862q-.161.062-.33.122c-2.729.968-5.412 4.358-5.981 5.214-1.2 1.804-1.635 3.568-2.183 5.8l-.013.055c-.633 2.578.09 4.39.809 5.455.917 1.36 2.412 2.314 3.998 2.55q.344.051.693.051c.564 0 3.427 0 4.335-.036.053 0 .227.008.512.044.618.26 1.461.546 2.392.658a5.9 5.9 0 0 0 2.25-.16c.867 3.636 1.059 4.545 1.101 4.761.67 3.487 3.7 5.323 6.346 5.333l.155-.001c1.99.015 20.839.164 24.552.196 2.581.024 4.067.459 4.336.544.027.013-.003-.003.072.026.071.026 7.044 2.625 8.97 3.368q.022.008.04.017c.21.491.565 1.355.946 2.403 1.238 3.404 4.188 4.868 6.34 5.088q.225.022.451.025c.318.001 7.824.048 9.46.032.394-.001 1.042.144 1.502.281.208.137.443.351.5.493 1.377 3.404 4.123 5.19 4.66 5.512q.19.113.386.21c.09.043 1.832.88 3.51 1.587.05 8.414.112 19.685.101 20.444-.022 1.408.389 4.837 4.688 6.283.644.216 1.28.313 1.893.313 1.812 0 3.428-.845 4.477-1.94.779-.73 4.868-4.56 5.703-5.323 1.845-1.68 2.434-4.12 1.545-6.353a5.93 5.93 0 0 0-3.092-3.21c.955-1.95 2.033-4.172 2.459-5.119.793-1.76 3.625-8.206 3.744-8.48l.008-.02c.052-.12 5.24-12.073 6.609-15.245 1.391-3.222 2.516-5.929 3.312-8.982 1.006-3.858.995-8.392.994-8.582zm-4.635 7.643c-.73 2.805-1.757 5.269-3.127 8.445a9989 9989 0 0 1-6.606 15.238c-.031.07-2.946 6.708-3.731 8.453-.765 1.697-3.767 7.776-4.091 8.431a.2.2 0 0 0-.005.069.5.5 0 0 0 .173.11c.921.412 2.935 1.275 3.33 1.443.531.228.953.655 1.157 1.174.313.79.102 1.602-.583 2.225-.898.82-5.384 5.023-5.835 5.446-.328.368-.981.835-1.793.835-.223 0-.456-.034-.7-.117-.59-.2-2.162-.726-2.13-2.678.015-1.026-.106-21.023-.114-22.288-.03-.165-.217-.853-1.258-1.249-1.77-.674-4.257-1.871-4.362-1.921l-.077-.042c-.088-.053-2.152-1.318-3.12-3.71-.658-1.626-2.273-2.44-2.483-2.542-.226-.08-1.696-.578-2.995-.578h-.048c-1.607.016-9.083-.031-9.401-.033a1 1 0 0 1-.091-.004 3.99 3.99 0 0 1-3.186-2.639 48 48 0 0 0-1.243-3.103c-.014-.03-.014-.028-.022-.053-.049-.106-.465-.926-1.9-1.48-1.945-.75-8.94-3.357-9.01-3.384l-.023-.009c-.016-.006-1.986-.766-5.672-.798-3.785-.035-23.294-.187-24.652-.198l-.072.003c-.772-.003-2.322-.488-2.67-2.296-.166-.86-1.048-4.597-2.42-10.25a.9.9 0 0 0-.253-.451.6.6 0 0 0-.112-.083c-.186.025-.304.165-.475.44l-.018.031c-.033.051-.15.251-.554 1.021a3.3 3.3 0 0 1-1.313 1.36c-.481.271-.966.379-1.433.321-.625-.076-1.21-.302-1.589-.478q-.192-.089-.409-.124c-.614-.096-1.153-.142-1.517-.126-.878.036-4.053.034-4.188.034a1 1 0 0 1-.138-.01 2.2 2.2 0 0 1-1.432-.935c-.431-.64-.525-1.475-.278-2.48l.013-.055c.516-2.097.827-3.362 1.666-4.624.806-1.211 2.885-3.32 4.108-3.754q.202-.073.396-.147c.831-.312 1.69-.631 3.317-.62 1.683.014 21.442.124 21.64.126l13.997.06 5.327-.032 8.909-.317c.235-.01 6.05-.29 7.953-.304 1.89-.014 20.212.052 20.397.052l9.385.032c.245.004 5.757.088 6.871.186 1.074.095 3.18.35 3.354.371.71.075 2.042.624 2.089 2.174.035 1.161-.042 4.656-.045 4.804a1 1 0 0 1-.009.108c.023.048.15.188.521.32 1.174.413 1.815.615 1.944.656.58.151 1.498.79 1.506 2.312.008 1.45-.166 4.91-.873 7.625z"/></svg>