<svg xmlns="http://www.w3.org/2000/svg" width="121" height="85" fill="none" viewBox="0 0 121 85"><path fill="#fff" d="M18.905 22.938c-.082.414-.047.45.124.619.573.57 3.974 2.823 4.762 3.294.65.388 1.437.595 2.403.63.592.021 2.622.026 3.974-.83 1.139-.72 4.563-2.89 9.095-3.187l-19.738-.782s-.572.01-.62.256m94.94 8.575c.084-.428.87-3.67 1.046-4.249.089-.295.107-.59.094-.769l-.07-.006c-.108-.011-.238-.024-.38-.046L43.672 23.64c1.606.26 3.013.747 4.248 1.47 2.655 1.551 25.905 15.094 26.14 15.231.233.136 2.274 1.38 2.085 3.125-.187 1.733-1.475 2.506-2.51 3.13q-.203.119-.402.245c-1.025.642-1.745 1.234-1.922 2.034-.115.513-.072 1.097-.027 1.714.03.404.06.822.049 1.247-.05 1.763-.429 3.795-2.88 5.501-1.268.884-4.067 2.412-8.541 2.715-2.86.194-5.935-.522-9.139-2.13l-.095-.048c-1.2-.597-14.392-8.284-15.138-8.72a5.93 5.93 0 0 0-2.991-.56c-1.24.106-2.808.822-4.415 2.02-1.174.876-3.288 1.839-5.38 1.671-1.452-.116-2.692-.707-3.795-1.8l-.201-.204c-.682-.693-2.495-2.53-3.868-2.855-1.345-.319-4.3-.218-6.505 1.41l-.262.19c-1.502 1.096-2.798 2.043-2.308 5.093.056.343.227.605.54.824.798.562 2.201.613 2.742.515.635-.114 3.942-.64 6.778.287 2.604.849 5.259 1.327 6.409 1.443 1.209.12 3.403.249 5.363.249.846 0 3.266-.068 6.07-.148 3.795-.108 8.424-.239 10.67-.239.258 0 .487.002.677.005 2.32.046 6.16 1.365 8.53 2.614 1.889.995 6.499 2.362 9.387 2.564 3.585.253 9.381-.052 12.497-.982 5.407-1.614 14.07-4.717 17.896-6.133 2.368-.876 14.054-6.216 15.496-7.43a5 5 0 0 0 .435-.398c-.097-.132-.454-.52-1.675-1.251l-.226-.13c-.999-.565-3.08-1.74-3.382-3.678-.309-2 .694-4.008 2.331-4.67 1.077-.438 2.59-.367 3.805-.31.389.018.755.035 1.001.027 1.106-.035 1.645-.3 2.154-.718.267-.218.914-1.081 1.866-2.798a2 2 0 0 0-.254-.158c-.903-.475-1.268-1.18-1.088-2.094zM12.055 51.417q-.294.001-.57.008c.93-.367 1.954-.404 2.424-.336.137.073.358.215.699.499a18.5 18.5 0 0 0-2.554-.17m21.558 2.084-3.12.087c1.24-.911 2.097-1.2 2.38-1.224a2 2 0 0 1 .13-.004c.316 0 .618.091.766.148.437.256.988.576 1.617.942l-1.775.05zm76.591-20.038c-1.491-.07-3.483-.137-5.277.59-3.281 1.328-5.241 5.01-4.661 8.757.268 1.73 1.138 3.07 2.123 4.086-3.8 1.845-8.923 4.149-10.336 4.673-3.785 1.4-12.348 4.468-17.663 6.056-.334.1-.713.19-1.128.274 1.781-2.46 1.85-4.963 1.878-5.964a16 16 0 0 0-.057-1.624l-.011-.145q.085-.057.193-.123.168-.104.338-.205c1.28-.769 3.942-2.368 4.329-5.968.336-3.12-1.818-5.557-3.948-6.797l-15.4-8.974 49.688 1.964c-.081.348-.141.61-.164.722a5.7 5.7 0 0 0 .095 2.678z"/><path fill="#fff" d="M120.594 31.568a5.2 5.2 0 0 0-.633-1.103c.173-.704.338-1.356.4-1.57.239-.796.893-3.567-.742-5.824a5.2 5.2 0 0 0-2.548-1.894l-.324-.333-96.987-3.839c-2.71-.112-5.8 1.514-6.458 4.83-.556 2.796.608 4.662 1.687 5.74 1.334 1.327 5.821 4.124 5.864 4.15 1.477.881 3.204 1.363 5.127 1.434 1.604.06 4.68-.084 7.254-1.713.844-.535 3.412-2.16 6.556-2.32 2.31-.117 4.023.17 5.238.883 2.08 1.215 16.765 9.77 23.172 13.501-1.012.936-2.053 2.281-2.464 4.13-.296 1.326-.21 2.502-.147 3.36.019.266.04.539.035.678-.014.532-.067.663-.072.674 0 0-.074.12-.374.328-.631.439-2.444 1.483-5.657 1.701-1.824.125-3.902-.393-6.177-1.534l-.1-.05c-.88-.453-8.292-4.743-14.831-8.554l-.095-.054c-.468-.259-2.97-1.534-6.253-1.258-2.359.2-4.833 1.255-7.356 3.136-.42.313-1.199.575-1.492.554l-.048-.006a1.4 1.4 0 0 1-.171-.15l-.164-.164c-1.803-1.83-4.002-3.783-6.62-4.404-3.018-.715-7.66-.26-11.228 2.373l-.238.173c-1.821 1.329-5.61 4.094-4.57 10.573.296 1.845 1.32 3.466 2.879 4.564 2.449 1.725 5.593 1.733 7.064 1.468.953-.172 2.8-.289 3.98.094 2.842.928 5.942 1.53 7.618 1.697a68 68 0 0 0 5.933.278c.928 0 3.267-.066 6.232-.15 4.174-.118 9.367-.265 11.074-.232 1.058.02 4.02.926 5.97 1.954 2.53 1.334 7.818 2.943 11.658 3.212.931.064 1.983.099 3.1.099 3.822 0 8.4-.4 11.44-1.307 5.536-1.652 14.073-4.706 18.246-6.25 1.082-.4 14.572-6.212 17.192-8.416.749-.63 3.025-2.544 2.362-5.862-.28-1.394-1.067-2.473-2.046-3.355a8.5 8.5 0 0 0 4.072-1.861c.708-.58 1.651-1.569 3.277-4.512 1.192-2.153.741-3.976.367-4.87zm-3.702 3.044c-.992 1.795-1.786 2.944-2.361 3.414-.929.762-1.917 1.105-3.304 1.149-.32.01-.704-.008-1.15-.028-.974-.046-2.309-.108-2.999.172-.713.288-1.361 1.374-1.168 2.627.16 1.032 1.758 1.935 2.44 2.32l.265.152c1.653.988 2.422 1.734 2.576 2.493.225 1.123-.471 1.708-1.087 2.226-1.821 1.532-14.045 7.012-16.06 7.76-3.846 1.422-12.56 4.544-18.013 6.173-2.61.78-6.794 1.147-10.33 1.147-1.021 0-1.987-.03-2.847-.092-3.215-.225-8.007-1.654-10.144-2.78-2.135-1.126-5.728-2.355-7.676-2.395-1.797-.034-7.043.114-11.258.232-2.817.08-5.25.149-6.124.149a64 64 0 0 1-5.554-.26c-1.232-.122-4.064-.63-6.811-1.527-2.4-.783-5.29-.323-5.845-.222-.924.167-2.876.088-4.183-.832-.729-.513-1.184-1.228-1.32-2.07C3.265 50.225 5.424 48.65 7 47.5q.129-.092.254-.186c2.959-2.183 6.578-2.087 8.08-1.73 1.906.452 3.923 2.497 4.785 3.371l.188.19c.532.528 1.31 1.149 2.604 1.253 1.454.117 3.136-.59 4.084-1.299 1.336-.996 3.357-2.22 5.395-2.393 2.267-.19 4.008.755 4.081.796l.02.01c4.798 2.8 14.119 8.21 15.04 8.669l.1.05c2.894 1.452 5.636 2.102 8.152 1.932 4.015-.272 6.472-1.605 7.58-2.377 1.841-1.283 2.03-2.68 2.066-4.002.01-.33-.017-.684-.044-1.058-.051-.693-.108-1.479.066-2.263.34-1.526 1.531-2.453 2.767-3.228l.431-.263c.968-.58 1.52-.947 1.602-1.71.035-.326-.582-.95-1.157-1.289-.232-.136-23.483-13.68-26.14-15.231-1.877-1.097-4.283-1.555-7.36-1.399-4.147.21-7.353 2.241-8.406 2.909-1.766 1.119-4.133 1.158-5.067 1.124-1.294-.048-2.378-.341-3.312-.898-.577-.344-4.312-2.765-5.13-3.58-.657-.655-.842-1.327-.644-2.325.255-1.284 1.509-1.824 2.565-1.78l95.464 3.777.035.036c.378.036 1.004.1 1.428.684.492.678.406 1.781.182 2.522-.157.52-.921 3.67-1.001 4.062l.107.062c.25.13.476.29.604.386.251.13.511.358.655.704.137.325.214.865-.187 1.59zm-45.769 10.6.051.03q-.002 0-.05-.03"/></svg>