<svg xmlns="http://www.w3.org/2000/svg" width="121" height="85" fill="none" viewBox="0 0 121 85"><g fill="#fff" clip-path="url(#clip0_3042_482)"><path d="M5.782 24.43s-.285.027-.305.155l-.002.017c.045.04.187.13.484.199.216.05 1.883.404 3.572.76q-.359-.12-.733-.27c-1.514-.612-2.736-.869-3.016-.861"/><path d="M120.754 46.177c-.654-2.267-2.376-3.651-3.779-4.194-2.125-.816-4.443-.45-6.182.948a600 600 0 0 0-3.465-2.05l-.033-.02c-.429-.246-4.314-2.432-8.919-3.248l-.02-.003-20.773-4.517c-.684-1.41-1.991-2.422-3.762-2.805-.563-.122-37.73-8.274-38.103-8.356-.27-.06-1.689-.36-2.989-.42-.158-.008-.75-.052-1.375-.097-2.635-.193-8.109-.596-14.333-.815-.385-.022-1.347-.051-2.9.067-1.26.095-2.11.058-3.255-.405-.969-.39-3.408-1.292-5.204-1.262-2.83.063-5.183 2.07-5.595 4.772-.455 2.983 1.46 5.582 4.65 6.315.435.101 4.799 1.021 6.208 1.317.848.197 1.98.494 2.348.629.937.344 2.918 1.244 5.42 2.653 2.353 1.322 8.252 5.617 11.782 8.74.037.032.035.032.067.057l.094.086a5.6 5.6 0 0 0-.339 1.472c-.14 1.637.515 3.227 1.786 4.349.406.36 5.132 4.304 8.072 6.609 3.253 2.549 9.534 5.798 15.274 7.897l.806.296c4.212 1.544 7.647 2.805 10.681 2.805 1.542 0 2.98-.326 4.363-1.106 1.46-.822 2.36-1.722 2.93-2.636l4.212 1.956c.66.31 2.993 1.32 5.317 1.32h.032c2.069-.01 4.523-.269 7.044-2.107.252-.184.389-.25.418-.263l.082-.02.021-.004c.286-.069 3.115-.81 5.068-1.322.74.636 1.788 1.31 3.065 1.51.985.153 1.961.072 2.985-.251l.017-.006c.777-.247 5.223-2.185 5.915-2.513.948-.448 3.823-1.918 4.978-2.727 1.566-1.093 4.016-3.657 5.959-6.236 2.066-2.742 1.784-5.198 1.432-6.416zm-4.354 4.25c-1.917 2.545-4.078 4.705-5.136 5.444-.82.573-3.375 1.912-4.447 2.419-.808.383-4.964 2.176-5.46 2.333a2.8 2.8 0 0 1-1.318.125c-.872-.135-1.7-1.117-1.792-1.227a2.7 2.7 0 0 0-.805-.611c-.084-.03-.35-.015-.537.031-.245.065-6.071 1.592-6.44 1.682l-.02.005c-.327.08-.875.214-1.791.882-1.756 1.28-3.45 1.395-4.901 1.403h-.018c-1.663 0-3.67-.932-3.755-.973-.058-.027-6.05-2.816-6.856-3.178-.708-.317-.861-.23-1.042-.13-.22.122-.391.477-.458.949l-.007.053c-.184 1.29-.42 2.143-2.138 3.111-.769.435-1.632.623-2.608.623-2.361 0-5.387-1.11-9.37-2.571l-.809-.297c-5.334-1.952-11.337-5.04-14.275-7.343-3-2.351-7.596-6.194-7.898-6.464-.972-.857-.513-1.802-.24-2.366l.068-.138c.243-.511.355-.745.077-1.579-.202-.605-1.03-1.47-1.505-1.875l-.013-.012c-3.793-3.355-9.892-7.77-12.412-9.188-2.687-1.511-4.835-2.489-5.951-2.897-.807-.296-2.677-.735-2.82-.768-.342-.072-5.744-1.21-6.175-1.31-1.576-.363-2-1.399-1.87-2.248.172-1.136 1.194-1.674 2.07-1.694.722-.015 2.26.396 3.742.994 1.785.723 3.253.788 4.908.662 1.478-.111 2.302-.069 2.448-.06 6.174.216 11.622.615 14.24.808.736.055 1.266.094 1.475.103 1.04.048 2.315.327 2.37.34.375.082 37.634 8.254 38.117 8.358.76.164 1.606.558 1.4 2.166a.2.2 0 0 0 0 .08.34.34 0 0 0 .133.074l23.105 5.024q.026.002.053.007c4.058.718 7.58 2.729 7.729 2.815.208.122 4.94 2.903 5.733 3.442a.4.4 0 0 0 .127-.05c.225-.208 1.164-1.076 1.581-1.477.76-.728 1.763-.929 2.752-.547.447.173 1.282.748 1.589 1.814.202.703.22 1.839-.847 3.255z"/><path d="M114.991 47.043c-.409-.157-.652.004-.818.164a150 150 0 0 1-1.658 1.548l-.058.05c-.43.334-1.394.736-2.288.125-.596-.407-4.265-2.575-5.629-3.376-.025-.015-3.344-1.903-7.04-2.577a1 1 0 0 1-.12-.018L74.168 37.91c-.708-.156-1.696-.856-1.532-2.144q.014-.104.017-.17l-38.118-8.361c-.012-.003-1.178-.256-2.062-.297-.232-.01-.746-.048-1.523-.106-2.61-.191-8.04-.59-14.185-.805l-.037-.002c-.006 0-.75-.05-2.193.06-.788.058-1.616.087-2.511.004l.085.018.018.004c.085.02 2.105.49 3.048.836 1.18.434 3.435 1.455 6.217 3.021 2.65 1.49 8.782 5.923 12.72 9.405.198.17 1.624 1.415 2.045 2.676.43 1.287.282 1.994-.16 2.923l-.071.148a7 7 0 0 0-.133.282c.616.528 4.974 4.163 7.756 6.344 2.406 1.886 7.912 4.918 13.776 7.064l.81.297c4.967 1.822 8.554 3.139 10.447 2.071 1.062-.597 1.097-.85 1.231-1.79l.008-.051c.202-1.426.945-2.037 1.37-2.273.806-.451 1.585-.435 2.685.057.818.366 6.636 3.075 6.882 3.19.479.223 1.94.8 2.975.8h.012c1.522-.008 2.637-.183 3.828-1.05 1.208-.883 2.006-1.077 2.435-1.183l.021-.004c.283-.07 4.319-1.127 6.412-1.676.158-.042.999-.24 1.7.048.511.211 1.148.69 1.518 1.139.225.274.558.534.688.588.127.015.26-.004.455-.066.354-.118 4.273-1.79 5.231-2.244 1.097-.52 3.505-1.792 4.18-2.266.809-.566 2.811-2.505 4.726-5.048.336-.446.705-1.093.561-1.648a1.1 1.1 0 0 0-.508-.652zm-10.528 6.345c-.502.237-2.066.916-3.311 1.445a7.6 7.6 0 0 0-1.617-.938c-1.697-.699-3.39-.373-4.029-.204-2.286.599-6.033 1.58-6.354 1.66l-.018.005c-.9.22-2.136.622-3.723 1.78-.305.223-.52.34-1.658.347-.28-.024-.99-.247-1.452-.458a1587 1587 0 0 0-6.928-3.212c-2.144-.957-4.155-.929-5.973.088-1.497.834-2.544 2.237-3.01 4.001a12 12 0 0 1-1.546-.335c-1.468-.402-3.312-1.078-5.446-1.86l-.813-.3c-5.448-1.993-10.65-4.84-12.778-6.509-1.771-1.388-4.155-3.344-5.796-4.706.112-.921.036-1.997-.394-3.286-.672-2.015-2.364-3.627-3.106-4.262-2.177-1.923-5.27-4.338-8.09-6.368.89.061 1.65.117 2.258.163.929.067 1.351.1 1.623.111.388.018 1.092.14 1.444.217l35.876 7.869c.812 1.476 2.271 2.48 3.764 2.808l23.213 5.048q.174.038.347.062c2.911.554 5.597 2.036 5.763 2.128a375 375 0 0 1 5.013 2.988 56 56 0 0 1-3.259 1.718"/></g><defs><clipPath id="clip0_3042_482"><path fill="#fff" d="M0 0h121v85H0z"/></clipPath></defs></svg>