<svg xmlns="http://www.w3.org/2000/svg" width="121" height="85" fill="none" viewBox="0 0 121 85"><path fill="#fff" d="M115.354 39.593c-.232-.24-.943-.926-1.452-1.225-.253-.149-1.402-.69-2.162-1.047a48 48 0 0 1-1.332-.636c-.387-.204-.673-.326-1.096-.178a.68.68 0 0 0-.399.376c-.065.459-.365 2.595-.44 3.158-.045.346-.029.592-.006.963l.019.321a1.85 1.85 0 0 1-.577 1.432c-.424.413-1.051.666-1.554.626-.499-.037-1.079-.176-1.6-.916-.646-.923-.151-1.952.213-2.704.078-.162.152-.315.213-.457.129-.303.243-1.074.333-1.692.115-.776.222-1.508.415-1.987.329-.821.973-1.529 1.455-1.978.424-.396.645-.861.621-1.31-.023-.433-.143-.688-.461-.974-.109-.096-.585-.148-.941-.104-.144.019-13.878 1.725-15.294 1.958-.869.144-1.814.394-2.464.65l-.244.095c-.391.15-.797.304-1.198.57-.504.334-.984 1.07-.745 4.02.16 1.964-1.04 5.752-3.635 7.459-2.995 1.972-7.242 1.111-9.167-.091-1.105-.69-2.53-1.755-3.908-2.783-1.318-.984-2.563-1.913-3.441-2.458-1.07-.663-2.94-1.334-4.75-1.983-1.733-.623-3.371-1.21-4.287-1.794-.485-.309-.976-.717-1.596-1.231-.6-.5-1.28-1.065-2.156-1.708-.872-.64-3.379-2.118-5.59-3.422-2.205-1.3-4.288-2.526-5.048-3.086-.477-.35-1.34-1.021-2.256-1.729-1.32-1.023-2.963-2.294-3.487-2.637-.511-.336-.95-.7-1.335-1.022-.214-.177-.418-.347-.603-.485-.292.091-.901.655-1.172.906-.154.142-.3.278-.44.397-.519.44-1.46.907-2.651 1.497-1.373.68-2.927 1.45-4.102 2.313-2.147 1.576-8.154 7.527-11.507 12.814-2.884 4.552-5.001 8.45-6.288 11.586-1.429 3.48-1.7 5.69-1.704 5.714l-.006.046c-.323 2.13-.936 2.8-1.704 3.453q-.105.088-.211.184c.01.051.047.178.186.388.24.357 1.138 1.174 1.962 1.785a13.2 13.2 0 0 0 3.149 1.73c.123-.22.261-.502.305-.678-.022-.272-.319-1.075-.518-1.613A33 33 0 0 1 10.303 61c-.763-2.29-.247-5.547.555-7.604.78-1.998 2.361-5.136 2.92-6.074.176-.296.473-.794 1.12-.958.482-.119.995.073 1.214.172l1.193.496.036-.05 6.578-9.187c.457-.641.31-1.374.171-2.081-.067-.339-.13-.659-.128-.974.018-1.703 2.6-4.427 5.144-6.238 3.23-2.3 7.465-3.255 8.164-3.348 1.068-.142 1.94.505 2.074.61.695.54 15.877 12.312 16.227 12.592.202.162.382.312.558.511.292.326.38.756.404.95l.12.728c.007.037.025.1.045.15.034.036.093.087.136.12l.028.02c.143.117.517.413.787.602l.41-.502a1.66 1.66 0 0 1 1.063-.61c.62-.086 1.158.31 1.34.466 4.298 3.374 8.414 6.008 10.422 7.029 1.22.621 3.427 1.571 5.39 2.19 2.25.708 8.811 2.926 10.01 3.334 1.467.499 2.417.774 4.882.652 2.84-.14 7.287-2.014 9.066-2.81 1.264-.568 4.379-2.332 5.154-2.862.777-.53 2.442-1.984 2.459-1.998.075-.064 6.839-5.869 7.271-6.249.285-.249.294-.343.3-.399a.1.1 0 0 0-.022-.046c-.018-.014-.004-.006-.035-.037zm-16.66 8.21c-3.207 1.436-6.237 2.413-7.72 2.487-1.868.094-2.343-.068-3.489-.457-.367-.124-1.23-.418-2.322-.785 3.615-2.439 5.488-7.386 5.21-10.795a16 16 0 0 1-.051-.978c.36-.13.96-.295 1.595-.4.715-.117 5.53-.732 10.155-1.313-.104.488-.177.992-.254 1.51-.044.293-.105.711-.151.945l-.067.139c-.445.922-1.8 3.731.092 6.428.244.346.555.72.948 1.069-1.077.641-3.068 1.754-3.948 2.15z"/><path fill="#fff" d="M119.307 35.654c-.403-.41-1.454-1.426-2.554-2.073-.434-.255-1.132-.589-2.624-1.29l-.539-.254c-.103-1.905-.874-3.518-2.299-4.804-1.921-1.723-4.396-1.622-5.406-1.49-1.506.186-14.001 1.74-15.498 1.986-1.271.21-2.588.564-3.61.967l-.184.071c-.516.197-1.38.527-2.299 1.136-3.725 2.468-3.385 7.043-3.222 9.049-.028.663-.66 2.104-1.144 2.422-.682.45-2.483.22-3.097-.162-.908-.568-2.24-1.562-3.527-2.523-1.418-1.059-2.758-2.058-3.84-2.73-1.574-.975-3.728-1.748-5.81-2.496-1.084-.388-2.72-.975-3.172-1.245-.186-.12-.63-.488-1.024-.814a48 48 0 0 0-2.418-1.913c-1.028-.756-2.977-1.915-6.064-3.735-1.705-1.004-4.04-2.381-4.57-2.772-.422-.31-1.3-.99-2.149-1.647-1.952-1.511-3.185-2.46-3.844-2.893a10 10 0 0 1-.825-.644 18 18 0 0 0-.97-.768c-1.822-1.316-4.151-1.377-6.231-.162-.843.491-1.498 1.1-1.979 1.543l-.172.16c-.303.182-1.048.551-1.603.826-1.498.743-3.363 1.668-4.93 2.817-2.574 1.89-9.091 8.291-12.916 14.324-3.06 4.825-5.325 9.014-6.737 12.45-1.552 3.786-1.978 6.405-2.065 7.056q-.022.136-.04.236l-.12.107c-1.785 1.619-2.69 4.587-.69 7.568.882 1.32 2.587 2.653 3.277 3.164 2.347 1.739 4.502 2.48 4.92 2.615.56.177 1.127.264 1.686.264 1.86 0 3.616-.944 4.576-2.562.347-.564.905-1.6 1.12-2.72.309-1.619-.215-3.037-.77-4.539-.125-.337-.243-.654-.336-.936-.218-.65-.06-2.51.46-3.842.311-.795.787-1.834 1.248-2.789.513.01 1.08-.054 1.673-.238 1.562-.483 2.515-1.583 2.996-2.306.674-.94 5.994-8.37 6.491-9.066 1.503-2.11 1.433-4.26 1.234-5.596.453-.552 1.303-1.434 2.646-2.39 1.395-.996 3.298-1.707 4.558-2.08a23187 23187 0 0 1 14.345 11.13c.081.293.202.657.38 1.03.453.964 1.173 1.66 1.73 2.09.295.238.913.725 1.415 1.042a5.43 5.43 0 0 0 4.427.624c3.768 2.797 7.173 4.928 9.113 5.915 1.467.746 3.97 1.822 6.25 2.54 2.008.632 8.039 2.665 9.89 3.294 1.877.639 3.584 1.113 6.972.944 3.474-.173 7.947-1.886 11.087-3.295 1.545-.693 4.91-2.589 6.023-3.349.973-.664 2.496-1.979 2.966-2.39.769-.661 6.85-5.88 7.286-6.263 1.295-1.13 2.027-2.492 2.176-4.045a5.6 5.6 0 0 0-1.672-4.552zm-2.04 4.198c-.059.61-.343 1.108-.923 1.615-.438.385-6.999 6.015-7.279 6.255-.065.057-1.759 1.536-2.627 2.128-.862.59-4.052 2.4-5.443 3.023-2.331 1.045-6.696 2.822-9.739 2.973-2.745.138-3.939-.191-5.578-.749-1.94-.66-7.909-2.672-9.97-3.32-2.064-.651-4.389-1.65-5.676-2.306-2.078-1.055-6.298-3.752-10.676-7.183l-.358.437a1.63 1.63 0 0 1-2.206.378c-.379-.239-.98-.721-1.098-.817-.189-.142-.512-.42-.667-.754-.134-.283-.196-.58-.209-.636l-.004-.03-.126-.768c-.005-.025-.005-.021-.006-.046l-.003-.011a4 4 0 0 0-.282-.243c-.272-.218-10.718-8.32-16.205-12.574l-.012-.01c-.084-.063-.404-.256-.666-.222-.589.077-4.445.966-7.323 3.016-3.037 2.164-4.352 4.274-4.365 4.75 0 .124.047.365.093.598.176.884.44 2.22-.478 3.512-.502.705-6.185 8.638-6.531 9.121-.125.193-.484.686-1.023.853-.561.175-1.098-.015-1.248-.077l-1.242-.516-.011.018c-.52.872-2.052 3.919-2.787 5.8-.707 1.815-1.114 4.578-.524 6.352.112.336.246.698.375 1.049.461 1.248.718 1.984.606 2.563-.117.612-.542 1.327-.657 1.511a1.56 1.56 0 0 1-1.354.762q-.27.002-.566-.091c-.078-.025-1.882-.614-3.83-2.057-.615-.456-1.91-1.51-2.401-2.243-1.04-1.55-.187-2.517.098-2.775q.135-.122.265-.232c.5-.425.829-.705 1.073-2.329.036-.286.359-2.6 1.826-6.177 1.33-3.236 3.494-7.23 6.438-11.875 3.474-5.479 9.735-11.672 11.976-13.317 1.306-.958 3.01-1.804 4.378-2.482.992-.491 1.928-.955 2.273-1.248.109-.093.24-.215.38-.344.817-.757 2.188-2.024 3.473-1.095.253.182.504.39.768.612.365.304.743.618 1.166.896.586.383 2.121 1.573 3.606 2.723.906.701 1.762 1.364 2.22 1.702.685.504 2.822 1.763 4.889 2.98 2.36 1.392 4.8 2.829 5.748 3.527.92.677 1.653 1.286 2.244 1.777.57.473 1.02.848 1.405 1.092.742.472 2.355 1.051 3.916 1.61 1.9.682 3.865 1.388 5.102 2.154.947.587 2.223 1.54 3.575 2.548 1.348 1.006 2.74 2.046 3.78 2.697 1.536.958 4.965 1.55 7.145.115 1.87-1.231 2.927-4.284 2.806-5.763-.257-3.15.197-4.805 1.568-5.714.575-.382 1.124-.592 1.567-.76l.224-.087c.775-.306 1.84-.588 2.847-.755 1.452-.24 14.796-1.898 15.363-1.967.252-.034 1.602-.173 2.429.567.684.616 1.025 1.332 1.073 2.253.045.866-.269 1.716-.892 2.432 1.085-.27 1.899.157 2.308.374.157.083.715.344 1.256.6 1.164.546 2.011.946 2.316 1.126.78.459 1.656 1.342 1.827 1.517.321.301.655.878.588 1.565z"/><path fill="#fff" d="M106.306 41.435a.5.5 0 0 0 .078.086l.053.006a.45.45 0 0 0 .183-.116l-.017-.291a21 21 0 0 1-.023-.416c-.123.258-.269.584-.274.73"/></svg>