<svg xmlns="http://www.w3.org/2000/svg" width="121" height="85" fill="none" viewBox="0 0 121 85"><path fill="#fff" d="m112.706 59.196-7.925-.153-16.68-.289-16.876-.376c-.209-.007-5-.142-6.191-.253-1.253-.118-1.646-.5-2.23-1.167q-.156-.18-.368-.407c-.675-.715-1.18-1.023-2.352-1.428-.817-.283-2.114.026-2.974.232q-.257.062-.473.109c-1.17.255-2.05-.437-2.438-.946-1.14-1.105-18.497-17.928-20.952-20.302-2.541-2.459-4.02-4.807-4.153-5.02-2.245-3.432-8.197-12.483-8.867-13.31-.286-.35-.81-.35-.924-.346L8.93 17.408a1 1 0 0 1-.142.014c-.017 0-2.058.074-2.803 1.352-.734 1.257-.443 2.246-.403 2.361l2.012 4.787a1045 1045 0 0 1 2.494 5.843c.238.575.812 2.048.986 3.304a1 1 0 0 0 .038.166c.107.022.394.079.942.196 1.058.224 1.423 1.05 1.48 1.533l1.27 8.576c.044.258 1.063 6.42 1.38 8.425.222 1.42.566 3.041.749 3.88.082.379.192.75.323 1.103.52 1.4 2.472 6.149 5.727 8.486 3.904 2.802 7.486 2.757 7.523 2.757h.023c.047 0 4.703.005 6.693-.006 1.84-.01 3.85-.68 3.87-.687.023-.008 3.127-1.09 4.072-1.469.745-.3 1.273-.147 1.585.034.62.36.742 1.018.76 1.145a1 1 0 0 1-.002.276s-.018.163-.021.573l6.084.02 17.695.03c.014 0 17.601.293 21.227.352 2.793.044 5.788-.134 6.947-.214.094-.006.35-.026.679-.053 1.445-.112 2.274-.173 2.506-.176 1.26-.014 3.648-.26 6.231-.903 3.612-.9 5.657-3.193 6.369-5.039.519-1.35.308-2.909-.524-3.879a2.96 2.96 0 0 0-1.995-.998zm-4.728 6.333c-2.437.607-4.537.786-5.386.795-.322.003-.862.04-2.755.188l-.644.049c-1.113.075-3.986.247-6.642.206l-21.211-.35h-.067l-17.689-.032-3.364-.01a5.2 5.2 0 0 0-1.636-1.509c-1.434-.835-3.131-.928-4.778-.264-.63.254-2.7.987-3.882 1.397-.41.133-1.72.49-2.72.494-1.978.01-6.625.006-6.67.006-.086 0-.051-.003-.095 0-.362-.014-2.687-.174-5.33-2.071-1.913-1.375-3.539-4.4-4.423-6.778a4 4 0 0 1-.175-.602 67 67 0 0 1-.709-3.661c-.312-1.992-1.282-7.84-1.378-8.423l-1.26-8.503c-.207-1.581-1.182-3.286-2.988-4.173a22 22 0 0 0-.705-1.944c-.386-.93-2.354-5.517-2.508-5.877l-1.437-3.416.05-.01 8.685-1.563c1.578 2.326 4.813 7.22 7.754 11.715.324.516 1.965 3.041 4.695 5.684 2.38 2.302 18.77 18.187 20.803 20.158 1.26 1.464 3.439 2.573 5.9 2.038q.247-.054.543-.127c.32-.076.882-.21 1.2-.24.39.142.432.185.624.39.098.103.186.203.28.31.906 1.034 2.087 2.156 4.632 2.396 1.26.118 5.573.243 6.425.267h.026l16.87.377h.023l16.673.29 7.042.135c-.229.462-1.169 2.01-3.773 2.66z"/><path fill="#fff" d="M118.856 56.57c-2.306-2.682-5.374-2.894-6.043-2.908l-7.937-.152-16.674-.29-16.845-.376a292 292 0 0 1-5.009-.18c-1.459-1.524-2.798-2.194-4.475-2.776-1.702-.59-3.401-.45-4.734-.204-3.78-3.662-17.887-17.336-20.083-19.461-2.001-1.936-3.213-3.826-3.297-3.96l-.068-.106c-3.066-4.686-8.34-12.708-9.208-13.778-1.646-2.025-4.078-2.536-5.804-2.34a5 5 0 0 0-.292.043L8.25 11.907c-2.319.166-5.389 1.302-6.997 4.06-1.59 2.725-1.444 5.507-.777 7.203l.04.1 2.02 4.81q.008.015.014.032a1004 1004 0 0 1 2.47 5.784c.337.813.568 1.605.613 1.936.228 1.645 1.043 3.046 2.296 3.94q.248.179.515.325l.93 6.267.011.077c.011.063 1.055 6.372 1.373 8.388.245 1.565.613 3.309.81 4.207.14.633.322 1.259.544 1.852 2.444 6.57 5.863 9.746 7.685 11.053 5.08 3.645 9.846 3.788 10.757 3.784.426 0 4.752.004 6.701-.006 2.676-.014 5.3-.877 5.592-.975l.035-.013c.11-.038.5-.173 1.013-.355a5.2 5.2 0 0 0 3.328 1.213l6.34.022 17.662.03c.85.015 17.649.294 21.184.351q.493.008.987.008c2.685 0 5.325-.158 6.415-.232.102-.006.38-.028.734-.055a134 134 0 0 1 2.187-.16c1.638-.023 4.437-.314 7.448-1.064 5.654-1.41 8.961-5.27 10.172-8.416 1.25-3.256.664-6.983-1.495-9.499zm-1.921 8.169c-.878 2.278-3.343 5.092-7.636 6.164-2.732.681-5.228.94-6.653.958-.216.001-1.681.115-2.385.17l-.697.054a96 96 0 0 1-6.164.225q-.469 0-.936-.008c-3.627-.058-21.214-.35-21.214-.35l-17.683-.031-6.343-.022a1.556 1.556 0 0 1-1.495-1.133 2 2 0 0 1-.073-.563q0-.22.004-.389c-1.135.442-3.852 1.386-3.974 1.429-.101.034-2.312.773-4.452.785-1.95.011-6.447.006-6.695.006-.328.008-4.283.013-8.616-3.098-3.578-2.569-5.654-7.388-6.38-9.34a10 10 0 0 1-.398-1.354c-.187-.86-.539-2.52-.77-3.988a1773 1773 0 0 0-1.38-8.432l-1.272-8.571a.2.2 0 0 0-.047-.012c-.542-.116-.819-.171-.916-.191-.502-.062-1.327-.472-1.5-1.722-.118-.852-.523-2.03-.862-2.85-.38-.916-2.466-5.777-2.488-5.827l-2.024-4.815s-.006-.014-.007-.02c-.03-.076-.707-1.856.53-3.974 1.164-1.998 3.759-2.23 4.26-2.258l10.36-1.866.058-.009c.163-.018 1.618-.147 2.558 1.01.853 1.052 8.156 12.204 8.986 13.473l.014.023c.014.023 1.44 2.319 3.87 4.673a93223 93223 0 0 1 21.01 20.36c.053.05.082.079.118.139.045.058.284.348.605.277l.438-.102c1.064-.253 2.673-.638 3.992-.181 1.27.441 2.095.855 3.083 1.902.165.175.296.324.412.456.418.477.435.496 1.029.552 1.131.107 6.016.245 6.066.246l16.866.377 16.678.29 7.93.152c.074 0 1.975.043 3.342 1.634 1.283 1.495 1.615 3.752.848 5.752z"/></svg>