<svg xmlns="http://www.w3.org/2000/svg" width="121" height="85" fill="none" viewBox="0 0 121 85"><path fill="#fff" d="M106.352 59.442c-.972-1.606-2.488-4.088-4.093-6.717-2.67-4.374-5.697-9.333-7.097-11.689-3.287-5.535-9.11-15.097-12.239-20.233a693 693 0 0 1-2.363-3.89c-.791-1.364-1.56-2.076-2.469-2.726-.558-.4-.94-.539-1.32-.484-.686.1-1.264.36-2.288 1.027-1.345.877-2.09 2.132-2.347 2.63-.438.845-3.926 8.563-4.706 11.061-.74 2.368-.097 5.696.922 7.42 1.004 1.697 1.952 3.301 4.858 4.686 1.146.547 2.244.879 3.406 1.232 1.873.57 3.808 1.158 6.1 2.671 3.328 2.2 5.338 5.26 6.144 9.362.348 1.773.234 3.785-.293 5.13-.437 1.115-1.369 1.995-2.097 2.373-.865.448-1.992.49-2.118.495h-.03c-2.006-.008-49.132-.208-50.56-.237-1.257-.026-3.367-.212-3.455-.22q-.011 0-.021-.002c-.331-.037-8.124-.902-8.807-.988l-.121-.016c-.778-.097-1.661-.209-2.047-.995-.323-.659-.066-1.327.27-1.726.279-.394 2.373-3.332 2.794-3.872a8.6 8.6 0 0 1 3.68-2.686c1.596-.606 3.84-.44 3.935-.431l.039.003 26.011 3.123c1.193.156 2.554-.285 2.706-.875.126-.488-.14-.753-.271-.848-.023-.013-.018-.012-.045-.031-.488-.359-11.961-8.773-13.4-9.886-1.497-1.158-2.465-1.988-3.3-3.769-.792-1.69-.478-4.187-.308-5.526l.016-.131q.03-.228.076-.52c.185-1.196.497-3.196-.525-4.872-.783-1.288-2.756-2.008-4.496-2.644-.836-.306-1.626-.595-2.259-.937-1.606-.87-4.657-3.76-7.135-6.183q-.26-.255-.412-.4c-1.035-1-4.924-5.797-5.532-6.565-.785-.993-1.652-1.844-2.44-2.402-.742-.525-2.149-.27-2.738-.018-.145.062-.352.47-.421.83l-7.24 48.44s0 .01-.002.015c-.004.017-.26 1.58-.25 2.73.01.935.723 3.066 1.063 4.09l.053.163c.096.287.296.782.525 1.354.946 2.348 1.605 4.085 1.455 5.034-.125.786-.641 1.381-.806 1.555-.497.582-4.052 4.732-4.376 5.085a.8.8 0 0 0-.155.323.5.5 0 0 0 .125.032l99.411.36h.085c3.002.103 4.306-.322 4.476-.382 1.758-.886 4.609-2.329 4.894-2.5.336-.207.343-.27.364-.478.032-.314-.157-.715-.225-.83-.066-.112-6.049-10.284-8.606-14.51zm2.184 14.664c-.349.069-1.279.205-2.954.148l-.167-.003h-.106l-91.284-.331c.409-.647.807-1.5.969-2.525.295-1.883-.318-3.694-1.69-7.1a33 33 0 0 1-.443-1.13l-.055-.164c-.193-.579-.771-2.312-.862-2.972.005-.566.115-1.48.196-1.967l.013-.081 6.606-44.216c1.288 1.592 4.173 5.124 5.245 6.16l.394.383c4.057 3.967 6.375 5.942 8 6.821.88.477 1.841.829 2.771 1.168.746.272 2.099.767 2.569 1.123.202.505.045 1.513-.052 2.133q-.057.357-.092.635l-.016.129c-.326 2.576-.473 5.29.646 7.675 1.198 2.556 2.657 3.814 4.438 5.192.562.435 2.57 1.922 4.87 3.62l-17.048-2.047a4 4 0 0 0-.197-.02c-.747-.058-3.36-.182-5.61.672a12.3 12.3 0 0 0-5.356 3.925c-.44.562-2.156 2.967-2.822 3.904-1.332 1.679-1.6 3.918-.67 5.816 1.307 2.666 4.018 3.008 5.04 3.136l.124.016c.7.088 8.029.902 8.862.994l.104.01c.238.021 2.354.206 3.719.235 1.459.03 48.614.229 50.62.239l.153-.002c.634-.018 2.274-.143 3.789-.926 1.333-.69 3.065-2.214 3.926-4.408.804-2.05.986-4.782.49-7.308-1.004-5.107-3.633-9.098-7.818-11.861-2.76-1.823-5.17-2.556-7.106-3.143-1.064-.323-1.985-.603-2.868-1.023-1.839-.876-2.318-1.687-3.185-3.156-.486-.824-.944-3.027-.557-4.27.667-2.137 3.93-9.413 4.448-10.433.177-.344.55-.853 1.017-1.158.197.217.397.49.618.87.126.218.6.996 2.409 3.969 3.124 5.13 8.94 14.679 12.216 20.196 1.411 2.377 4.446 7.346 7.123 11.73 1.603 2.625 3.117 5.104 4.084 6.703 1.742 2.878 5.087 8.54 7.046 11.86l-1.55.784z"/><path fill="#fff" d="M119.943 70.95c-.395-.67-6.084-10.342-8.625-14.54-.979-1.616-2.498-4.103-4.106-6.737-2.662-4.359-5.679-9.302-7.06-11.627-3.303-5.564-9.137-15.143-12.272-20.29-1.164-1.912-2.17-3.563-2.298-3.78-1.406-2.424-2.943-3.704-4.123-4.547-1.779-1.272-3.636-1.778-5.528-1.504-1.808.266-3.15.956-4.612 1.908-2.418 1.576-3.758 3.708-4.343 4.839-.511.99-4.166 9.039-5.091 12.001-1.295 4.149-.243 9.249 1.469 12.148 1.138 1.925 2.857 4.833 7.365 6.981 1.538.733 2.96 1.165 4.213 1.546 1.677.509 3.003.913 4.59 1.96 2.013 1.33 3.133 3.06 3.635 5.616.072.358.094.715.09 1.023-4.909-.02-12.104-.052-19.491-.084.27-.477.477-.99.616-1.526a6.59 6.59 0 0 0-2.59-7.12c-3.364-2.466-12.067-8.858-13.203-9.74-1.135-.878-1.313-1.067-1.521-1.49-.066-.4-.021-1.222.132-2.443l.018-.138q.02-.151.052-.347c.247-1.59.828-5.315-1.308-8.82-1.844-3.029-5.094-4.216-7.467-5.084-.547-.2-1.228-.449-1.477-.583-.366-.213-1.668-1.147-5.852-5.235l-.431-.42c-.69-.683-3.988-4.695-5.016-5.994-.793-1.002-2.068-2.429-3.642-3.541-2.733-1.935-6.219-1.54-8.371-.615C10.734 4.04 9.991 7.063 9.834 7.96l-.02.12-7.236 48.422c-.071.436-.336 2.166-.32 3.707.016 1.717.655 3.765 1.364 5.89l.053.159c.152.457.372 1.002.65 1.69.17.424.44 1.096.67 1.712a614 614 0 0 1-3.294 3.827C.177 75.157-.753 78.13.8 80.73c1.236 2.072 3.394 2.852 5 2.893h.102l99.483.36q.518.016.992.016c3.32 0 5.088-.542 5.879-.889a4 4 0 0 0 .231-.108c4.817-2.423 5.19-2.653 5.368-2.762 2.313-1.424 2.969-3.44 3.111-4.873.208-2.074-.62-3.743-1.022-4.416zm-2.833 4.027c-.106 1.085-.707 1.591-1.28 1.944-.391.242-4.299 2.21-5.079 2.602q-.023.011-.047.02c-.142.064-1.379.563-4.344.563q-.433 0-.919-.014h-.022l-99.506-.36h-.021c-.123-.003-1.21-.057-1.774-1.002-.502-.844-.149-1.979.439-2.618.23-.251 2.728-3.162 4.35-5.056l.05-.053c.1-.103.265-.343.293-.513.043-.57-.924-2.974-1.337-4-.242-.602-.452-1.123-.566-1.466l-.054-.161c-.557-1.667-1.152-3.543-1.164-4.69-.013-1.289.249-2.912.273-3.062l7.244-48.454.003-.024c.03-.179.34-1.76 1.57-2.289.745-.32 3.028-.906 4.613.216 1.198.847 2.206 1.98 2.84 2.781.769.972 4.469 5.514 5.358 6.373l.42.409c1.269 1.24 5.13 5.014 6.705 5.865.508.276 1.235.54 2.002.82 1.937.71 4.349 1.59 5.485 3.458 1.394 2.287.998 4.825.787 6.188q-.043.262-.068.463l-.016.134c-.134 1.062-.414 3.274.138 4.453.633 1.35 1.284 1.938 2.729 3.055 1.39 1.077 12.773 9.427 13.338 9.84a2.7 2.7 0 0 1 1.07 2.957c-.461 1.785-2.813 2.581-4.82 2.317l-25.98-3.12c-.543-.04-2.105-.058-3.081.313a6.6 6.6 0 0 0-2.84 2.066c-.297.381-1.624 2.233-2.483 3.44q.094.013.183.022l.122.017c.656.082 8.423.945 8.767.982.158.015 2.166.188 3.314.213 1.401.029 49.327.231 50.51.236.218-.008.88-.076 1.27-.277.34-.175.93-.713 1.184-1.357.327-.837.515-2.41.195-4.04-.709-3.611-2.396-6.19-5.308-8.113-2.057-1.357-3.776-1.88-5.597-2.434-1.179-.358-2.4-.728-3.676-1.338-3.44-1.64-4.637-3.665-5.694-5.452-1.258-2.13-2.015-6.078-1.105-8.995.827-2.651 4.376-10.485 4.836-11.376.408-.79 1.341-2.278 3.012-3.366 1.272-.83 2.075-1.176 3.064-1.32 1.156-.167 2.062.352 2.722.823.964.688 1.999 1.569 3.02 3.335.107.184 1.044 1.722 2.342 3.853 3.13 5.14 8.956 14.708 12.25 20.252 1.393 2.347 4.417 7.3 7.085 11.668 1.607 2.63 3.123 5.115 4.098 6.723 2.539 4.196 8.435 14.217 8.611 14.517.084.138.592 1.032.494 2.029zM6.126 68.347"/></svg>