<svg xmlns="http://www.w3.org/2000/svg" width="121" height="85" fill="none" viewBox="0 0 121 85"><g fill="#fff" clip-path="url(#clip0_3042_403)"><path d="M111.4 63.183c-2.136-1.064-4.697-.328-5.319.22-.623.548-.431 1.627-.078 2.387.819 1.759.937 3.091.358 4.07-.578.977-1.866.979-2.009.972-1.489-.043-36.377-1.053-36.934-1.084-.64-.037-1.577-.154-2.317-.755-.697-.566-1.012-1.396-1.063-1.541-.18-.495-1.649-4.535-1.813-5.087-.12-.405-.452-1.814.334-2.953.525-.76 1.928-1.94 3.855-1.548 1.461.295 5.115.772 6.218.777h.021c2.107 0 4.023-1.18 5.129-3.16 1.054-1.89 1.001-3.898-.154-5.97-.305-.546-1.045-1.693-1.695-2.706-.492-.764-.957-1.486-1.245-1.963l-.05-.08c-3.336-5.477-2.189-9.774-.639-12.415 3.705-6.308 10.18-5.818 10.643-5.773.475.034 13.628.993 16.404.873 1.626-.071 4.21-.48 7.295-2.032l.031-.017c.54-.27.642-.562.631-.944-.03-.099-.353-.298-.646-.373-6.609-1.649-16.66-4.141-17.268-4.25-.874-.152-2.277.017-2.742.094l-.02.003c-.18.027-18.144 2.661-21.051 3.043-3.268.429-5.316-1.17-6.458-2.587-.793-.982-1.37-1.921-1.718-2.791-.959-2.4.06-3.744.753-4.33 1.116-.945 2.2-1.031 2.913-.937a3.74 3.74 0 0 1 2.538 1.565q.15.216.3.444c.702 1.054 1.207 1.741 1.887 1.713 1.533-.073 2.209-1.647 2.429-2.322.496-1.524.031-2.924-1.383-4.161C67.173 8.37 64.64 7.325 62 8.317c-2.899 1.087-4.155 4.047-4.223 4.212L36.014 71.956c-.416 1.325-1.303 1.672-1.843 1.672h-.007c-.994.045-21.681.977-22.95 1.058-.95.061-4.127 1.578-5.06 2.365l100.322-.478c2.532-.065 4.876-1.175 6.434-3.05 1.314-1.582 2.048-3.23 2.124-4.77.122-2.505-1.033-4.276-3.634-5.573zm-71.514 9.752 18.182-49.65c2.495 2.835 5.929 4.117 9.728 3.619.968-.127 3.516-.49 6.52-.925-1.377 1.105-2.668 2.537-3.746 4.373-1.716 2.923-3.91 8.95.673 16.47l.044.073c.318.524.797 1.266 1.303 2.054.558.866 1.323 2.055 1.568 2.492.616 1.104.425 1.63.154 2.116-.406.726-.993 1.126-1.657 1.126h-.007c-.79-.005-4.147-.436-5.441-.698-3.465-.702-6.472 1.092-7.917 3.182-1.738 2.515-1.189 5.264-.873 6.328.168.563 1.111 3.18 1.88 5.289.23.652.879 2.134 2.297 3.286q.537.433 1.144.753l-23.852.114zm71.178-4.37c-.012.228-.095.752-.551 1.513q.307-1.283.102-2.727c.489.43.47.79.45 1.215z"/><path d="M114.067 57.87c-4.276-2.134-9.425-1.127-11.931 1.08-1.671 1.47-2.503 3.563-2.419 5.805-6.96-.202-16.704-.486-23.614-.689 2.864-.888 5.32-2.88 6.89-5.696 2.065-3.699 2.008-7.87-.155-11.745-.37-.66-.987-1.628-1.89-3.027a93 93 0 0 1-1.158-1.826l-.056-.092c-1.517-2.488-1.697-4.44-.59-6.327.744-1.266 1.725-2.095 3.002-2.534a5.9 5.9 0 0 1 1.95-.323l.025.003.073.003c2.324.172 14.078 1.017 17.114.885 3.169-.139 6.529-1.058 9.718-2.662l.03-.015c2.524-1.268 3.984-3.668 3.907-6.417-.093-3.282-2.663-5.363-5.176-5.977-11.078-2.765-17.026-4.224-17.679-4.336-1.87-.324-3.996-.033-4.688.079-.566.083-6.463.948-11.908 1.738q.04-.114.078-.231c1.227-3.767.061-7.677-3.119-10.461-3.43-3.003-8.364-3.924-12.57-2.344-5.364 2.014-7.46 7.058-7.682 7.627l-.034.094L31.188 67.82c-6.026.272-19.268.873-20.35.942-1.693.108-3.833 1.025-5.332 1.776-2.993 1.5-4.48 2.844-5.125 4.638-.664 1.84-.442 3.77.604 5.294 1.055 1.535 2.85 2.48 4.8 2.528h.145l100.59-.478h.097c4.258-.104 8.226-2 10.887-5.201 2.144-2.579 3.349-5.439 3.486-8.271.138-2.816-.579-8.014-6.92-11.178zm-79.633 9.828-.216-.009q.106 0 .216.009m82.583 1.157c-.096 1.969-.987 4.022-2.578 5.935-1.927 2.32-4.815 3.692-7.923 3.768h-.02l-100.59.479h-.029c-.18-.005-1.107-.064-1.619-.807-.228-.332-.439-.898-.144-1.715.103-.284.374-1.038 3.17-2.438.427-.215 2.62-1.286 3.803-1.362 1.275-.08 21.005-.97 22.904-1.056.031-.05.08-.142.129-.302l.016-.051L55.914 11.84l.007-.018c.063-.16 1.565-3.92 5.377-5.353 3.463-1.3 6.77.056 8.547 1.612 2.007 1.758 2.704 3.981 1.962 6.26-.723 2.22-2.303 3.6-4.225 3.69-1.857.084-2.884-1.464-3.637-2.596q-.14-.213-.28-.416c-.2-.29-.624-.654-1.162-.725-.457-.061-.915.102-1.364.484-1.233 1.044.447 3.403 1.227 4.369 1.198 1.485 2.761 2.113 4.65 1.863 2.867-.376 20.518-2.964 21.013-3.037.25-.041 2.053-.323 3.399-.09.815.14 15.714 3.857 17.409 4.28.775.184 2.113.87 2.151 2.24.034 1.227-.562 2.185-1.724 2.767l-.031.015c-2.69 1.354-5.491 2.128-8.102 2.241-2.925.128-16.09-.836-16.65-.878q-.015 0-.03-.003c-.224-.021-5.64-.479-8.74 4.803-1.858 3.164-1.65 6.659.622 10.386l.052.085a98 98 0 0 0 1.216 1.917c.7 1.087 1.426 2.212 1.76 2.814 1.492 2.672 1.545 5.402.154 7.895-1.467 2.627-4.041 4.197-6.893 4.177-1.328-.005-5.144-.52-6.607-.817-.947-.193-1.638.464-1.823.731-.212.307-.184.872-.066 1.266.112.378 1.125 3.186 1.778 4.982l.006.02c.037.104.204.462.439.653.326.266.965.3 1.175.314.552.028 24.346.72 36.862 1.081a.9.9 0 0 0 .281-.05c.083-.198.179-.78-.473-2.18-.858-1.84-.641-3.644.564-4.704 1.29-1.136 4.775-1.877 7.523-.507 3.297 1.646 4.888 4.15 4.728 7.443z"/></g><defs><clipPath id="clip0_3042_403"><path fill="#fff" d="M0 0h121v85H0z"/></clipPath></defs></svg>