<svg xmlns="http://www.w3.org/2000/svg" width="121" height="85" fill="none" viewBox="0 0 121 85"><path fill="#fff" d="m113.709 43.471-1.233-9.329c-.004-.04-.493-3.594-3.113-6.403-2.651-2.843-4.587-3.62-4.607-3.628-.019-.008-.042-.017-.06-.026l-6.948-3.241a4.1 4.1 0 0 0-1.433-.382c-1.395-.1-2.289.531-2.728 1.93-.249 1.206.146 2.107 1.173 2.68.434.24 1.029.393 1.718.44.735.05 2.266.151 3.342.214 1.637.091 2.43.932 2.674 1.251.267.281.789 1.026 1.104 2.743.407 2.22-1.068 4.163-1.131 4.244l-.031.038c-.258.3-25.838 30-26.536 30.842-.798.962-1.541 1.427-2.48 1.555l-.052.008c-.446.061-.514.058-1.346.014-.418-.022-1.05-.055-2.056-.098-3.105-.133-6.871-1.86-7.275-2.051-.68-.273-1.75-1.074-1.618-2.43.127-1.301 1.37-2.041 2.085-2.272.033-.01 3.776-1.242 5.639-1.903q.32-.113.374-.272c.086-.25-.1-.749-.278-1.039-.41-.49-3.98-4.757-6.931-8.206-3.382-3.95-2.98-7.719-2.962-7.877l.215-1.801.006-.048c.238-1.378.796-5.336.52-7.087-.262-1.663-1.034-2.228-1.14-2.296-.043-.022-.05-.03-.095-.062l-5.035-3.673-.068-.055-6.632-4.725c-.114-.08-10.97-7.897-12.879-9.236-1.012-.708-1.508-.786-1.598-.793l-.057.006c-.008 0-1.07.104-2.773.693-1.862.645-3.53 2.193-4.623 3.3-.739.749-.441 1.37-.25 1.63.127.121.573.545 1.404 1.258 1.262 1.084.926 2.442.392 3.09l-.051.057c-.034.034-.834.855-2.31 2.126-1.2 1.031-3.509 3.16-4.187 3.79-.115.106-.656.681-.795.843-.377.433-.981 1.071-3.436 3.147-2.265 1.915-5.48 3.5-7.024 4.26-1.236.61-2.002 1.156-2.511 2.297-.393.88-1.462 3.916 1.297 6.093 4.897 3.86 14.78 8.627 14.88 8.674l.016.008 6.809 3.441c.18.09 18.614 9.265 20.865 10.37 2.585 1.27 3.319 2.532 5.284 5.909 1.592 2.735 3.311 2.96 3.472 2.974a.4.4 0 0 1 .172.023c.16.03 1.924.282 4.16-1.962 1.392-1.4 3.372-2.012 5.724-1.772 1.564.16 2.799.648 3.03.745.288.099 2.643.91 3.859 1.304 1.516.49 2.499-.256 2.54-.288.011-.01.013-.01.023-.017.045-.033 1.115-.835 2.897-1.808 1.844-1.009 4.575-1.108 4.9-1.117.234-.017 2.185-.16 6.737-.461 4.87-.322 5.628-.424 10.14-1.366 4.426-.923 9.202-2.764 9.25-2.782l.07-.025c.003 0 1.173-.387 2.332-1.817 1.095-1.352.943-3.536.934-3.657l-1.75-15.993zm-53.302 26.48c-.51.51-.894.734-1.11.83-.19-.154-.513-.48-.886-1.122-2.031-3.492-3.258-5.6-6.843-7.359A13067 13067 0 0 1 30.73 51.943l-6.797-3.436-.083-.04c-.095-.047-9.62-4.642-14.193-8.246-.24-.19-.737-.582-.22-1.737l.036-.072c.04-.036.204-.165.746-.432 1.677-.827 5.165-2.547 7.775-4.753 2.407-2.036 3.231-2.844 3.833-3.538.097-.11.433-.47.559-.597.712-.659 2.917-2.69 4.048-3.664 1.574-1.354 2.453-2.252 2.549-2.35q.13-.136.251-.282a5.9 5.9 0 0 0 1.224-2.69c.287-1.645-.164-3.306-1.222-4.628.466-.35.965-.658 1.437-.821.447-.154.829-.264 1.134-.342 2.007 1.409 12.687 9.099 12.796 9.177l.019.013 6.535 4.656.132.101 4.78 3.486q.015.064.03.157c.141.903-.155 3.835-.511 5.901a4 4 0 0 0-.034.235l-.215 1.804c-.066.56-.522 5.615 3.815 10.68a861 861 0 0 1 4.31 5.082l-1.467.485c-1.942.635-4.303 2.427-4.593 5.396-.293 3.002 1.72 5.246 3.786 6.13.253.117.783.355 1.501.637a9.6 9.6 0 0 0-2.284 1.693zm51.22-9.093c-.348.423-.644.603-.735.653l-.104.038c-.045.017-4.558 1.752-8.671 2.612-4.32.901-4.951.986-9.628 1.295-4.255.281-6.206.423-6.678.457-.909.029-4.037.225-6.489 1.567a33 33 0 0 0-2.848 1.743l-.075-.025c.843-.477 1.618-1.147 2.341-2.017.683-.817 19.358-22.507 26.496-30.795a4 4 0 0 0 .155-.191c.343-.444 1.769-2.442 1.947-5.125 1.165 1.671 1.468 3.45 1.488 3.565l1.225 9.273 1.734 15.865c.016.366-.061.888-.158 1.085"/><path fill="#fff" d="M120.961 58.95q-.002-.033-.007-.07l-1.752-16.015-.012-.1-1.235-9.339c-.086-.659-.827-5.443-4.541-9.425-3.062-3.284-5.583-4.557-6.457-4.93l-6.862-3.202a9.6 9.6 0 0 0-3.378-.887c-4.014-.291-7.243 1.953-8.431 5.856q-.054.18-.095.364c-.774 3.585.71 6.903 3.873 8.662 1.16.645 2.516 1.023 4.035 1.127.371.026.945.064 1.564.104-3.445 4-16.85 19.567-22.968 26.685.192-2.156-.841-3.928-1.218-4.491a5 5 0 0 0-.297-.399c-.039-.045-3.872-4.63-7.013-8.3-1.606-1.874-1.669-3.513-1.668-3.788l.188-1.566c.256-1.506.942-6.014.513-8.744-.567-3.605-2.518-5.343-3.536-6.02l-4.747-3.462a4 4 0 0 0-.215-.163L50 16.072c-.56-.403-10.995-7.916-12.924-9.268-2.036-1.429-3.92-2.012-5.612-1.739-.605.077-1.97.306-3.82.947-2.956 1.025-5.268 3.139-6.748 4.639-2.607 2.64-2.5 6.023-1.033 8.333a255 255 0 0 0-3.79 3.445c-.357.33-1.052 1.09-1.22 1.282-.122.142-.494.573-2.826 2.544-1.747 1.478-4.55 2.86-5.898 3.524-1.826.9-3.858 2.196-5.106 4.987-2.076 4.64-.932 9.596 2.912 12.629 5.25 4.14 15.02 8.888 15.865 9.295l6.769 3.422q.01.007.026.012c.76.378 18.633 9.274 20.897 10.385 1.002.493 1.085.533 2.947 3.735 2.673 4.592 6.175 5.498 7.587 5.674.29.044.678.082 1.146.082 1.793 0 4.757-.568 7.785-3.608.34-.341 1.767-.19 2.673.168.124.057.172.072.31.12.107.036 2.651.915 3.993 1.348 3.198 1.033 6.067.041 7.625-1.164.17-.122.974-.688 2.206-1.363.361-.197 1.534-.413 2.374-.438.095 0 .155-.005.251-.012.019 0 1.906-.142 6.712-.46 5.123-.338 6.143-.476 10.908-1.47 4.546-.947 9.233-2.7 10.014-2.998.866-.3 2.909-1.213 4.809-3.557 2.427-2.998 2.199-6.87 2.13-7.614zM64.498 40.83l-.01.091zm51.462 23.439c-1.43 1.764-2.891 2.312-3.197 2.411-.443.171-5.064 1.93-9.512 2.857-4.582.955-5.457 1.074-10.395 1.401a865 865 0 0 0-6.796.465c-.025 0-2.555.06-4.075.892-1.6.874-2.596 1.607-2.67 1.662-.239.184-1.884 1.355-4.247.59a295 295 0 0 1-3.923-1.326l-.066-.026c-.041-.018-4.321-1.814-6.747.621-1.988 1.996-3.944 2.532-5.164 2.532a3.3 3.3 0 0 1-.636-.056c-1.071-.08-3.213-.971-4.908-3.883-1.997-3.434-2.49-4.193-4.504-5.184-2.254-1.106-20.693-10.284-20.879-10.376l-6.806-3.44c-.517-.248-10.187-4.92-15.215-8.885-3.017-2.379-2.926-5.833-1.835-8.271.728-1.627 1.876-2.454 3.378-3.194 1.478-.73 4.556-2.247 6.649-4.015 2.241-1.896 2.878-2.537 3.233-2.946.141-.163.734-.803.936-.99.685-.634 3.014-2.78 4.236-3.834a39 39 0 0 0 2.145-1.967c.13-.206.024-.363-.175-.536-1.055-.906-1.522-1.37-1.542-1.388l-.052-.057c-.595-.703-1.292-2.47.329-4.11 1.222-1.239 3.106-2.974 5.332-3.746 1.719-.595 2.877-.751 3.157-.782.447-.08 1.36 0 2.939 1.108 1.92 1.346 12.785 9.17 12.894 9.249l6.71 4.78q.045.031.085.066l4.92 3.59c.343.212 1.617 1.149 2 3.575.367 2.348-.446 7.222-.521 7.657l-.212 1.776c-.013.122-.301 3.165 2.534 6.476 3.128 3.653 6.947 8.222 6.986 8.266a1 1 0 0 1 .06.08c.095.143.922 1.437.51 2.661-.153.458-.54 1.078-1.504 1.418-1.882.667-5.645 1.905-5.683 1.917-.244.082-.794.378-.826.71-.034.34.487.558.491.56.023.009.035.013.057.024.037.017 3.754 1.766 6.59 1.888 1.015.042 1.653.076 2.073.097q.726.039 1.001 0l.054-.007c.304-.041.68-.148 1.308-.907.704-.848 25.21-29.302 26.536-30.842.106-.147 1.015-1.453.771-2.79-.218-1.195-.525-1.674-.61-1.787-.104-.066-.095-.07-.16-.19-.063-.079-.426-.47-1.301-.518a333 333 0 0 1-3.364-.214c-.972-.065-1.81-.291-2.49-.67-1.749-.972-2.503-2.684-2.068-4.697l.018-.073c.682-2.24 2.37-3.43 4.637-3.265a5.9 5.9 0 0 1 2.08.55l6.924 3.23c.33.135 2.461 1.078 5.259 4.078 3.037 3.255 3.57 7.248 3.59 7.416l1.234 9.333s.001.014.003.02l1.752 16.015c.012.136.264 3.022-1.331 4.992z"/></svg>