<svg xmlns="http://www.w3.org/2000/svg" width="121" height="85" fill="none" viewBox="0 0 121 85"><g clip-path="url(#clip0_3392_36847)"><path fill="#fff" d="M35.065 39.528c.079.036.194.101.351.22.657.5 3.815 3.047 6.83 5.486l4.05 3.28L47.6 49.57l.361.295.096.077.024.02.006.004.001.001h.001l.582-.715-2.911 3.584h-.001l-.007-.006-.024-.02-.095-.077-.361-.294-1.304-1.057-4.046-3.277c-1.081-.875-2.17-1.752-3.148-2.54-.948 2.563-2.008 5.431-2.495 6.743-.4 1.08-.803 2.53-1.122 3.805a70 70 0 0 0-.465 1.992l-.014.06-.017.106-.1.592a2291 2291 0 0 1-1.464 8.67c-.413 2.417-.841 4.896-1.194 6.876-.287 1.605-.566 3.132-.75 3.927l-.072.293-.002.005a5.42 5.42 0 0 1-2.583 3.337 5.9 5.9 0 0 1-2.749.732 5.75 5.75 0 0 1-4.856-2.474l-.206-.32-.009-.013c-.342-.573-.917-1.53-1.302-2.142a6 6 0 0 0-.557-.745c-.993-.8-4.433-3.57-5.625-4.52h-.001c-1.864-1.483-2.558-3.48-2.835-4.63a10.6 10.6 0 0 1-.28-2.008l-.01-.08a32 32 0 0 1-.05-.525 11 11 0 0 1-1.263-.698c-.582-.37-1.333-.914-1.8-1.237a12.2 12.2 0 0 1-3.146-3.198l-.066-.1-.024-.039-.01-.017-.005-.007-.003-.004v-.002l3.143-1.94h.001l.001.003q.001.003.004.005l.01.016.032.05q.04.06.114.165a8.5 8.5 0 0 0 2.05 2.03c.599.413 1.175.836 1.679 1.155.513.326 1.056.616 1.647.75h.001l.206.041c.207.036.41.056.548.075.22.028.336.054.41.083l.017.007a.9.9 0 0 1 .031.28c-.007.746.039 1.49.084 2.04a26 26 0 0 0 .085.864v.01l.003.071a7 7 0 0 0 .183 1.346c.19.787.604 1.856 1.543 2.602l2.944 2.362 2.733 2.202q.105.084.201.175l.187.194c.237.269.606.718.945 1.258l.7 1.136c.243.401.477.794.649 1.082l.002.002a2.06 2.06 0 0 0 1.811 1.001 2.2 2.2 0 0 0 1.022-.258c.389-.22.692-.583.827-1.081v-.002c.124-.456.407-1.972.753-3.909.35-1.966.778-4.434 1.19-6.848.413-2.415.812-4.78 1.108-6.54l.354-2.118.1-.59.025-.156.007-.039.004-.018.027-.127.106-.477c.091-.406.224-.976.387-1.628.327-1.31.77-2.922 1.243-4.197l2.53-6.838 1.254-3.397.391-1.06zM101.184 8.55c.375.052.692.293 1.044.859l.203.337.21.369c.324.594.965 1.147 1.556 1.553.609.42 1.334.797 1.961.959 1.167.3 2.698.135 3.623.03.021-.002.019 0 .02.002.017.01.059.045.111.124a1.2 1.2 0 0 1 .142.298l5.403 39.625a6.7 6.7 0 0 1-.09 1.112c-.029.168-.092.33-.185.473-.322.492-.983 1.503-1.629 2.494l-1.542 2.377c-.14.22-.341.32-.561.366-.111.023-.214.03-.288.03q-.054-.002-.076-.005h-.01.002l-.062-.006-5.887-.37h-.008L92.6 58.485a1 1 0 0 0-.111 0h-.044q-.061.004-.184 0a4 4 0 0 1-.65-.076c-.466-.091-.954-.27-1.332-.597l-.155-.15-.155-.176c-.72-.87-.685-1.637-.66-2.741v-.104c-.004-.533-.115-1.119-.447-1.608-.357-.527-.918-.859-1.618-.907h.001c-.97-.068-8.994-.578-16.802-1.072l-15.519-.972h-.003a25 25 0 0 1-1.76-.104l-.78-.086c-.688-.088-1.47-.416-2.122-.76a12 12 0 0 1-.986-.589l-.045-.03-.007-.006-.096-.077-.362-.295-1.305-1.057-4.05-3.282c-2.997-2.424-6.187-4.996-6.874-5.518-.804-.612-1.615-.826-2.324-.477a1.65 1.65 0 0 0-.754.768l-.036.08-.012.03q-.001.007-.004.013v.001l-.002.007-.007.018-.029.078-.107.29-.392 1.06-1.254 3.397-2.53 6.836c-.509 1.374-.97 3.064-1.302 4.392a76 76 0 0 0-.506 2.161l-.029.134-.008.035v.009l-.002.003c-3.425-.715-3.606-.754-3.616-.756v-.002l.001-.005.003-.011.009-.042.03-.147.116-.523c.1-.438.241-1.05.416-1.751.341-1.364.843-3.214 1.424-4.783l.001-.002 2.527-6.829 1.175-3.18a6 6 0 0 1-.272-.288l-.146-.174-.002-.003a151 151 0 0 0-2.196-2.57 531 531 0 0 0-1.576-1.812l-.017-.02q-.08-.08-.209-.202c-.213-.204-.51-.483-.842-.787a28 28 0 0 0-1.355-1.168q-.125.205-.3.526c-.48.886-2.947 5.375-5.279 9.618l-3.156 5.741-1.019 1.852-.284.516-.074.136-.01.017v.002l-.002.003-.005.007q0 .003-.003.005l-.003.009-.002.003-.006.01-.053.098-.191.349c-.16.29-.382.691-.627 1.126-.39.69-.95 1.662-1.416 2.369l-.194.285-.002.003c-.123.176-.253.351-.378.523.143.161.319.33.505.458.326.226.67.47.902.632.26.183.444.308.593.403l.068.039.085.011c.237.032.948.12 1.708.416a5.52 5.52 0 0 1 2.705 2.236c.628 1.013.827 2.058.861 2.909l.006.352a18 18 0 0 0 .115 2.073l.016.136.002.025.03.325q.006.14.004.281h.002v-.06.016l.009.051c1.048.837 2.897 2.325 4.172 3.353.167-.96.34-1.95.507-2.934.412-2.408.81-4.767 1.105-6.524l.353-2.115.099-.588.026-.155.006-.039.002-.01v-.003h.001q.015-.093.034-.186l3.617.756-.007.037-.001.003-.002.01-.006.04-.025.155-.1.59a2288 2288 0 0 1-1.461 8.65 996 996 0 0 1-1.187 6.836c-.344 1.925-.606 3.304-.71 3.715a1 1 0 0 1-.116.012.2.2 0 0 1-.15-.059l-.035-.046c-.172-.288-.408-.683-.654-1.09l-.716-1.163a12 12 0 0 0-.893-1.226l-.234-.274-.003-.003-.143-.153a5 5 0 0 0-.303-.29l-.16-.135h-.003l-2.734-2.204-2.953-2.367c-.476-.379-.75-.985-.897-1.59a5 5 0 0 1-.132-.965v-.057l-.008-.13v-.003l-.002-.01-.004-.044-.02-.174a22 22 0 0 1-.136-2.5l-.003-.173c-.017-.4-.106-.779-.31-1.109a1.83 1.83 0 0 0-.91-.74 3.6 3.6 0 0 0-.843-.194c-.262-.035-.425-.05-.589-.086h.001c-.28-.064-.61-.22-1.064-.508-.465-.295-.954-.657-1.617-1.115a6.7 6.7 0 0 1-1.597-1.582q-.042-.057-.064-.094a32 32 0 0 1-.25-.599 34 34 0 0 1-.545-1.411 2 2 0 0 1-.091-.334l2.024 1.577h.001L5.56 54.734q-.01-.053-.014-.087h.002a42 42 0 0 0 .474-.62c.297-.394.685-.916 1.038-1.418l.314-.477c.342-.543.754-1.256 1.102-1.872a111 111 0 0 0 .792-1.426l.05-.093.013-.025.002-.002h.001v-.003l.005-.01.019-.034.075-.135.283-.516 1.02-1.852 3.155-5.74a4465 4465 0 0 0 5.268-9.6c.453-.835.776-1.292.966-1.527a2 2 0 0 1 .178-.198l-.02.016-.017.01-.009.006-.005.004-.003.001v.001h-.002a1 1 0 0 0 .109-.077l.002-.002.006-.005.022-.02.09-.074.335-.28c.285-.238.682-.569 1.134-.941.267-.22.455-.228.536-.224.051.003.09.015.11.022h.002l.057.035q.093.056.305.19c.286.18.741.473 1.406.921.609.411 1.462 1.15 2.192 1.817a55 55 0 0 1 1.173 1.103l.071.07.013.014.104.12a499 499 0 0 1 1.584 1.822 148 148 0 0 1 2.28 2.669c.303.376.685.628 1.124.713.423.083.8-.009 1.076-.126h.002c.52-.223.915-.63 1.146-1.103v-.001l1.285-2.64c.3-.619.88-1.574 1.409-2.405.26-.409.5-.776.674-1.041l.208-.313.056-.084.015-.023.021-.03.086-.121.319-.447c.267-.375.637-.891 1.038-1.45a290 290 0 0 1 2.253-3.117c.2-.27.356-.38.443-.426a.3.3 0 0 1 .145-.04.2.2 0 0 1 .081.024l.015.007-.017-.013-.007-.005-.004-.003-.002-.003v-.001q.06.053.129.094h.003l.008.007.037.02.138.083.532.316 1.924 1.14c1.607.953 3.786 2.242 6.07 3.594a2543 2543 0 0 0 11.247 6.634c1.78 1.033 3.378 1.545 4.543 1.799a12 12 0 0 0 1.392.22q.252.021.396.026l.114.002h.015l.042.002q.074.007.215.015l.828.051 2.966.188 9.17.578c6.777.426 13.863.87 15.08.943l.487.018c2.387.04 4.058-.695 5-1.34l.117-.084a2.6 2.6 0 0 0 .946-1.421 2.7 2.7 0 0 0 .09-.773l-.005-.078v-.004l-.002-.025-.008-.104-.028-.384a298 298 0 0 0-.245-3.149l-.171-1.94c-.127-1.363-.596-2.996-1.011-4.243a40 40 0 0 0-.563-1.582 22 22 0 0 0-.183-.466l-.068-.171-.001-.003-.005-.012-.036-.094-.137-.352a290 290 0 0 0-1.817-4.582 9.7 9.7 0 0 1-.698-3.764l.002-.05.001-.01v-.004l.006-.066.025-.26c.021-.227.055-.562.098-.989.088-.855.221-2.08.401-3.561.125-1.025.686-1.28.92-1.314zm14.255 3.208q.061.248.095.5l5.425 39.778q.055.412.036.823c-.01.762-.079 1.4-.167 1.908l-.001.009a6.8 6.8 0 0 1-.826 2.255l-.181.293a812 812 0 0 0-3.129 4.81l-.001.001c-1.18 1.857-2.922 2.57-4.103 2.818a7 7 0 0 1-1.958.124l-.016-.002-5.832-.366v-.001l-12.341-.682c-.111 0-.241.002-.385-.003a10 10 0 0 1-1.51-.175c-1.124-.22-2.972-.794-4.476-2.41v.001c-1.262-1.354-1.844-2.76-2.108-3.972-3.217-.206-8.583-.549-13.868-.882-7.863-.497-15.217-.957-15.296-.963v-.001a30 30 0 0 1-2.629-.173l-.488-.058c-1.68-.214-3.164-.911-4.01-1.36a17 17 0 0 1-1.607-.968l-.038-.026-.016-.01-.006-.005-.004-.004 2.137-3.014.002.003h.002q.002.003.006.005l.021.014q.025.019.072.05a13 13 0 0 0 1.158.69c.717.38 1.732.83 2.75.96l.428.05c.734.08 1.388.12 1.876.139l.43.013.34.022.99.061 3.488.218 10.627.67c7.803.493 15.817 1.002 16.79 1.07l.102.017a.2.2 0 0 1 .05.02c.02.011.04.029.065.065a.9.9 0 0 1 .117.374l.012.214v.061c-.028 1.167-.117 2.667 1.31 4.2v.002c.763.82 1.754 1.158 2.483 1.301a6 6 0 0 0 1.226.112l.062-.003 12.47.69 5.873.37.048.003q.083.009.215.01c.172.002.411-.011.68-.068a2.68 2.68 0 0 0 1.648-1.044l.094-.14a796 796 0 0 1 3.156-4.85c.23-.352.388-.749.461-1.165.059-.34.111-.809.115-1.4a1 1 0 0 0-.004-.202l-5.425-39.778-.019-.1zM22.795 21.981a6 6 0 0 1 2.166.544 5 5 0 0 1 .347.18l.017.01h.001l.005.002.007.005.006.003h-.001l.012.007.043.024.118.072q.143.085.397.246c.34.214.842.54 1.546 1.014.983.663 2.104 1.654 2.831 2.318a59 59 0 0 1 1.297 1.222l.085.083.024.023.011.01h.001l.238.253-2.783 2.431-.047-.05-.007-.006-.02-.02-.077-.074c-.066-.064-.16-.157-.278-.27a57 57 0 0 0-.936-.874c-.73-.666-1.672-1.488-2.405-1.983a57 57 0 0 0-1.788-1.162l-.085-.05-.024-.014-.008-.006h-.003l-.003-.002-.01-.005-.087-.044a2.3 2.3 0 0 0-.8-.198c-.462-.027-1.016.081-1.576.461l-.24.181a272 272 0 0 0-1.48 1.23l-.09.077-.01.006-.014.011q-.058.044-.13.11a4 4 0 0 0-.354.387c-.281.347-.666.905-1.157 1.811-.47.867-2.924 5.334-5.263 9.59-1.17 2.126-2.308 4.2-3.156 5.74l-1.018 1.853-.284.514-.074.136-.02.034-.005.009v.003l-.004.005v.002l-.004.007-.012.023q-.018.03-.05.09a95 95 0 0 1-.778 1.401c-.473.838-1.004 1.749-1.318 2.196a52 52 0 0 1-1.36 1.835l-.097.127a1 1 0 0 0-.103.12 1.5 1.5 0 0 0-.242.526c-.102.419-.054.924.163 1.534.188.526.407 1.076.577 1.49.085.208.157.384.21.508l.062.146.016.039.005.01.001.002v.001l.848-.366-.848.367a1 1 0 0 0 .062.117l.786-.484-3.93 2.424a5 5 0 0 1-.166-.29l-.142-.3-.002-.003-.007-.018-.02-.046-.069-.16-.227-.548A40 40 0 0 1 .43 56.93c-.365-1.024-.602-2.299-.274-3.65a5.15 5.15 0 0 1 .869-1.858q.106-.142.216-.27l.02-.023c.082-.107.2-.26.337-.443.28-.37.626-.837.928-1.265.192-.275.634-1.02 1.125-1.89.223-.394.426-.763.575-1.032l.175-.319.046-.085.011-.02.003-.005v-.001l.016-.027v-.001l.002-.002.004-.01q.005-.012.02-.034l.073-.135.284-.516 1.018-1.852c.847-1.54 1.987-3.612 3.155-5.739a4505 4505 0 0 0 5.253-9.57c.567-1.047 1.074-1.81 1.537-2.38q.35-.432.714-.77.15-.138.308-.264l.073-.06.343-.288c.29-.242.696-.58 1.157-.96l.003-.002.262-.206c1.319-.985 2.782-1.349 4.112-1.273M7.312 57.99l.01-.006.018-.012.036-.025.074-.05q.075-.053.148-.11h-.002q-.138.108-.284.203m104.287-2.094-.013-.002-.088-.01-.042-.005q.072.007.143.017m-8.226-40.376a6 6 0 0 0 .399 1.652c.466 1.138.973 2.424 1.362 3.415.195.498.363.926.48 1.23l.138.357.028.073.069.17q.076.191.202.52c.165.431.387 1.035.618 1.73.43 1.293 1.014 3.26 1.183 5.066l.175 1.979c.054.654.104 1.285.146 1.832l.102 1.352.028.39.008.105.013.229q.01.207-.001.483a6.4 6.4 0 0 1-.209 1.374 6.3 6.3 0 0 1-2.269 3.41l-.279.202c-1.585 1.084-4.109 2.104-7.465 1.976l-.328-.017c-1.227-.073-8.322-.517-15.093-.943l-9.17-.577c-1.233-.078-2.255-.144-2.968-.188l-.826-.052-.19-.013-.096-.002q-.24-.008-.597-.038a15 15 0 0 1-1.846-.29c-1.49-.323-3.457-.963-5.612-2.214-1.708-.992-6.717-3.952-11.273-6.648l-6.07-3.595-.109-.064a600 600 0 0 0-1.717 2.397l-.316.445-.081.113-.034.052-.197.295c-.167.253-.395.604-.64.99-.535.842-1.007 1.63-1.203 2.035l-.473.973c1.218.962 3.952 3.164 6.47 5.201 1.505 1.218 2.967 2.403 4.053 3.284l1.306 1.06q.203.163.326.264l.049.031c.125.08.308.189.521.302.218.115.43.213.617.283.198.074.277.083.245.08l.66.072c.421.04.8.062 1.1.075l.387.011.014.001 4.955.305c8.743.547 26.116 1.649 27.537 1.748 1.803.126 3.41 1.03 4.42 2.519.88 1.297 1.074 2.684 1.083 3.648v.2l12.32.68.036.003 4.447.278c.636-.979 1.42-2.182 1.933-2.968l-4.957-36.348a9 9 0 0 1-1.546-.247 9 9 0 0 1-1.869-.735zM5.39 54.82l-.05.042-.026.02-.015.01-.008.005-.003.002-.002.002V54.9a1 1 0 0 0 .108-.084zm86.937-.025-.03.002h.047l-.005-.002zM48.09 49.97l.047.035-2.139 3.013a5 5 0 0 1-.237-.178zM36.355 39.783l2.248.83.011-.03-.008.024-.003.007-2.25-.831zm62.38-25.1c-.837-.06-.913-.064-.92-.064l-.001.004v.008l-.002.025-.004.085a7 7 0 0 0-.005.296c0 .25.013.602.055 1.026.083.846.288 1.998.784 3.21a252 252 0 0 1 1.94 4.899l.036.092.009.025.003.005v.003h.001l.009.021v.001l.003.007.012.03.045.114a36 36 0 0 1 .709 1.945c.408 1.225.819 2.692.925 3.834l.169 1.921a351 351 0 0 1 .273 3.513l.006.102.002.025v.01l.001.012v.04a1 1 0 0 1-.029.19.76.76 0 0 1-.251.4l-.069.053c-.647.443-1.945 1.052-3.929 1.018l-.405-.017c-1.214-.072-8.294-.516-15.074-.942l-9.17-.577-2.966-.189-.826-.05-.218-.015-.055-.003-.015-.001-.003-.001h-.001l-.07-.001h-.008l-.067-.002a6 6 0 0 1-.296-.02 10 10 0 0 1-1.167-.184c-1.002-.218-2.416-.667-4.009-1.592a2572 2572 0 0 1-11.233-6.626c-2.283-1.351-4.46-2.641-6.067-3.594l-1.925-1.14c-.23-.136-.41-.242-.531-.315l-.14-.082-.006-.004-.028-.02a2.07 2.07 0 0 0-1.025-.358c-.748-.05-1.527.306-2.197 1.21-.532.716-1.47 2.02-2.272 3.14-.402.56-.77 1.078-1.038 1.454l-.32.447-.087.123-.029.04-.001.001v.001l-.014.019.663.447-.663-.446-.002.002-.003.007-.016.023-.059.087-.213.322c-.178.272-.425.648-.691 1.068-.459.722-1.002 1.607-1.367 2.303l-.145.286c-.487 1.005-1.037 2.13-1.283 2.635a.44.44 0 0 1-.206.212q-.018-.014-.045-.046a154 154 0 0 0-2.32-2.717c-.456-.527-.889-1.024-1.207-1.39l-.381-.437-.106-.12-.027-.03-.008-.01v-.002h-.002l2.782-2.431h.002l.002.003.007.007.028.033.105.12.384.44.086.1a61 61 0 0 1 1.307-2.057l.225-.339.063-.095.018-.027.007-.01v-.001l.068-.097.001-.001.001-.002.006-.009.023-.031.088-.124.32-.45 1.043-1.46a293 293 0 0 1 2.308-3.19l.242-.31c1.243-1.512 3.046-2.528 5.17-2.385a5.65 5.65 0 0 1 2.75.922l.086.05.532.317 1.923 1.14 6.066 3.591c4.576 2.709 9.543 5.644 11.208 6.61 1.218.708 2.261 1.03 2.938 1.178.34.073.587.103.714.115l.096.007-.027-.001h-.079q.176-.001.351.008h.001l.003.001.015.001.055.004.217.014.826.05 2.967.19 9.168.576c6.786.427 13.857.871 15.063.943l.242.008q.193.004.365-.006c-.034-.426-.069-.885-.108-1.354l-.165-1.883v-.003c-.066-.699-.36-1.83-.753-3.01a34 34 0 0 0-.633-1.741l-.038-.093-.007-.02h-.001l-.041-.102v-.002q0-.002-.003-.005l-.009-.024-.035-.091-.133-.344c-.115-.296-.277-.714-.468-1.2a251 251 0 0 0-1.312-3.287 15.2 15.2 0 0 1-1.114-5.626q0-.264.007-.44l.006-.15.004-.057.002-.024v-.01l.001-.006v-.002zm.366 21.415.006.066.002.034.002.016v.008l.001.004-.012-.146zm-76.908-3.821.006-.003.041-.024q.027-.017.051-.035l.098-.065.048-.036q-.12.085-.244.163m.316-.215.05-.036.053-.045zM94.733 8.88c.546-3.273 3.337-6.355 7.212-5.819l.256.04c2.437.431 3.854 2.044 4.593 3.162l.144.225.001.002.271.45.069.121.057.041a3 3 0 0 0 .161.104l.084.047q.12.006.329.002c.368-.01.78-.05 1.252-.104l.274-.024c2.793-.19 4.463 1.644 5.089 2.584a6.8 6.8 0 0 1 .832 1.76q.028.09.048.163l.019.068.008.03.004.015.001.006.001.004c-.006.002-.161.043-4.129 1.039l-.351.087.897-.225v-.002l-.004-.01-.006-.024-.019-.064a3 3 0 0 0-.377-.799c-.288-.433-.896-1.045-1.875-.935-1.007.113-2.179.214-2.955.014-.344-.088-.869-.342-1.377-.69-.459-.317-.78-.626-.927-.835l-.052-.083-.002-.002-.237-.418-.226-.373h-.001c-.443-.714-1.098-1.454-2.144-1.678l-.215-.038c-1.383-.191-2.762.939-3.059 2.745l-.026.178a195 195 0 0 0-.405 3.597c-.045.432-.077.772-.1 1.004l-.025.264-.005.069-.002.017-.001.005v.017l-3.686-.262.006-.079v-.002l.001-.007.002-.02.007-.075.025-.277a199 199 0 0 1 .516-4.697v-.002zm16.226 4.003.35-.087.546-.137zM100.83 11.1h.001l.124-.9h-.001z"/></g><defs><clipPath id="clip0_3392_36847"><path fill="#fff" d="M0 0h121v85H0z"/></clipPath></defs></svg>