<svg xmlns="http://www.w3.org/2000/svg" width="121" height="85" fill="none" viewBox="0 0 121 85"><g fill="#fff" clip-path="url(#clip0_3042_503)"><path d="M113.698 66.6a1.8 1.8 0 0 0-.411-.262c-.085-.038-8.53-3.943-9.781-4.538-1.501-.716-2.124-1.662-2.691-3.054-.35-.858-.285-1.92-.168-2.66.07-.449.2-.892.391-1.316l.577-1.288c.194-.469.278-.972.245-1.453a4.2 4.2 0 0 0-.277-1.246c-.323-.825-1.323-1.431-1.739-1.656a2.3 2.3 0 0 0-.535-.206 4357 4357 0 0 1-17.126-4.37c-4.426-1.152-6.178-5.259-6.3-5.555l-.06-.147c-.09-.216-.737-1.907-.792-5.936-.053-3.76 2.733-5.779 4.215-6.32q.017-.007.035-.012c.06-.02 6.148-1.984 10.507-3.403 4.29-1.396 7.114-2.739 7.143-2.752.027-.013 3.851-1.91 5.874-2.93a3.734 3.734 0 0 1 4.558.806c.433.523 4.176 5.056 4.486 5.483.105.146.709.682 1.441.762.484.053.928-.105 1.355-.483.229-.204.926-.823.473-2.131a1.8 1.8 0 0 0-.375-.615l-1.478-1.623c-2.883-3.164-8.882-9.746-9.84-10.793-.795-.868-1.946-.6-2.137-.547-.344.139-2.693 1.083-4.922 1.96-2.493.977-4.249-.7-4.864-1.772-.33-.453-.714-.664-1.394-.774-.296-.048-.87.105-1.425.382-.177.087-1.285.607-1.461.684l-16.794 7.403c-.173.077-17.49 7.742-19.872 8.815-2.243 1.012-3.64 2.184-3.652 2.195-.444.378-10.918 9.294-11.64 9.87-.833.665-1.932 1.031-2.054 1.07l-.027.008-1.901.552-.07.018s-.443.096-1.011.333c-.634.264-1.385.627-2.157 1.325a8 8 0 0 0-.742.777 4 4 0 0 0-.57.903l-1.055 2.27c-.475 1.026-1.002 1.659-1.06 1.728l-.015.016c-.41.46-10.045 11.248-10.81 12.094-.68.754-1.548 2.006-2.992 4.324-1.274 2.044-2.208 4.545-2.282 4.744l-2.69 8.168 4.65-3.661c6.444-4.965 18.86-14.555 19.777-15.356.742-.648 1.668-.65 2.417-.003.452.39.716.964.726 1.57.003.223.012.758.014 1.274 1.398-.305 8.15-1.78 10.38-2.31 2.317-.55 4.428-1.69 4.449-1.703.087-.048 8.488-4.583 10.862-5.904 2.728-1.52 5.92-.573 6.056-.532.269.079 6.904 2.01 8.827 2.618 1.815.573 3.018 1.433 4.413 2.429q.317.227.657.467c1.803 1.267 3.364 3.56 3.43 3.655.027.039 3.596 5.143 5.608 8.005 1.909 2.716 4.491 4.544 4.517 4.562l.04.03c.022.018 2.24 1.753 4.37 3.242 1.92 1.343 4.707 2.269 5.017 2.368.295.07 2.415.583 3.014.722.331.078.769.167 1.154.242.38.075.769.093 1.152.053a6.2 6.2 0 0 0 1.608-.393c.694-.262 1.29-.837 1.667-1.274a4.8 4.8 0 0 0 .603-.889c1.264-2.38 2.71-5.118 2.976-5.67.296-.614.328-1.009.127-1.568-.091-.256-.318-.547-.641-.826zm-5.833 6.253a1 1 0 0 1-.118.178 2 2 0 0 1-.236.237 2.3 2.3 0 0 1-.546.126h-.028c-.212-.042-.711-.14-1.015-.211l-.02-.005c-.521-.12-2.261-.54-2.828-.677-.762-.257-2.692-.995-3.874-1.822a112 112 0 0 1-4.205-3.12 3 3 0 0 0-.197-.148c-.142-.102-2.137-1.567-3.587-3.63a5396 5396 0 0 1-5.594-7.985c-.39-.572-2.143-3.04-4.376-4.61q-.329-.23-.634-.45c-1.519-1.083-3.09-2.206-5.478-2.961-1.933-.612-8.426-2.503-8.904-2.642-.9-.269-5.064-1.318-8.973.86-2.353 1.31-10.732 5.834-10.823 5.883-.017.01-1.724.921-3.516 1.347-1.295.307-4.238.96-6.688 1.5a6 6 0 0 0-1.064-1.21c-2.187-1.89-5.234-1.883-7.399.008-.73.62-7.122 5.58-13.263 10.321.758-1.199 1.586-2.452 2.123-3.045.772-.853 10.414-11.652 10.825-12.111l.073-.084c.215-.251.966-1.184 1.622-2.604l1.053-2.266a.4.4 0 0 1 .036-.062c.121-.144.248-.28.37-.39.321-.29.644-.457 1.06-.63.168-.07.309-.112.37-.13.136-.026.16-.037.313-.08l1.9-.552q.068-.02.134-.042c.436-.14 1.962-.682 3.262-1.72.737-.589 9.827-8.325 11.712-9.929.093-.075 1.14-.904 2.767-1.64 2.37-1.067 19.675-8.728 19.844-8.802l16.785-7.4c.1-.044.363-.164.65-.299 1.958 2.017 5.06 3.132 8.36 1.835 1.343-.527 2.729-1.08 3.699-1.468l.997 1.093a8.4 8.4 0 0 0-1.362.543c-1.897.957-5.403 2.698-5.82 2.904-.272.128-2.846 1.318-6.659 2.557a4951 4951 0 0 1-10.496 3.399q-.088.029-.175.06c-2.537.93-6.812 4.079-6.73 9.985.061 4.404.768 6.593 1.087 7.361l.04.098c.913 2.316 3.784 6.516 8.887 7.846 3.882 1.01 14.186 3.625 16.632 4.245l-.303.675a9 9 0 0 0-.681 2.296c-.28 1.784-.142 3.372.407 4.718.721 1.768 1.83 3.752 4.59 5.067.904.431 5.454 2.538 8.03 3.73-.518.986-1.224 2.324-2.036 3.851z"/><path d="M117.412 62.211a7.6 7.6 0 0 0-1.732-1.108 3271 3271 0 0 1-9.269-4.297l.433-.965q.027-.059.051-.119c.54-1.297.775-2.71.681-4.083a10 10 0 0 0-.663-2.971c-.935-2.382-2.891-3.828-4.359-4.617a8 8 0 0 0-1.847-.718c-2.47-.626-13.274-3.366-17.086-4.36-1.557-.404-2.349-1.98-2.428-2.148l-.005-.01-.032-.078c-.06-.216-.36-1.405-.395-3.903-.003-.171-.007-.562.513-.84 1.18-.382 6.408-2.069 10.278-3.329 4.655-1.515 7.714-2.97 7.842-3.032l.059-.03c.031-.015 2.555-1.266 4.597-2.289a383 383 0 0 1 3.202 3.916c.921 1.243 2.876 2.77 5.414 3.049 2.087.229 4.134-.442 5.771-1.893 2.386-2.12 3.168-5.24 2.088-8.358a7.55 7.55 0 0 0-1.555-2.6l-1.48-1.626a14709 14709 0 0 0-9.851-10.803c-2.487-2.714-5.938-2.837-8.138-2.118q-.154.05-.303.11c-.02.008-1.72.693-3.642 1.455-1.17-1.272-2.692-2.065-4.542-2.364-1.891-.306-3.68.317-4.853.896-.17.082-1.063.501-1.243.581L68.12 10.967c-.713.315-17.51 7.75-19.91 8.833-2.941 1.327-4.807 2.881-5.01 3.054-4.052 3.45-10.64 9.05-11.457 9.722a3 3 0 0 1-.281.13l-1.651.48c-.358.088-1.019.272-1.8.597-.941.39-2.36 1.063-3.804 2.37q-.682.616-1.304 1.362a10 10 0 0 0-1.36 2.151c-.28.598-.763 1.642-1.063 2.287-.1.216-.203.376-.254.448-1.104 1.234-9.964 11.16-10.673 11.942-.95 1.052-1.93 2.445-3.61 5.142-1.613 2.59-2.696 5.514-2.813 5.84l-.048.137-2.737 8.31a5 5 0 0 0-.172.568c-.506 2.143.112 4.265 1.653 5.674a5.44 5.44 0 0 0 5.41 1.14 7 7 0 0 0 2.118-1.155l4.634-3.648c3.089-2.38 11.05-8.518 15.976-12.357.433.31.917.565 1.447.75a5.83 5.83 0 0 0 3.157.182c1.275-.277 8.235-1.798 10.538-2.346 2.968-.706 5.507-2.05 5.85-2.238.412-.223 8.524-4.603 10.92-5.937.363-.201 1.22-.158 1.683-.04.256.076 6.872 2.002 8.705 2.581.913.288 1.523.71 2.814 1.63l.693.492c.636.446 1.558 1.567 1.974 2.172q.02.032.043.061c.035.051 3.609 5.159 5.624 8.03 2.269 3.227 5.118 5.385 5.803 5.878a121 121 0 0 0 4.53 3.357c2.702 1.89 6.219 3.025 6.61 3.148q.153.048.308.085c.098.024 2.408.582 3.093.74.415.097.914.196 1.348.283a9.6 9.6 0 0 0 2.842.13 12 12 0 0 0 3.032-.729c1.46-.55 2.799-1.524 3.982-2.893a10.6 10.6 0 0 0 1.331-1.95c.995-1.875 2.719-5.131 3.074-5.868.963-1.995 1.086-4.026.368-6.028-.433-1.218-1.21-2.315-2.321-3.272m-1.484 7.62c-.349.723-2.391 4.572-3.007 5.736-.239.45-.524.869-.847 1.244-.522.605-1.369 1.408-2.438 1.813a8 8 0 0 1-2.083.505q-.299.03-.596.03a6 6 0 0 1-1.119-.109c-.403-.08-.863-.17-1.219-.256a511 511 0 0 1-3.125-.75c-.134-.042-3.297-1.046-5.567-2.634a119 119 0 0 1-4.434-3.289c-.29-.205-2.93-2.12-4.962-5.012-2.014-2.866-5.583-7.97-5.62-8.022-.022-.033-1.44-2.111-2.953-3.173q-.346-.243-.669-.475c-1.314-.938-2.353-1.68-3.88-2.163-1.902-.6-8.728-2.59-8.796-2.608-.035-.011-2.576-.75-4.588.371-2.385 1.327-10.797 5.87-10.881 5.916-.091.05-2.345 1.27-4.918 1.881-2.273.54-9.197 2.053-10.465 2.33a2.05 2.05 0 0 1-1.105-.06c-.726-.254-1.158-.861-1.158-1.626 0-.556-.01-1.196-.014-1.446a.2.2 0 0 0-.029-.106c-1.563 1.324-19.059 14.803-19.812 15.383L6.997 76.97c-.303.24-.632.421-.978.536a1.63 1.63 0 0 1-1.625-.34c-.497-.455-.686-1.182-.507-1.944a1 1 0 0 1 .05-.152l2.768-8.406.01-.027c.041-.114 1.031-2.822 2.46-5.117 1.53-2.452 2.427-3.741 3.2-4.596.749-.828 10.412-11.65 10.791-12.073a6.4 6.4 0 0 0 .775-1.284c.296-.64.78-1.681 1.057-2.275a6 6 0 0 1 .836-1.321 9.5 9.5 0 0 1 .928-.97c.994-.899 1.968-1.366 2.705-1.674a8.4 8.4 0 0 1 1.31-.429l1.855-.54c.251-.082.973-.369 1.437-.74.56-.447 7.83-6.629 11.595-9.834.063-.054 1.6-1.351 4.104-2.481 2.388-1.076 19.71-8.743 19.885-8.822L86.45 7.075c.15-.065 1.24-.576 1.383-.646.548-.273 1.614-.71 2.571-.556 1.21.195 2.035.687 2.676 1.596q.03.045.057.093c.148.261.987 1.567 2.527.964 2.392-.94 4.924-1.961 4.949-1.971l.061-.022c.1-.032 2.459-.775 4.15 1.067.96 1.05 6.96 7.633 9.843 10.796l1.481 1.625c.347.381.603.81.767 1.278.565 1.631.205 3.123-1.013 4.206-.829.736-1.806 1.064-2.827.954-1.323-.146-2.385-1-2.776-1.54-.207-.285-2.802-3.44-4.397-5.37-.163-.181-.978-.975-2.248-.335a1333 1333 0 0 1-5.897 2.943c-.13.062-2.969 1.414-7.388 2.851-4.225 1.376-10.072 3.263-10.488 3.398-.232.09-2.991 1.244-2.947 4.482.051 3.721.637 5.205.644 5.218q.002.008.006.014l.06.151.007.016c.013.035 1.43 3.476 5.003 4.406 3.824.996 14.64 3.74 17.112 4.366.341.085.667.213.971.376.745.4 2.078 1.278 2.613 2.642.227.576.364 1.19.406 1.822a5.2 5.2 0 0 1-.403 2.361l-.583 1.3a3.2 3.2 0 0 0-.245.825c-.11.695-.091 1.29.05 1.635.453 1.114.784 1.59 1.741 2.046 1.029.49 7.395 3.435 9.762 4.529.312.146.599.328.852.544.406.35.942.916 1.198 1.638.375 1.04.311 1.984-.206 3.055z"/></g><defs><clipPath id="clip0_3042_503"><path fill="#fff" d="M0 0h121v85H0z"/></clipPath></defs></svg>