<svg xmlns="http://www.w3.org/2000/svg" width="121" height="85" fill="none" viewBox="0 0 121 85"><path fill="#fff" d="M106.137 22.298c-1.753-1.223-4.09-.401-4.3-.324-1.025.466-29.449 13.409-32.016 14.565-2.86 1.288-4.388 2.498-6.052 4.795-1.487 2.052-1.974 4.016-2.368 5.596-.235.946-.44 1.763-.805 2.445-.928 1.727-3.25 3.658-5.724 3.841-2.884.211-4.758-1.201-4.98-1.376-.477-.365-8.989-6.863-9.586-7.33l-.022-.018c-.679-.53-2.268-1.772-2.727-4.476-.383-2.256.186-4.3 1.737-6.253 1.404-1.765 3.69-2.324 3.943-2.382.345-.087 8.07-2.02 10.296-2.533 2.29-.528 3.213-.876 4.269-1.309 4.31-1.77 6.71-5.752 7.344-6.932 1.214-2.259 1.803-5.71 1.799-6.26-.002-.374-.049-.681-.272-1.048-.164-.272-.494-.449-.675-.529-.342-.153-.578-.098-.648-.075-.038.023-.033.015-.088.036-.1.037-10.018 3.767-14.477 5.397-3.365 1.23-7.041 2.012-9.726 2.585-.817.175-1.525.324-2.11.463-2.37.562-4.463 1.03-9.952 2.17-5.936 1.233-9.002 2.16-13.667 4.137-4.669 1.976-9.095 4.832-9.462 5.102a1.4 1.4 0 0 0-.211.203c.142.134.517.337.83.444l.057.022c1.123.463 2.544 1.016 4.046 1.602 4.548 1.77 10.21 3.972 14.16 6.165 4.677 2.594 8.665 6.472 11.577 9.303.748.727 1.456 1.415 2.078 1.987 1.576 1.448 7.158 6.449 12.812 9.975 4.166 2.6 10.029 6.095 12.845 7.773l1.098.655c1.052.63 1.797 1.311 2.396 1.86.317.289.745.681.93.752.143-.036.452-.216.657-.384l.016-.013 39.186-31.012.007-.005c4.018-3.243 6.042-6.575 6.568-7.52.131-.237.431-.774.436-1.086.001-.135-.154-.444-.29-.617-2.914-3.707-7.694-9.533-8.927-10.392zm-69.783 9.11c-2.228 2.802-3.072 5.913-2.506 9.246.205 1.21.57 2.239 1.005 3.105-2.387-2.123-5.163-4.314-8.282-6.044-3.538-1.964-8.24-3.883-12.425-5.525a48 48 0 0 1 2.645-1.223c4.457-1.888 7.244-2.73 12.968-3.917 5.535-1.15 7.652-1.623 10.056-2.193.544-.13 1.231-.276 2.026-.444 2.794-.596 6.62-1.411 10.233-2.73 2.56-.936 6.905-2.557 10.175-3.782-.127.329-.265.64-.414.918-.996 1.853-2.953 4.199-5.456 5.228-.917.377-1.67.659-3.688 1.123-2.229.513-9.58 2.354-10.326 2.54-.83.191-3.913 1.06-6.013 3.7zm69.653 7.547L68.634 68.532a16 16 0 0 0-1.55-1.064l-1.1-.657c-2.806-1.672-8.646-5.153-12.782-7.733-4.063-2.535-8.116-5.897-10.51-7.99l4.9 3.742c.733.575 3.47 2.454 7.555 2.154 4.032-.296 7.367-3.222 8.763-5.816.591-1.1.872-2.231 1.143-3.324.363-1.456.704-2.83 1.76-4.288 1.286-1.775 2.263-2.541 4.55-3.573 2.521-1.135 29.024-13.202 31.851-14.49.257-.073.609-.109.781-.079 1.027.932 4.169 4.663 6.985 8.188-.85 1.265-2.442 3.303-4.973 5.35z"/><path fill="#fff" d="M119.491 29.174c-3.543-4.508-8.174-10.165-10.131-11.53-4.245-2.963-9.099-1.143-9.638-.925a4 4 0 0 0-.192.081c-.293.134-29.431 13.402-32.02 14.568-3.21 1.446-5.719 3.06-8.308 6.635-2.131 2.942-2.821 5.718-3.28 7.554-.098.395-.23.927-.31 1.147-.232.339-.86.805-1.165.86-.624.044-1.032-.173-1.135-.234a6114 6114 0 0 1-9.537-7.291l-.022-.018c-.37-.29-.54-.422-.63-.954-.082-.482-.091-.918.575-1.755.113-.122.494-.314.781-.399.057-.01.019-.004.115-.028.08-.02 7.99-2.001 10.203-2.511 2.45-.565 3.696-.994 5.144-1.587 5.88-2.417 9.074-7.438 10.175-9.486 1.786-3.323 2.484-7.72 2.475-8.985-.01-1.466-.37-2.763-1.098-3.964-.723-1.19-1.829-2.143-3.203-2.757-2.233-.997-4.129-.521-5.067-.146-.828.311-10.112 3.8-14.368 5.356-2.994 1.094-6.447 1.83-8.97 2.366-.85.181-1.585.338-2.236.491-2.316.55-4.373 1.011-9.797 2.137-6.356 1.319-9.657 2.32-14.718 4.465-5.127 2.17-10.13 5.354-10.829 5.927-2.42 1.986-2.43 4.361-2.222 5.602.362 2.152 1.976 3.878 4.441 4.758 1.153.472 2.55 1.017 4.026 1.591 4.39 1.709 9.854 3.834 13.47 5.841 4.02 2.23 7.545 5.659 10.379 8.414.778.756 1.512 1.47 2.194 2.097 1.667 1.532 7.576 6.823 13.642 10.608 4.216 2.631 10.11 6.145 12.945 7.833l1.09.65c.561.335 1.008.745 1.482 1.178.906.83 2.145 1.965 4.093 2.2q.32.037.629.037c1.883 0 3.406-.987 4.214-1.647l39.119-30.959.064-.05c4.691-3.782 7.14-7.683 7.979-9.191.524-.942 1.128-2.222 1.148-3.768.027-2.036-1.033-3.61-1.508-4.21zm-2.926 6.135c-.733 1.316-2.876 4.723-7.051 8.09l-.021.015-39.162 30.993c-.253.21-1.057.814-1.867.814a1.4 1.4 0 0 1-.18-.01c-.74-.09-1.294-.597-1.996-1.24-.563-.516-1.202-1.1-2.09-1.63l-1.096-.654c-2.822-1.682-8.694-5.183-12.878-7.793-5.792-3.614-11.481-8.71-13.089-10.187-.643-.59-1.358-1.286-2.117-2.024-2.836-2.759-6.72-6.534-11.177-9.007-3.84-2.132-9.435-4.308-13.93-6.059-1.5-.584-2.917-1.135-4.054-1.602-.476-.164-1.874-.737-2.062-1.852-.194-1.154.596-1.803.894-2.047.41-.333 5.064-3.32 9.91-5.371 4.799-2.033 7.943-2.985 14.019-4.247 5.467-1.135 7.55-1.6 9.9-2.158a104 104 0 0 1 2.152-.472c2.63-.56 6.232-1.33 9.474-2.513 4.336-1.584 13.85-5.16 14.433-5.38.265-.115 1.116-.404 2.187.073.468.21 1.108.598 1.517 1.272.478.788.544 1.494.547 2.02.007.78-.615 4.543-2.024 7.168-1.892 3.519-4.99 6.427-8.289 7.784-1.102.451-2.137.842-4.56 1.4-2.248.519-10.192 2.509-10.272 2.528l-.032.008c-.016.003-1.857.423-2.886 1.717-1.23 1.55-1.65 3.017-1.353 4.758.337 1.98 1.479 2.873 2.028 3.302l.022.017c.593.463 9.488 7.255 9.577 7.324l.029.022c.053.043 1.438 1.13 3.665.967 1.717-.126 3.52-1.58 4.206-2.855.254-.472.43-1.184.635-2.005.41-1.646.97-3.9 2.67-6.25 1.862-2.569 3.642-3.984 6.805-5.407 2.597-1.17 31.741-14.44 32.035-14.574l.038-.016c.138-.055 3.417-1.343 6.088.521 1.855 1.294 8.569 9.807 9.33 10.774.114.144.705.932.694 1.813-.009.695-.327 1.36-.669 1.976z"/></svg>