<svg xmlns="http://www.w3.org/2000/svg" width="121" height="85" fill="none" viewBox="0 0 121 85"><g fill="#fff" clip-path="url(#clip0_3042_419)"><path d="M47.14 26.141c.102-.228 1.643-3.65 1.876-4.143.093-.197.104-.357.09-.394a.4.4 0 0 0-.139-.085c-.09-.039-.188-.081-.302.062-.272.427-3.976 6.255-4.548 7.05-.725 1.003-1.61 1.832-2.959 2.775-1.507 1.052-3.503 1.316-3.81 1.352-.37.062-3.481.554-6.105.025-2.53-.509-5.167-1.61-5.509-1.756-.336-.119-2.545-.943-4.876-2.883-2.521-2.1-4.083-5.792-4.148-5.948-.026-.062-2.32-5.638-2.757-6.614-.215-.483-.385-.862-1.15-1.43-.365-.27-1.802-.337-2.863-.228q-.013 0-.025.002c-1.086.088-2.86.49-3.405 1.11-.704.802-.665 1.858-.659 1.985.03.186.347 1.98 2.136 3.442a102 102 0 0 0 7.2 5.377c2.608 1.784 7.667 4.175 8.117 4.387l8.961 3.403 8.615 3.079 7.616 2.699c-.787-4.09-1.63-8.508-1.798-9.5-.34-1.997.343-3.555.442-3.768z"/><path d="M118.529 60.411c-1.871-2.275-13.449-16.505-13.568-16.65L93.593 29.803c-.449-.572-2.713-3.33-5.876-4.974-3.701-1.92-7.203-2.399-10.407-1.426-.338.103-1.14.346-2.52 1.255-1.766-.948-3.957-.852-5.734.321l-.188.124c-.73.474-2.087 1.36-3.147 2.33l-4.404 4.04-2.816 2.52a2 2 0 0 1-.196.15c-1.219.838-2.475 1.567-3.281 1.906q-.547.229-1.133.414c-.802-4.177-1.309-6.867-1.423-7.54a1 1 0 0 1 .023-.4c.63-1.396 1.661-3.687 1.817-4.018.768-1.63.865-3.395.273-4.97-.57-1.518-1.739-2.726-3.288-3.399-3.12-1.354-6.15.103-7.53 2.244l-.019.028c-1.874 2.95-4.023 6.297-4.366 6.783-.157.219-.452.626-1.562 1.402-.183.12-.726.283-1.113.335-.135.012-.166.018-.31.044-.906.152-2.791.304-3.998.06-1.69-.34-3.741-1.132-4.385-1.407a3 3 0 0 0-.348-.136c-.195-.075-1.598-.635-3.062-1.854-1.062-.885-2.133-2.869-2.494-3.71-.29-.704-2.355-5.719-2.812-6.74-.525-1.177-1.253-2.445-3.007-3.746-2.007-1.488-4.844-1.561-6.894-1.354-1.534.128-5.172.683-7.274 3.075-2.347 2.673-2.15 5.863-2.087 6.475l.01.092c.086.709.699 4.389 4.25 7.288 2.484 2.03 4.828 3.78 7.597 5.674 3.059 2.092 8.38 4.596 8.977 4.874q.164.076.33.14l9.003 3.42q.045.018.09.032l8.636 3.087 6.59 2.336.253 1.315.02.108a6.02 6.02 0 0 0 1.711 3.352c1.258 1.243 3.015 1.874 4.95 1.785 1.581-.077 6.757-.527 7.59-.6 1.148-.078 2.904-.564 4.497-2.49.61-.737 4.89-5.889 5.391-6.494.272-.298 1.138-1.126 1.988-1.478q.427-.178.789-.334c1.286-.55 1.391-.596 3.265-.533 1.102.037 2.75.763 3.944 1.482a467 467 0 0 0-1.097 3.075l-.163.458a8.9 8.9 0 0 0-.509 3.128c.04 1.856.605 3.593 1.637 5.028 1.813 2.513 4.056 3.44 4.698 3.663.575.2 2.075.667 3.592.67a65 65 0 0 1 1.684.036l.05.015c.356 1.268 1.028 3.77 1.036 3.797q.027.102.058.202c.862 2.737 3.495 5.667 7.434 6.05.62.06 1.18.088 1.63.11l.416.022c1.652 2.482 4.839 7.531 4.868 7.579 1.034 1.644 3.411 3.474 6.813 3.474q.3 0 .612-.02c3.811-.24 6.353-3.047 7.18-5.723l.012-.036.822-2.73.015-.05c.63-2.181.442-5.853-2.169-9.031zm-1.578 7.94-.824 2.74c-.038.123-.901 2.808-3.702 2.986a6 6 0 0 1-.364.011c-1.944 0-3.116-1.015-3.514-1.649-.036-.057-3.735-5.914-5.275-8.188-.754-1.116-1.495-1.152-3.116-1.234a29 29 0 0 1-1.445-.098c-3.1-.3-4.05-3.209-4.09-3.332l-.01-.041c-.009-.031-.84-3.123-1.156-4.223-.241-.834-.548-1.113-1.158-1.666l-.032-.03c-.264-.239-.915-.51-1.7-.708a2.5 2.5 0 0 0-.524-.073c-.333-.01-1.344-.043-1.968-.043-.989 0-2.178-.406-2.312-.453-.16-.057-1.617-.598-2.815-2.26-.564-.786-.875-1.76-.897-2.82a4.9 4.9 0 0 1 .286-1.74l.16-.452c.314-.883.789-2.22 1.101-3.082.398-1.095.315-1.711.047-2.764-.092-.364-.474-.898-1-1.395a2 2 0 0 0-.318-.251c-.567-.365-3.537-2.194-6.217-2.285-2.743-.092-3.34.163-4.93.844-.23.098-.475.204-.747.316-1.952.81-3.44 2.525-3.455 2.543 0 0-4.789 5.764-5.434 6.547-.77.93-1.476 1.08-1.814 1.088-.558.05-5.93.517-7.456.59-1.714.079-2.48-.934-2.619-1.827l-.032-.195-.012-.062-.67-3.473c-.445-.173-.816-.32-.964-.378l-.037-.013-7.703-2.73-8.626-3.082-.018-.007-9.004-3.42q-.033-.011-.066-.027c-.226-.106-5.576-2.61-8.425-4.56a104 104 0 0 1-7.331-5.476c-2.485-2.03-2.828-4.624-2.841-4.733q0-.01-.002-.018c-.008-.08-.189-1.979 1.135-3.485 1.266-1.44 4.3-1.732 4.704-1.765.717-.073 3.077-.24 4.215.603 1.085.807 1.443 1.474 1.768 2.202.449 1.003 2.682 6.431 2.778 6.663.011.028 1.447 3.404 3.596 5.196 2.18 1.817 4.271 2.54 4.292 2.549l.074.027c.026.012 2.704 1.156 5.157 1.65 2.372.477 5.389-.034 5.42-.04l.068-.01c.016 0 1.749-.19 2.927-1.015 1.453-1.015 2.058-1.714 2.494-2.317.455-.633 3.402-5.251 4.497-6.977.345-.533 1.348-1.376 2.708-.784.732.318 1.05.821 1.189 1.19.29.774.03 1.535-.152 1.92-.227.482-1.848 4.082-1.864 4.118l-.015.03c-.001.004-.528 1.14-.28 2.597.181 1.076 1.178 6.283 2.02 10.654.224.085.44.165.634.235.34.122.712.212 1.074.257q.347.045.69-.024a18 18 0 0 0 3.49-1.046c1.51-.634 3.286-1.81 3.98-2.285.211-.145.411-.302.592-.465l2.834-2.536 4.417-4.05c.822-.755 2.004-1.524 2.64-1.938l.21-.137c.75-.495 1.54-.345 1.99.025l.033.027c.026.025.657.592 1.35 1.262.056.054.069.054.13.037q.073-.019.147-.081c.871-.743 2.492-2.036 3.59-2.368 2.2-.668 4.716-.279 7.484 1.155 2.564 1.332 4.448 3.72 4.62 3.943l11.395 13.99c.117.144 11.701 14.38 13.579 16.663 2.201 2.68 1.464 5.341 1.432 5.454z"/><path d="m100.428 47.472-11.403-14-.018-.023c-.016-.02-1.74-2.245-3.979-3.41-2.3-1.192-4.325-1.536-6.02-1.021-.522.158-1.685.957-2.89 1.985a2.3 2.3 0 0 1-.932.489c-.722.186-1.42 0-1.964-.525a58 58 0 0 0-1.07-1.007l-.097.062c-.588.383-1.682 1.095-2.386 1.74l-4.424 4.059-2.843 2.542a8 8 0 0 1-.789.62c-.923.634-2.713 1.797-4.328 2.477a19.7 19.7 0 0 1-3.869 1.162 4.1 4.1 0 0 1-1.31.045 7 7 0 0 1-1.036-.211l.447 2.319.012.059q.023.126.044.257c.035.2.505.19.6.184 1.537-.075 7.36-.583 7.418-.588h.018c.054-.026.205-.117.426-.385.649-.784 5.447-6.56 5.447-6.56.081-.094 1.804-2.094 4.198-3.087q.394-.164.727-.308c1.794-.767 2.716-1.103 5.762-1 3.11.106 6.302 2.012 7.206 2.594q.325.21.606.476c.576.546 1.31 1.395 1.55 2.334.307 1.208.493 2.264-.105 3.915-.31.856-.783 2.187-1.095 3.069l-.16.45c-.121.345-.18.699-.173 1.048.01.46.108 1.132.528 1.714.84 1.167 1.872 1.557 1.882 1.561.267.093 1.105.341 1.665.341.585 0 1.437.025 2.027.043.318.01.635.053.94.131.792.2 1.878.563 2.532 1.156l.032.03c.683.619 1.328 1.204 1.723 2.573a396 396 0 0 1 1.157 4.23c.06.169.673 1.794 2.414 1.963.483.047.927.069 1.354.09 1.788.09 3.332.166 4.633 2.088 1.523 2.247 5.11 7.924 5.302 8.23.052.072.639.836 2.115.742 1.447-.092 1.941-1.552 1.962-1.614l.813-2.7c.034-.136.43-1.85-1.063-3.668-1.88-2.286-13.469-16.526-13.586-16.67m.018 9.686-.426-.021a284 284 0 0 0-.946-3.44c-.702-2.439-1.996-3.612-2.853-4.388l-.03-.03c-1.018-.924-2.394-1.595-4.195-2.046a8.3 8.3 0 0 0-1.774-.25 89 89 0 0 0-2.044-.045q-.053-.01-.126-.027c.31-.873.747-2.108 1.038-2.907.485-1.335.642-2.482.63-3.494l7.686 9.436c.237.292 3.149 3.87 6.242 7.667-1.198-.355-2.331-.41-3.202-.455"/></g><defs><clipPath id="clip0_3042_419"><path fill="#fff" d="M0 0h121v85H0z"/></clipPath></defs></svg>