<svg xmlns="http://www.w3.org/2000/svg" width="121" height="85" fill="none" viewBox="0 0 121 85"><g fill="#fff" clip-path="url(#clip0_3042_595)"><path d="m43.892 31.206-.008.003zm74.906 18.97c-.289-.29-.884-.886-3.305-2.11a46 46 0 0 0-3.505-1.784c-.561-.26-1.121-.473-1.663-.681-.708-.272-1.377-.53-2.048-.877-6.247-3.246-15.579-8.2-23.076-12.181-11.729-6.228-12.762-6.764-13.31-6.978-1.076-.422-4.687-2.084-5.744-2.625l-.594-.305c-1.892-.99-7.374-3.873-10.51-5.523l-2.714-1.426c-1.736-.91-3.636-.91-5.21 0-1.407.813-2.347 2.249-2.586 3.913-3.518.368-6.42 1.042-8.81 2.04-4.886 2.041-7.7 4.65-8.383 5.33-.827.76-7.897 7.266-11.93 11.03-4.28 3.993-6.977 7.931-7.09 8.097l-.026.04c-.246.366-6.006 9.03-7.113 10.727C-.006 58.68-.31 60.946.324 63.24c.681 2.464 2.34 4.543 4.434 5.558 1.223.595 2.933 1.204 4.81 1.204a8 8 0 0 0 1.807-.2c4.912-1.123 6.815-4.5 7.544-7.134.826-2.984 2.674-10.493 2.985-11.978.015-.073.039-.141.061-.196.75-.815 2.726-2.974 3.882-4.326.423-.032 1.128-.088 1.916-.152l-.001.55c0 4.276 3.048 6.975 6.094 7.467a79 79 0 0 0 3.685.575q.489.064.963.064c2.551 0 4.773-1.361 5.94-3.7 1.123-2.252 1.359-4.568 1.359-6.116 0-1.098.106-8.094.212-9.873.018-.31.054-.544.09-.713l5.343-1.99c-.157 7.775-.54 26.899-.54 29.278 0 2.03.768 3.849 2.164 5.118 2.044 1.858 4.578 1.864 5.492 1.795 1.743-.097 9.707-.553 11.798-.867 4.459-.672 6.077-3.44 7.726-6.987.949-2.04 1.5-3.04 2.446-3.402 1.702-.648 2.034-.47 3.427.282.318.172.677.366 1.069.556 3.457 1.672 5.967 2.51 8.96 2.986 2.2.35 15.987.837 19.493.937 2.965.085 5.541-1.474 6.885-4.169 1.241-2.49.641-5.411-1.565-7.626zm-66-18.401.007-.003-.009.003zm64.316 24.399c-.716 1.435-1.968 2.202-3.532 2.156-5.606-.16-17.379-.631-19.028-.892-2.61-.416-4.84-1.164-7.95-2.67-.32-.154-.628-.321-.926-.482-1.709-.923-3.186-1.718-6.438-.48-2.428.925-3.454 3.133-4.447 5.268-1.787 3.84-2.808 4.598-4.976 4.926-2.01.303-10.937.802-11.504.834-.26.022-1.748.102-2.806-.86-.444-.404-.972-1.15-.972-2.42 0-2.895.581-31.226.606-32.43v-.044c.022-.37-.094-.841-.215-.865-.46-.098-1.51-.186-2.122-.148-.457.028-1.043.21-1.23.278l-7.682 2.86c-.096.045-1.335.662-1.508 3.56-.112 1.878-.218 8.94-.218 10.088 0 .945-.127 2.785-.974 4.486-.607 1.217-1.798 1.834-3.183 1.654a74 74 0 0 1-3.549-.556c-1.073-.162-3.07-1.174-3.07-3.875 0-2.152.108-4 .113-4.078l.012-.1c.014-.1-.012-.252-.042-.282-.015-.016-.141-.069-.45-.035-1.633.179-5.684.485-5.857.499l-.089.006-.048-.006c-.103-.002-.925.012-1.651.886-1.17 1.41-3.987 4.466-4.342 4.852a4.6 4.6 0 0 0-.69 1.642c-.264 1.268-2.087 8.709-2.927 11.744-1.02 3.683-3.905 4.341-4.852 4.559-.327.074-.66.106-.989.106-1.29 0-2.53-.493-3.237-.838-1.153-.56-2.118-1.807-2.518-3.255-.351-1.27-.21-2.481.397-3.411a3350 3350 0 0 1 7.096-10.7c.109-.16 2.583-3.773 6.568-7.493a2923 2923 0 0 1 11.97-11.065c.278-.284 2.716-2.697 7.265-4.597 2.656-1.11 6.135-1.762 10.638-1.997l.172-.01.06.022.008-.084c.096-2.103.11-2.572.11-2.576.008-.187.084-1.085.827-1.515.34-.197.914-.344 1.712.073l2.709 1.425c3.438 1.809 8.93 4.698 10.67 5.604l.468.24c1.17.601 4.875 2.304 6.074 2.774.41.161 4.063 2.096 12.935 6.806 7.504 3.985 16.843 8.945 23.104 12.197.852.443 1.65.75 2.419 1.045.51.196.991.381 1.445.59 1.899.876 3.095 1.564 3.298 1.68.617.31 2.028 1.044 2.462 1.48 1.081 1.085 1.412 2.363.884 3.42z"/><path d="m112.928 52.887-.056-.03c-.012-.007-1.208-.712-3.16-1.61-.401-.186-.857-.36-1.336-.546-.78-.298-1.662-.639-2.605-1.129-6.269-3.256-15.612-8.217-23.12-12.204-6.312-3.352-12.275-6.518-12.755-6.722-.94-.37-3.278-1.428-4.91-2.202v.038l-1.32-.679c-.784-.402-7.275-3.816-11.154-5.856l-2.594-1.364c-.01.28-.038.951-.105 2.426-.037.837-.411 1.281-.718 1.507-.5.37-1.061.35-1.349.305-4.181.226-7.52.85-9.925 1.855-4.361 1.822-6.652 4.176-6.675 4.199l-.043.04a2952 2952 0 0 0-11.98 11.076c-3.83 3.574-6.276 7.143-6.3 7.178-.054.082-5.987 9.003-7.083 10.68-.311.477-.372 1.18-.164 1.927.257.93.883 1.774 1.56 2.102.542.263 1.919.847 3.03.594 1.372-.315 2.861-.947 3.505-3.27.834-3.012 2.639-10.378 2.9-11.63.293-1.416.977-2.317 1.054-2.416l.049-.056c.031-.033 3.119-3.38 4.311-4.815 1.061-1.278 2.414-1.569 3.109-1.542.519-.04 4.239-.324 5.735-.488 1.057-.116 1.655.262 1.97.6.603.643.55 1.512.517 1.772a76 76 0 0 0-.108 3.936c0 1.732 1.284 2.035 1.54 2.078l.027.004c.017.003 1.659.307 3.47.543.23.03.932.123 1.324-.661.681-1.367.784-2.888.784-3.673 0-.944.103-8.212.221-10.197.248-4.177 2.443-5.072 2.693-5.16l7.683-2.862c.098-.037.941-.337 1.745-.386.794-.048 2.011.058 2.606.184 1.423.302 1.71 1.858 1.656 2.75-.019.913-.606 29.528-.606 32.373 0 .488.121.835.371 1.066.425.391 1.185.42 1.442.399l.034-.003c.093-.005 9.402-.525 11.35-.818 1.533-.23 2.087-.645 3.6-3.894 1.038-2.232 2.333-5.013 5.449-6.2 4.027-1.534 6.108-.412 7.942.577.295.16.573.31.856.447 2.974 1.44 4.993 2.12 7.445 2.511 1.401.223 12.541.694 18.795.871.843.023 1.457-.352 1.855-1.15.245-.49-.41-1.185-.545-1.319-.195-.18-1.201-.744-2.017-1.153zM10.17 60.228c-.127.459-.16.535-.65.656l-.094-.02.971-1.467q-.123.46-.225.833zM36.948 34.44c-.07 1.162-.132 3.939-.174 6.349a5.5 5.5 0 0 0-1.33-2.43c-.648-.692-2.013-1.77-4.227-1.77q-.375 0-.784.045l-.192.02a2105 2105 0 0 1 3.316-3.054l.081-.065.118-.129c.162-.158 1.505-1.422 3.935-2.663-.381 1.012-.655 2.23-.741 3.695zm58.446 17.6c-1.79-.287-3.42-.74-6.419-2.191a21 21 0 0 1-.715-.375c-2.012-1.085-5.376-2.899-10.954-.774-4.495 1.712-6.273 5.534-7.45 8.064-.48 1.036-.774 1.57-.945 1.847-1.234.167-5.492.45-8.899.652.103-6.639.463-24.443.556-28.97.738.386 1.247.652 1.442.752l6.609 3.39v-.364c1.348.681 6.925 3.643 12.332 6.513 7.278 3.865 16.281 8.645 22.55 11.908-3.965-.171-7.34-.35-8.106-.455z"/></g><defs><clipPath id="clip0_3042_595"><path fill="#fff" d="M0 0h121v85H0z"/></clipPath></defs></svg>