<svg xmlns="http://www.w3.org/2000/svg" width="121" height="85" fill="none" viewBox="0 0 121 85"><path fill="#fff" d="M97.694 5.393c-1.509-.5-4.526-1.008-10.329-.574l-.23.016c-.857.057-1.618.215-2.084.432-1.174.547-1.716 1.337-1.964 1.904-.601 1.377-.423 2.422-.422 2.432.16.88 3.913 21.458 4.03 23.16.147 2.115-1.736 3.53-3.121 3.857-1.2.283-2.36.038-3.455-.728-.623-.437-1.143-1.323-1.602-2.104-.166-.284-.339-.578-.44-.707-.064-.08-.214-.27-.56-.01l-.053.037c-6.12 3.982-17.201 7.425-21.775 8.384-4.642.972-9.971 1.476-13.41 1.624-3.707.157-9.987-.596-10.881-.766-2.553-.48-4.107-2.317-4.153-4.911-.073-3.955 3.377-5.208 5.66-6.038l.2-.073c2.077-.756 5.934-1.399 8.007-1.743l.138-.023c1.93-.322 4.331-2.206 4.427-3.473.094-1.25-3.165-4.207-6.755-5.633-3.9-1.548-8.016-1.51-9.273-1.363-.923.107-1.285.325-1.767 1.063-.346.53-1 1.906-1.828 3.65-.597 1.253-1.337 2.813-2.176 4.505-1.038 2.093-2.285 3.824-3.489 5.498a76 76 0 0 0-1.392 1.978c-.77 1.145-1.64 2.442-1.988 3.617-1.138 3.851.617 6.814 2.29 8.62 1.813 1.96 4.84 2.327 5.028 2.348.408.027 8.777.576 12.059.6h.067c3.18 0 6.8-1.631 8.83-3.156 1.22-.918 5.565-3.932 10.188-4.183 2.1-.114 4.714.434 7.482 1.016 3.107.652 6.319 1.327 9.007 1.112 2.981-.236 7.1-1.284 12.24-3.116l.324-.115.201-.071c.968-.34 2.295-.807 3.571-.463a4.4 4.4 0 0 1 2.501 1.853c.773 1.223.777 2.708.012 3.97-.704 1.156-1.821 1.628-1.995 1.697-.203.082-5.02 2.052-5.989 2.488-1.041.469-1.712 1.335-1.892 2.441-.064.401-.033 1.058 0 1.818.08 1.736.189 4.113-.513 7.027-.671 2.788-2.597 7.73-3.906 10.42-.977 2.01-1.27 3.275-1.224 3.748.094.98.844 2.246 2.265 2.706 2.37.765 3.399-1.283 3.516-1.54.522-1.28 21.972-53.976 23.531-58.127 1.599-4.257.398-8.735-1.397-11.093-1.581-2.078-3.179-3.242-5.511-4.015zM36.409 47.869c-3.068-.022-10.833-.525-11.794-.588-.58-.078-2.211-.466-3.045-1.367-1.636-1.768-2.17-3.66-1.59-5.628.213-.719 1.007-1.9 1.588-2.767.409-.61.858-1.234 1.334-1.895 1.218-1.692 2.6-3.611 3.75-5.933a295 295 0 0 0 2.198-4.552c.533-1.122 1.126-2.369 1.453-2.984.984-.052 4.239-.1 7.477 1.186 1.697.673 3.26 1.771 4.172 2.601-.404.27-.872.502-1.212.56l-.137.022c-3.005.5-6.393 1.1-8.559 1.89l-.196.07c-1.271.462-3.01 1.095-4.512 2.273-2.137 1.678-3.239 4.009-3.189 6.74.05 2.643 1.154 4.905 3.113 6.369 1.024.765 2.224 1.281 3.562 1.533.781.148 6.958.947 11.186.83-1.664.903-3.824 1.65-5.6 1.64zm35.306-5.2c-1.804.143-4.087-.235-6.416-.703 3.853-1.305 8.117-2.999 11.63-4.93.392.514.853 1.005 1.415 1.4 1.396.976 2.925 1.45 4.497 1.398-5.888 2.078-9.296 2.688-11.127 2.834m11.192 23.226c.21-.678.388-1.311.524-1.871.806-3.346.68-6.086.596-7.9-.02-.42-.045-.994-.032-1.206l.006-.026a.4.4 0 0 1 .092-.053c.495-.223 2.279-.963 3.982-1.663-1.85 4.558-3.636 8.952-5.168 12.72zm18.797-46.488c-.621 1.654-4.458 11.153-8.857 22.008A7.47 7.47 0 0 0 89.1 39a6.7 6.7 0 0 0-1.76-.23 8 8 0 0 0-1.11.082 7.7 7.7 0 0 0 1.62-1.248c1.377-1.393 2.063-3.19 1.934-5.057-.117-1.7-2.852-16.81-4.05-23.374a2.1 2.1 0 0 1 .189-.757c.045-.103.196-.222.415-.327.126-.045.496-.124.997-.157l.26-.019c5.78-.431 8.305.154 9.125.426 1.732.574 2.822 1.375 4.021 2.95 1.079 1.42 2.226 4.752.962 8.118z"/><path fill="#fff" d="M106.901 6.585C104.758 3.77 102.37 2.04 99.156.973 96.376.05 92.294-.218 87.021.176q-.12.01-.192.014c-1.472.099-2.729.387-3.736.856-2.489 1.16-3.69 2.955-4.26 4.259-1.091 2.5-.851 4.522-.734 5.15 1.328 7.277 2.75 15.246 3.48 19.565-.828-.961-1.943-1.564-3.165-1.705-1.657-.19-2.953.522-3.542.93-5.554 3.585-16.005 6.824-20.132 7.69-4.367.915-9.403 1.39-12.658 1.53-3.342.141-9.137-.569-9.822-.69a1.2 1.2 0 0 1-.334-.107 1.4 1.4 0 0 1-.035-.315c-.005-.309.02-.33.224-.49.527-.414 1.509-.77 2.375-1.085l.204-.073c1.674-.61 5.393-1.229 7.18-1.526l.14-.024c1.678-.28 3.517-1.135 5.046-2.348 1.978-1.567 3.102-3.423 3.25-5.367.169-2.236-1.066-4.487-3.67-6.693-1.745-1.478-3.936-2.797-6.006-3.62-5.774-2.292-11.287-1.686-11.518-1.659-2.3.268-3.88 1.236-5.12 3.14-.495.76-1.042 1.897-2.134 4.196-.62 1.303-1.32 2.78-2.142 4.436-.869 1.75-2 3.323-3.096 4.845-.492.683-1 1.39-1.48 2.104-.907 1.352-2.036 3.034-2.587 4.894-1.373 4.645-.187 9.3 3.337 13.107 3.013 3.254 7.5 3.769 8.002 3.816l.112.01c.36.023 8.864.585 12.348.61h.097c4.27 0 8.905-2.046 11.621-4.087 1.971-1.482 5.017-3.116 7.65-3.258 1.492-.082 3.926.429 6.278.923 3.268.685 6.97 1.462 10.326 1.197 1.807-.143 3.935-.532 6.366-1.164-1.239 1.167-2.062 2.708-2.345 4.468-.14.876-.1 1.755-.054 2.774.071 1.537.159 3.45-.388 5.721-.585 2.426-2.365 7.003-3.565 9.473-1.898 3.902-1.728 5.657-1.672 6.235.243 2.528 2.028 5.576 5.461 6.687.869.28 1.69.405 2.461.405 3.326 0 5.686-2.314 6.644-4.3l.05-.089.083-.208c.897-2.204 21.992-54.025 23.585-58.264 2.234-5.947.579-12.097-2.051-15.555zm-.848 14.462c-1.579 4.2-23.335 57.645-23.554 58.184l-.026.057c-.47 1.03-1.791 2.603-3.897 2.603a4.8 4.8 0 0 1-1.497-.25c-2.098-.677-3.184-2.513-3.331-4.031-.123-1.272.807-3.413 1.374-4.577 1.274-2.62 3.144-7.414 3.792-10.105.65-2.7.547-4.949.472-6.591-.04-.882-.072-1.578.017-2.138.26-1.613 1.275-2.93 2.785-3.61 1.009-.454 5.84-2.429 6.045-2.511l.018-.007s.783-.317 1.232-1.056c.46-.76.462-1.61.004-2.335-.135-.213-.648-.93-1.595-1.185-.813-.22-1.878.155-2.655.428l-.209.073-.31.11c-5.269 1.878-9.52 2.955-12.637 3.202-2.911.23-6.234-.467-9.446-1.14-2.667-.56-5.185-1.09-7.082-.986-4.186.228-8.209 3.024-9.34 3.876-2.23 1.676-6.225 3.465-9.763 3.465h-.075c-3.392-.024-11.808-.58-12.164-.604h-.022c-.152-.016-3.754-.386-6.025-2.84-2.751-2.97-3.688-6.563-2.638-10.114.416-1.404 1.357-2.805 2.188-4.043.452-.672.923-1.327 1.422-2.021 1.168-1.623 2.377-3.303 3.358-5.28a284 284 0 0 0 2.165-4.482c.92-1.936 1.527-3.215 1.93-3.832.73-1.12 1.511-1.595 2.885-1.756.049-.005 4.963-.546 10.02 1.461 3.283 1.304 7.923 4.614 7.729 7.193-.163 2.145-3.28 4.48-5.718 4.887l-.138.023c-2.023.336-5.79.963-7.731 1.67l-.202.075c-2.658.966-4.688 1.913-4.64 4.549.045 2.38 1.597 3.17 2.893 3.414.62.118 6.786.9 10.527.74 3.379-.145 8.61-.64 13.16-1.594 4.469-.937 15.275-4.288 21.227-8.152.163-.12.749-.503 1.46-.421.334.037.816.194 1.232.72.166.212.35.523.56.882.322.548.808 1.376 1.154 1.619.727.508 1.45.669 2.21.489.717-.17 2.02-1.001 1.934-2.239-.093-1.342-2.924-17.046-4.009-22.984-.01-.05-.28-1.489.527-3.338.355-.812 1.116-1.936 2.73-2.689.822-.384 1.886-.523 2.635-.574l.217-.015c6.057-.453 9.288.103 10.93.648 2.622.869 4.492 2.23 6.256 4.548 2.113 2.776 3.432 7.743 1.615 12.58zm-19.042 24.18q.037-.017.095-.038l-.042.016-.055.022z"/></svg>