<svg xmlns="http://www.w3.org/2000/svg" width="278" height="278" fill="none" viewBox="0 0 278 278"><path fill="#fff" fill-rule="evenodd" d="M155.037 16C87.283 16 32.532 71.145 32.532 139.121c0 2.515 0 4.804.228 7.092H16.79c-.912 0-1.368.448-1.829 1.144-.223.675-14.365 25.621-14.828 26.316-.224.675-.224.916.463.916h37.178C53.066 225.164 99.832 262 155.26 262 223.021 262 278 206.855 278 138.879 277.772 71.145 222.793 16 155.037 16M67.431 174.591h32.629l-15.743 27.461c-6.844-8.01-12.775-17.163-16.886-27.461m87.608 59.255c-25.774 0-49.048-10.298-65.934-26.991h26.472s76.184-134.79 76.647-135.483c.454-.451.228-.902-.463-.902h-31.019c-.68 0-.68.227-.917.45-.224.452-43.107 75.293-43.107 75.293H60.827c-.238-2.288-.238-4.806-.238-7.094 0-52.404 42.204-94.967 94.45-94.967 26.695 0 50.649 11.201 67.982 29.057-7.528 12.586-40.835 69.571-45.397 77.805-2.51-5.945-14.601-4.801-20.984-5.028-2.742 4.577-15.289 28.605-15.289 28.605h13.232c6.159 0 6.843 6.396 4.339 10.524-2.519 4.108-12.322 21.74-12.322 21.74h32.166s39.469-69.12 61.821-108.25c5.927 12.362 9.125 26.093 9.125 40.516 0 52.164-42.432 94.725-94.673 94.725" clip-rule="evenodd"/></svg>