<svg xmlns="http://www.w3.org/2000/svg" width="69" height="24" fill="none" viewBox="0 0 69 24"><path fill="#ff2d00" d="M57.062 21.314a9.2 9.2 0 0 1-5.64-1.932A11.98 11.98 0 0 0 53.959 12c0-2.782-.95-5.345-2.537-7.382a9.2 9.2 0 0 1 5.64-1.932c5.11 0 9.266 4.178 9.266 9.314s-4.157 9.314-9.266 9.314M36.38 19.382A11.98 11.98 0 0 0 38.917 12c0-2.782-.95-5.345-2.537-7.382a9.2 9.2 0 0 1 5.64-1.932c2.122 0 4.077.722 5.641 1.932A11.98 11.98 0 0 0 45.125 12c0 2.783.95 5.345 2.536 7.382a9.2 9.2 0 0 1-5.64 1.932 9.2 9.2 0 0 1-5.64-1.932m-15.041 0A11.98 11.98 0 0 0 23.875 12c0-2.782-.95-5.345-2.536-7.382a9.2 9.2 0 0 1 5.64-1.932c2.121 0 4.077.722 5.64 1.932A11.98 11.98 0 0 0 30.084 12c0 2.783.95 5.345 2.537 7.382a9.2 9.2 0 0 1-5.64 1.932 9.2 9.2 0 0 1-5.641-1.932M2.672 12c0-5.136 4.157-9.314 9.266-9.314 2.12 0 4.077.722 5.64 1.932A11.98 11.98 0 0 0 15.042 12c0 2.783.95 5.345 2.536 7.382a9.2 9.2 0 0 1-5.64 1.932c-5.11 0-9.266-4.178-9.266-9.314m16.787 5.43A9.3 9.3 0 0 1 17.713 12c0-2.025.649-3.9 1.745-5.43A9.3 9.3 0 0 1 21.204 12c0 2.026-.648 3.9-1.744 5.43m15.041 0A9.3 9.3 0 0 1 32.755 12c0-2.025.648-3.9 1.745-5.43A9.3 9.3 0 0 1 36.245 12c0 2.026-.648 3.9-1.745 5.43m15.042 0A9.3 9.3 0 0 1 47.797 12c0-2.025.648-3.9 1.745-5.43A9.3 9.3 0 0 1 51.287 12c0 2.026-.649 3.9-1.745 5.43M57.061 0c-2.848 0-5.466 1.01-7.52 2.69A11.84 11.84 0 0 0 42.02 0a11.84 11.84 0 0 0-7.521 2.69A11.84 11.84 0 0 0 26.98 0a11.84 11.84 0 0 0-7.521 2.69A11.84 11.84 0 0 0 11.938 0C5.355 0 0 5.383 0 12s5.355 12 11.938 12a11.84 11.84 0 0 0 7.52-2.69A11.84 11.84 0 0 0 26.98 24a11.84 11.84 0 0 0 7.521-2.69A11.84 11.84 0 0 0 42.02 24a11.84 11.84 0 0 0 7.521-2.69A11.84 11.84 0 0 0 57.063 24C63.645 24 69 18.617 69 12S63.645 0 57.062 0"/></svg>