<svg xmlns="http://www.w3.org/2000/svg" xml:space="preserve" id="Layer_1" x="0" y="0" viewBox="0 0 111.5 42"><g id="CADILLAC_2DCREST"><g id="CADILLAC_2DCREST_POS_RGB" transform="translate(0 15.957)"><path id="Shape" d="M24.4 3.1h-9.6l-.7-4.4h41.1v4.4H54V-.3H24zM13.9-2.3h41.3v-3.2H13.4zM39.7 8.5h15.5V6.2H39.7zm-26.8-15h9.8l-1.8-3.2H54v3.2h1.1v-4.3H9.9zM72-10.9H56.4v6.5H72zm-55 25c.3.4.7.8 2.3 1.3.8.2 1.6.4 2.8.6h16.6v-2.3H16.8c.1.1.1.2.2.4m-.9-3.5h22.5V4.1H15zm23.6 9c5.8 1.1 11.4 2.2 15.5 2.8V11.6H39.7zM73 3.1h23.7l1.1-6.5H73zm0-11.9v2.3h25.5l1.6-2.3zm38.5-7.2L104-5.4c-.8 4.5-3 16.1-3.2 17.2-.7 3.2-1 5.2-7.4 6.7-8.5 2-27.9 5.9-37.6 7.4-9.7-1.5-29.1-5.4-37.6-7.4-6.4-1.5-6.7-3.5-7.4-6.7-.3-1.1-2.5-12.7-3.3-17.2L0-16zm-5.9 2H5.9l5.9 8.5c1.5 8.8 2.4 14.4 2.8 16.4.7 3.4.8 4.9 4.3 5.9 7 1.7 27.4 5.9 36.8 7.3 9.4-1.4 29.8-5.6 36.8-7.3 3.5-1 3.7-2.4 4.3-5.9.4-2 1.3-7.6 2.8-16.4zM56.4 8.5h1.1V5.2H87c0 .3-.3 2.5-.5 3.3h9.3l.7-4.4H56.4zm0 4.2H95l.6-3.2H56.4zM72-1.3H56.4V1H72zm-15.6 15h38.4c-.1.1-.1.3-.2.4-.3.4-.7.9-2.3 1.2-6.9 1.7-26 5.5-35.9 7.1zm1.1 7.4c1.8-.3 6.1-1.1 7.6-1.4 15.7-3 18.4-3.5 19.7-5H57.5z" style="fill:#aaaaad"/></g></g></svg>