<svg xmlns="http://www.w3.org/2000/svg" width="278" height="278" fill="none" viewBox="0 0 278 278"><g clip-path="url(#clip0_452_414)"><path stroke="#e8002d" stroke-width="7" d="M236.788 51.188s-33.269-21.196-98.279-21.196c-65.002 0-98.274 21.196-98.274 21.196l1.02 47.803c0 18.73 3.586 119.064 97.254 173.515 93.67-54.442 97.25-154.78 97.25-173.515z"/><path fill="#e8002d" d="M240.887 30.71 138.509 13.309 36.14 30.709l.256 17.179S87.84 25.558 138.51 25.564c50.673 0 102.116 22.324 102.116 22.324z"/><path fill="#e8002d" d="M36.14 25.592v-6.14L138.517 0l102.37 19.453v6.143L138.509 6.656zm100.063 12.33s-.109 1.108-.372 1.756c-.238.593-.889 1.003-.844 1.399.042.401.469.867 1.112 1.203.643.33.902.587 1.553.755.606.144 1.373.597 1.599.084.22-.509-.114-1.148-.487-1.753-.641-1.048-.961-1.3-1.91-2.754-.201-.309-.364-.65-.651-.69m-4.797 113.795c.061-.182 1.585.769 2.368 1.236 1.655.988 2.406 1.575 3.872 2.684a49 49 0 0 1 2.883 2.34c1.431 1.23 2.201 2.28 2.587 2.031.549-.669-.915-2.619-2.212-3.682-1.263-1.031-2.566-1.88-3.58-2.554-1.294-.848-1.407-1.054-3.349-2.355-2.081-1.394-3.881-3.142-3.881-3.142l-2.03-1.599-3.175-2.681-3.521-3.253-2.669-2.965s-2.072-2.536-2.401-3.016c-.328-.489-1.302-2.055-2.114-3.384-.723-1.189-2.116-3.04-2.249-3.198-.75-.914-2.473-.546-4.467-1.725-2.434-1.431-3.016-2.737-3.016-2.737s-.095-.195-.181-.298a1.6 1.6 0 0 0-.278-.235l-1.265-.896-.73-.48s-.559-.456-1.256-.755c-.692-.303-2.247-1.207-2.247-1.207l-2.779-1.771s-1.088-.877-1.451-1.165c-.362-.285-1.049-.676-1.049-.676s-.436-.224-.569-.228c-.132-.009-.705-.066-.705-.066s-.533-.135-1.08.504-.419.299.47 3.902c.347 1.431.314 6.447.692 7.967.487 1.966 1.855 4.502 1.995 4.801.142.294.237 1.394.237 1.394s-.056.886.04 1.445c.42 2.587 4.21.885 5.044 4.437.827 3.507-.491 7.007-.491 7.007s-.82 1.734-1.965 2.015c-1.151.27-2.931-2.271-4.221-4.335-1.27-2.024-2.315-4.679-2.648-5.524-.335-.839-.508-1.025-.892-1.645-.57-.904-1.033-.746-1.667-2.176-.637-1.441-.073-2.019-.364-3.273-.16-.694-.314-.769-.529-1.762-.214-.993-.496-4.135-.496-4.135l-.401-2.937s-.145-1.338-.324-2.172c-.646-2.932-.86-5.767-.86-5.767l-.119-1.161-.049-1.202s-.037-.583.106-1.175c.144-.596.436-1.09.436-1.09s.587-.993.688-1.235c.1-.238 1.312-1.642 1.312-1.642s.625-.517 1.66-1.16c1.031-.634 1.966-.583 1.966-.583s.268-.033 2.1.196c1.838.233 5.61 1.23 6.554 1.482.941.248 2.057.643 2.792 1.044 2.096 1.143 2.732.657 1.061-.643-1.121-.88-1.435-1.272-2.34-2.101-.763-.696-1.364-1.166-1.932-1.813-.564-.654-2.196-3.053-2.196-3.053l-1.011-1.501s-.551-.606-.637-.653a5 5 0 0 1-.362-.261s-.668.038-1.365-.103c-.697-.13-1.026.844-1.026.844s-1.508 2.815-3.041 4.54c-2.478 2.797-4.26 4.703-5.174 6.186-1.28 2.064-1.003 4.326-1.663 5.37-.384.615-.592.704-.801 1.24-.643 1.621 1.694 2.512 1.16 4.312-.85 2.853-7.537 5.677-8.425 5.202-.916-.485-.166-4.339.145-5.593.315-1.255 1.25-3.095 1.336-3.193.086-.094.31-.527.382-.895.072-.373.096-1.203.143-1.674.044-.462.231-1.198.231-1.198s.033-.149.62-1.44c.592-1.287 2.769-4.284 4.335-7.146 1.016-1.869 1.45-3.002 2.475-4.862.951-1.725 2.569-4.34 2.569-4.34s.688-1.338 1.011-1.836c.327-.51 1.01-1.478 1.647-2.425.646-.945.807-1.659 1.653-2.438.702-.648 1.173-.993 2.086-1.291 1.36-.447 2.291-.2 3.671.182 1.445.396 2.433 1.054 3.372 1.837a13.3 13.3 0 0 1 1.639 1.655l.455.672.279.168.878.559 2.001 1.328s4.745 3.226 5.004 3.398c.256.168 1.102.867 1.277.928.172.047 1.439-1.32 3.916-3.035 2.87-1.985 3.89-1.832 4.829-2.35.942-.516 1.333-.95 2.068-1.686 1.112-1.12 1.117-1.707 2.382-3.263 1.271-1.557 2.463-2.424 2.463-2.424s.172-.172 2.438-2.727c2.267-2.56 3.265-4.494 3.265-4.494l1.247-2.485s1.8-3.864 2.377-5.394c.577-1.533.577-2.05.577-2.05s.086-.397-.357-1.175c-.445-.779-.907-.424-1.761-.247-1.656.35-2.655-.08-4.32-.368-1.529-.26-2.325-.708-3.853-.97-1.548-.26-2.454-.507-4.005-.359q-.48.057-.946.196c-.869.294-1.115.36-1.766.732-.753.36-1.249.475-2.087.493-.576.01-.93.028-1.464-.18-.368-.141-.573-.249-.87-.51a2.3 2.3 0 0 1-.405-.466c-.015-.168-.068-.16.091-.42.151-.27.352-.318.352-.318l.714-.177s1.002-.266 1.086-.284c.091-.024 1.046-.336 1.466-.467.427-.135.888-.378.888-.378s.263-.405.159-.648c-.119-.266-.687-.284-.687-.284s-.802.284-.893.303l-1.352.428s-1.002.22-1.776.402c-.776.177-1.89.265-1.89.265l-.334-.088s-.387-.256-.443-.512a12 12 0 0 1-.135-.685c-.161-.984-.357-1.584-.133-2.555.095-.405.191-.624.368-1.006a6 6 0 0 1 .433-.798l.62-.997 1.156-1.71c.33-.357.721-.654 1.153-.877.741-.414 1.17-.535 2.087-.639.909-.093 1.027-.084 2.312-.372 1.289-.289 2.2-.802 2.2-.802s3.074-1.128 4.951-2.05c1.96-.96 2.824-1.996 4.862-2.793q1.096-.438 2.245-.714a.4.4 0 0 0 .2-.27c.091-.325-.414-.48-.755-.442-.301.027-1.003.349-1.163.004-.126-.275.643-.433.643-.433s.359-.168.363-.373c.013-.303-.52-.107-.755-.13-1.189-.13-1.284-.35-2.11-.556-.979-.242-1.508-.54-2.511-.578-.896-.042-1.734.154-2.285.289-.559.135-.578-.41-.36-.512 1.566-.732 1.599-.798 2.702-.844.606-.023 1.451.112 1.543.154.091.047 1.298-.013 1.613-.326.31-.308-.998-.294-1.613-.536-.565-.228-1.434-.289-1.413-.666.023-.378.447-.173.744-.243.373-.088.597-.084.979-.14.692-.094.755-.15 1.78-.243 1.022-.088 2.488.336 2.488.336s1.531.685 2.286 1.039c.754.36 1.666.536 1.666.536s1.062.159 1.885-.36c.827-.512.362-.839.065-1.304-.281-.444-.639-1.067-.109-2.27.468-1.048.705-2.26.845-2.373.156-.135.816.798 1.23 1.189 1.498 1.398 3.493 2.097 5.36 5.034.146.238.854-.14 3.027.192 2.176.336 4.065 2.666 4.553 3.22.49.555 1.132.536 1.132.536l1.045.135 3.795.064s1.724-.303 2.716.07c.695.256 3.008 1.804 1.953 2.396-.739.41-1.434-.494-2.097-.54-.79-.051-1.138.093-1.839.27-1.472.373-4.631 1.33-3.486 1.716.094.028.243.06.243.06l.577.094s1.387.317 2.218.648c1.273.503 1.861 1.057 3.045 1.743.657.387.957.774 1.683.988.672.195 1.096-.004 1.781.117.9.158 1.408.335 2.228.731 1.215.592 1.67 1.3 2.769 2.089.541.396.999.462 1.408.993.094.12.178.177.216.321.149.49-.801.201-1.304.122-.556-.093-.798-.368-1.306-.606-.755-.349-1.12-.75-1.949-.904-.606-.111-.96-.018-1.575.01-.592.027-.917.12-1.51.13-1.022.014-1.603-.08-2.601-.285-1.118-.234-1.668-.676-2.797-.904-1.248-.261-3.487-1.338-3.264-.266.108.522 1.296.956 1.296.956s.798.443 1.576.778c.78.336 1.199.843 1.199.843l.536.402s.55.755 1.263 1.599c.711.849 1.95.825 1.95.825s.756 0 2.383.33c1.618.336 3.286 1.334 3.286 1.334s1.268.861 1.995 1.734c.732.862.312 1.305.224 1.398-.088.088-.064.042-.152.088-.089.042-1.003-1.086-1.003-1.086l-.644-.559s-.645-.443-1.469-.714c-.822-.265-1.086-.084-1.086-.084s-1.753.486-3.263.444c-1.514-.042-2.315-.643-2.315-.643l-.956-.643s-1.44-1.351-1.486-.714c-.033.434.634.915.634.915s.47.47.774.764c.576.569.81.858 1.476 1.454.666.6 1.087.6 1.087.6s.36.085.493.108c.13.023.373.094.373.094s.225.084 1.268.508c1.044.424 2.157 1.333 2.157 1.333s.106.093.262.112c.157.022.47.172.558.2.09.023.356.023.956.107.598.093.378.47.378.47l-.112.154-.488.331s-.644.182-1.092.2c-.444.023-1.063-.218-1.063-.218l-1.355-.512s-1.355-.354-1.642-.401a44 44 0 0 1-1.709-.331 7 7 0 0 1-.98-.354c-.158-.094-.466-.159-1.194-.513-.736-.36-1.029-.778-1.939-1.068-.909-.289-1.464-.35-2.154.135-1.174.81 1.78.942 3.259 1.674 2.167 1.067 3.392 1.86 3.915 3.016.518 1.16 1.045 1.585 1.045 1.585s1.522.768 2.217 1.575c.373.433.434.797.801 1.236.843.98 2.467.932 2.795 1.767.308.778-1.316.428-2.163.349-1.53-.15-1.895-1.543-3.319-2.112-.802-.318-1.32-.322-2.144-.597-1.492-.493-2.193-1.143-3.693-1.608-.903-.276-2.553-1.478-2.357-.555.05.228.176.396.246.531.064.135.444.62.444.62s.512.671.736.843c.22.182 1.194.914 2.574 1.669 1.379.754 2.573 2.2 2.573 2.2s.41.587.607 1.002c.203.456.065.597.371 1.24.315.642.468.764.869 1.155 1.006.979 2.061.783 3.356 1.315.345.135.371.195.753.597.374.4-.069.578-.069.578s-1.43.36-2.354.285c-1.204-.099-1.732-.462-2.909-1.04-1.174-.578-1.8-1.622-1.912-1.693-.11-.065-.396-.377-.618-.536-.224-.15-.79-.276-1.308-.42-.512-.14-.821-.163-1.335-.307-.707-.2-1.444-.513-1.774-.62-.336-.112-1.104-.252-1.656.08-1.118.657 1.722 1.108 2.612 2.046.451.485.633.82 1.063 1.314.326.383.46.654.867.957.279.205.78.42.78.42s.683.317 1.683.866c1.006.555 2.181 2.112 2.181 2.112l.709 1.087.427.624.108.289.153.354s.512.666.89.885c.378.224.312.424.312.424s-.046.135-.312.29c-.266.159-.403.022-.778-.09-.384-.106-.619-.465-.953-.731-.336-.27-.701-.937-1.313-1.315-.537-.321-1.242-.438-1.512-.53-.268-.089-.932-.509-1.199-.62-.266-.112-.956-.425-.956-.425s-1.342-.755-2.069-.955c-.737-.2-.272.252-.272.252s.666 1.025 1.297 1.44c.82.546 1.972 1.025 1.6 1.464-.251.294-.597.186-.975.14-.615-.065-1.36-.806-1.36-.806s-.308-.201-1.685-.643c-1.38-.449-.873.312-.56.708.314.401.74.624.74.624l.924.42.43.135s.372.066 1.621.355c1.24.288 1.931.885 1.931.885s.667.63 1.596 1.315a5.2 5.2 0 0 0 2.377.936c.512.06.491.42.491.42s.069.33.046.442a.26.26 0 0 1-.242.2c-.118 0-.16.043-.294.112-.13.066-.666.154-.666.154s-1.398-.046-2.485-.307c-1.09-.27-2.04-1.022-2.135-1.072-.084-.042-1.11-.597-1.796-.821-.694-.223-1.778-.13-1.888-.088-.111.046-.49.111-1.137.289-.642.177.16.42.16.42l.466.05 1.109.084s1.132.136 2.112.495c.973.349 1.598 1.063 2.24 1.707a7.8 7.8 0 0 0 1.358 1.066l.507.33.271.202.065.177s-.02.093-.065.2c-.046.117-.2.2-.2.2s-.247-.041-.36-.041-.834-.387-1.37-.624c-.57-.252-.854-.475-1.45-.62-.518-.126-1.199-.177-1.347-.135-.157.042-1.292.2-2.162.266-.883.081-1.773.066-2.652-.046-1.471-.177-3.414-1.333-3.66-1.007-.508.666 1.048.867 1.791 1.296 1.03.591 2.815 1.137 2.815 1.137s1.298.29 2.06.643c1.671.774 2.178 1.916 3.517 3.128.746.681 1.334.97 2.33 1.114.854.121.843.023 2.199-.242 1.35-.271 2.181-1.557 2.573-1.092.08.099.049.177.022.313-.022.13-.132.377-.132.377s-.154.224-.398.466c-.242.243-1.178.756-1.663.956-.49.201-1.692.532-3.199.486-1.514-.042-3.624-1.198-3.624-1.198l-1.53-.643s-.707-.336-1.175-.513c-1.267-.47-2.069-.429-3.379-.778-.816-.214-1.334-.443-2.067-.597-.736-.149-.325.135-.245.248.35.462.801.61 1.38.885.77.373 1.31.299 2.112.621.876.363 1.642.872 2.125 1.179.491.312.848.657 1.316 1.156l1.622 1.375s.377.312.419.443c.046.135.224.466.134 1.002-.088.536-.526.159-.526.159l-.43-.266-.417-.402-.69-.558s-.58-.532-1.576-1.045c-.999-.507-2.201-.643-2.201-.643s-1.068-.158-1.026.178c.048.335.294.359 1.134.577.843.224 1.401.643 1.401.643s.868.648 1.482 1.356c.63.714.802 1.399.802 1.399s.313.578 1.114 1.356c.797.779 1.225.513 1.174.886-.042.377-.402.447-.402.447s-.196-.023-.284-.023c-.084 0-.294-.111-.514-.195-.218-.093-1.061-.672-1.061-.672s-1.315-1.062-1.473-1.179c-.149-.107-1.396-1.04-1.396-1.04s-.728-.466-1.263-.736a14 14 0 0 0-1.645-.667c-.403-.13-1.128-.177-1.128-.177s-.896-.13-1.422-.33c-.854-.322-1.843-1.231-1.95-1.273-.106-.046-.908-.312-1.061-.289-.154.023-.51 1.51-.592 2.368-.363 3.608.596 5.999 2.077 9.305 2.158 4.805 8.14 10.777 8.14 10.777s1.502.857 2.144 1.361c1.791 1.404 4.755 3.385 7.375 6.004 2.244 2.246 5.239 6.239 5.239 6.239s1.72 2.41 2.517 4.111c.984 2.094 1.768 5.272 1.768 5.272s.07.554.134.665c.061.116.206.257.319.262l1.045.037c.11 0 1.297-.095 2.078-.289.783-.195 2.637-1.04 3.86-1.686 1.222-.64 2.691-1.884 2.691-1.884s.276-.234 1.711-1.827c1.435-1.595 2.36-3.987 2.704-4.882.336-.904.619-2.624.833-5.574.22-2.952-.181-6.075-.181-6.075s-.54-4.354-.869-5.831c-.325-1.483-1.11-3.887-1.11-3.887s-.548-2.154-.728-3.511c-.168-1.361-.202-3.565-.202-3.565s0-1.353.448-3.851c.442-2.494 1.976-5.001 1.976-5.001s.424-.839 2.079-2.816c1.678-2.009 2.219-2.335 3.879-3.534 1.312-.95 3.025-2.466 3.579-2.111.616.39-.603 1.16-1.005 1.56-1.036 1.021-2.98 2.844-4.551 5.576-1.366 2.368-1.873 3.934-2.219 5.477-.34 1.548-.196 3.235-.154 3.817.048.578.37.369.37.369s3.327-2.671 5.137-4.704c1.967-2.191 3.705-6.092 4.39-6.125.456-.024.676 1.021.569 1.496-.439 2.028-.577 2.283-1.229 3.617-.764 1.552-1.456 2.242-2.498 3.655-1.109 1.492-1.641 2.065-2.526 4.037-1.278 2.838-.534 5.029-.534 5.029s.154 1.333.756 1.315c1.005-.033 3.207-2.812 4.642-5.081 1.058-1.674 1.444-3.599 2.144-4.606.624-.899 1.184 1.459.917 2.848-.312 1.645-1.131 3.123-2.921 5.454-1.754 2.28-1.694 4.448-1.694 4.448s-.19.993-.329 3.145c-.14 2.154.476 5.418.476 5.418s.558 2.727.661 4.801c.103 2.069.032 6.802-1.907 10.471-.77 1.477-2.433 3.519-2.433 3.519s-1.264 1.305-2.318 2.069c-1.047.765-3.551 1.943-3.551 1.943s-1.734.606-1.985.662c-.244.064-.41.277-.41.277l.232.472c.062.14.55 1.334.55 1.334s.523 1.701.718 3.049c.195 1.338-.032 1.645-.228 2.68-.187.983-.62.528-.728 2.466-.099 1.71.686 2.564.541 4.479-.063.838-1.015-1.047-1.471-1.856-.976-1.762-.74-4.442-.762-5.108-.028-.666-.074-1.398-.322-2.256-.312-1.083-.749-1.941-1.263-2.601-.512-.662-1.054-1.035-1.24-.974-.176.061-.186.415-.195.592s.35.811.439.951c.079.136.728 1.314.728 1.314s.282.9.403 2.659c.11 1.762-.431 3.919-.431 3.919s-.7 2.452-1.445 3.883c-.825 1.589-2.647 3.753-2.647 3.753s-1.305 1.197-2.283 3.165c-.979 1.967-.14 2.829-.503 3.071-.372.258-1.146-1.128-1.356-2.069-.192-.867-.09-1.276.256-2.26.34-.937 1.128-2.293 1.128-2.293l1.184-2.005s1.403-2.709 1.845-4.667c.449-1.962-.056-4.135-.056-4.135s-.064-.717-.55-.691c-.492.028-.847.468-1.044.984-.409 1.078.168.886-.448 2.677-.491 1.412-.615 1.224-.873 2.061-.302 1.006-.47 2.03-.451 2.661.023.625-.321.363-.321.363s-.592-1.118-.592-2.502c0-.756.028-1.178.118-1.931.134-1.208.623-3.057.623-3.057s.535-1.823.419-3.496c-.117-1.669-.704-1.983-.704-1.983s-.15-.229-.801-.187c-.644.042-.617 1.203-.617 1.203s-.195 1.65-.451 2.676c-.713 2.843-1.655 4.329-3.344 6.721-1.518 2.163-3.589 4.061-4.619 4.955-1.03.9-4.202 3.213-4.202 3.213l-3.711 2.47s-1.472 1.435-2.153 3.146c-.684 1.707-.642 3.045-.251 4.615.392 1.566.964 2.303 1.258 2.732.298.433.872 1.207 1.056 2.103.116.56.032.9.066 1.472.032.492.098.774.088 1.262-.019.79.126 1.352-.316 1.996-.336.493-1.232.914-1.232.914s-1.002.448-1.603.811c-6.321 3.818-8.568 6.284-12.125 10.54-1.137 1.351-.302 1.271-1.519 2.88-.722.961-2.414.957-3.029 2.107-.846 1.56 1.925 3.104-1.28 4.485-4.117 1.78-11.218.508-11.356-.047-.387-1.54 1.385-3.291 2.008-3.981 2.893-3.161 5.475-3.239 6.417-5.851.201-.56.128-1.04 2.419-2.737 1.618-1.198 8.07-6.05 10.885-9.295.961-1.104 1.8-1.846 2.22-3.049a1.88 1.88 0 0 0-.42-1.973l-1.16-1.888-2.215-3.962s-.928-2.103-1.444-3.319c-.51-1.212-1.483-4.499-1.483-4.499s-.718-2.931-.833-4.847c-.22-3.449.256-5.454 1.16-8.787 1.175-4.349 3.841-6.163 4.904-10.456.309-1.245.372-3.384-.256-3.281-.606.104-.658 1.8-1.105 2.926-1.716 4.261-3.982 6.13-5.225 10.551-.836 2.983-1.171 4.758-1.162 7.86 0 1.77-.065 1.443.392 4.52.168 1.137.457 1.74.791 2.843.234.784.868 2.246.868 2.246s.896 1.959 1.194 3.324c.102.46.214.732.186 1.203-.056.816.08.993-.312 1.728-.49.91-.186 1.45-1.754 1.79-1.374.289-4.212-.619-4.212-.619s-11.652-3.538-19.09-2.522c-1.475.2-2.263.737-3.753.707-1.34-.019-2.032-1.072-3.375-.669-.279.084-.365.275-.606.438-1.977 1.375-.467 3.659-5.657 2.47-3.188-.732-7.048-2.675-6.377-3.905.893-1.627 2.096-1.893 4.613-2.926 2.692-1.101 6.733-.789 7.527-.849.974-.064 2.377-.749 4.111-.78 3.002-.05 3.54.304 3.54.304l5.108.448 9.761.131s1.746-.141 2.45-.272c.697-.135 1.253-1.511 1.631-2.167.376-.652-.01-1.621-.01-1.621l-.296-.453-.926-1.501-1.72-2.894-1.905-3.795s-1.244-2.652-1.913-4.39c-.66-1.726-1.042-2.7-1.484-4.49-.46-1.846-.734-3.343-.793-4.814-.075-2.121-.208-3.785.383-5.519"/><path fill="#e8002d" d="M119.692 207.674s-.415-.536-.807-.147c-.392.393-.902 1.018-1.809.957-.911-.068-1.302-.209-1.815-.429-.506-.224-1.216-.558-1.216-.558s-1.851-.714-3.421-.751c-1.567-.042-4.13.612-5.371 1.957-1.242 1.338-1.557 2.733-1.557 2.733s-.415 2.449.297 3.565c.71 1.129 1.484 2.335 3.207 3.393 1.729 1.057 2.482 1.45 2.482 1.45l2.999 1.38 2.772 1.045s4.007 1.198 4.494 4.228c.485 3.031-1.333 6.95-6.865 7.31-5.442.355-8.092-2.288-8.94-3.981-.846-1.702-.359-3.137-.359-3.137l.228-.466.214-.106s.847.573 1.676.465c.827-.107 2.35-1.105 2.034-2.732-.319-1.631-1.78-1.99-2.482-1.93-.697.062-3.816.868-3.876 5.402-.064 4.532 4.067 6.946 4.067 6.946s2.925 1.821 6.227 1.678c3.305-.15 6.039-1.464 6.039-1.464s4.893-2.434 5.023-7.752c.124-5.313-3.242-7.184-3.242-7.184s-1.207-.844-2.31-1.356a305 305 0 0 1-3.748-1.78l-2.691-1.226-1.632-.909-.914-.616s-2.179-1.716-1.017-3.581c1.166-1.863 4.536-1.166 4.536-1.166s2.606.55 4.639 2.014c2.035 1.46 3.224 3.218 3.224 3.218l.843 1.381.105.191.722-.252s-1.124-3.136-1.338-4.452c-.209-1.31-.418-3.338-.418-3.338m32.253 17.933s.728.806 1.695.806c.98 0 2.368-.68 2.35-2.439-.019-1.756-1.798-2.227-1.798-2.227s-2.691-.634-4.001 2.102c-1.313 2.732-.596 5.104-.596 5.104s.617 3.688 4.513 5.869c3.896 2.179 8.074.573 8.074.573s3.132-1.041 5.844-4.093c2.713-3.049 4.005-6.672 4.005-6.672l.95-2.37 1.144.021s1.594.15 2.711-.764c1.13-.915 1.827-2.162 1.827-2.162l.146-.377-.723-.336s-.82 1.077-1.968 1.184c-1.142.103-2.329-.089-2.329-.089l1.099-2.946s1.272-2.564 1.636-3.157c.361-.591 1.842-2.497 1.842-2.497s3.05-.019 5.994-.634c2.947-.615 4.764-1.355 4.764-1.355l3.646-1.507.889-.485-.274-.723s-3.283 1.166-8.14 1.721c-4.846.549-7.896-.042-7.896-.042l-5.51-.853s-1.675-.271-2.965-.293c-1.29-.02-3.925.461-3.925.461s-2.62.596-3.803 1.486c-1.194.891-4.009 2.969-2.713 6.145 1.288 3.178 6.564 1.481 7.311-.873-.027.022.293-.759.293-.759l.088-.425-.45-.172-.529.615s-1.968 1.656-3.495.592c-1.518-1.057-.487-2.536-.336-2.709.145-.166.969-1.164 2.941-1.606s4.936.275 4.936.275l3.221.592s1.779.34 1.859.34c.088 0 .662.084.662.084l-1.126 1.25s-1.631 1.566-2.777 3.837c-1.141 2.265-1.67 3.449-1.67 3.449l-.111.172s-1.434.168-2.343.717c-.915.551-1.506 1.399-1.506 1.399l-.426.764.571.486s.658-.743 1.464-.951a2.1 2.1 0 0 1 1.419.106s-1.167 2.878-1.717 3.916-1.482 2.946-2.796 4.364c-1.309 1.417-2.265 2.651-5.272 3.075-3.008.42-5.129-1.51-5.91-2.46-.788-.951-1.25-2.395-1.292-3.449-.047-1.064.503-2.08.503-2.08"/><path fill="#000" d="M194.822 148.193c2.045-2.644 2.247-5.086 2.368-8.545.095-2.509-.858-6.377-.858-6.377l-.13-.28s-.36-.465-.581.15c.035.545.107.984.107.984l.121 4.982s-.159 2.509-1.011 5.096c-1.441 4.363-5.264 6.316-5.823 7.878-.944 2.619 3.346-.714 5.807-3.888m-21.554 8.061s-.844.237-.858 1.068c-.022.832.203 1.557.186 2.553-.024 1.268-1.198 2.752-.444 3.225 1.301.821 2.414-4.969 2.019-5.826-.396-.856-.78-1.03-.903-1.02m-14.509 40.142s-.237-.13-.707.046c-.466.175-.438.66-.438.66s-.09.513.287.573c.378.052 1.003-.862.999-.972-.009-.104-.141-.307-.141-.307m-13.638 9.688s-.146.144-.02.246c.122.094.294-.036.294-.036s2.359-1.838 3.753-3.137c1.48-1.386 3.599-3.767 3.599-3.767s.144-.187-.021-.34c-.157-.15-.573.084-.904.242-.294.149-.466.32-.68.503-.22.182-.904.894-.904.894l-1.827 1.775-1.137 1.068-1.114 1.067-.473.536s-.124.204-.152.256c-.032.052-.158.214-.158.214s-.163.164-.163.206-.057.098-.061.149c0 .054-.032.124-.032.124m-4.08 2.676s-.26-.21-.656 0c-.403.205-.831.759-.864.822-.033.06-.258.362-.107.618.15.256.66-.121.732-.135.074-.01.74-.528.74-.528s.386-.242.155-.777m-7.802 7.905s-.329-.629-.767-.367c-.445.255-.678.345-1.079.894-.067.104-.5.662-.582.802-.077.145-.501.96.368 1.01 1.508.1.524-.875 1.04-1.25.42-.291 1.203-.219 1.213-.527.012-.301-.193-.562-.193-.562m-26.72-31.553s-.909.215-.975.535c-.067.321.53.634.625.648.1.02.31.252.907-.153.597-.406.573-.754.573-.754s.352-.407-1.13-.276m14.7-.48s-.01-.331-.653-.294c-.646.037-.788.158-.801.252-.02.102.028.266.61.312.588.047.825-.004.844-.27m13.886.406c-1.166-.015-.792.023-1.513.061-1.307.069-2.021.015-3.307-.069-1.806-.115-4.604-.573-4.604-.573s-.352-.075-.491.144c-.132.235.34.714.764.849 2.286.712 2.406.582 3.971.611.869.014 1.357-.074 2.219-.131 1.093-.075 1.608.093 2.796-.224.313-.081.616-.664.165-.668m7.835-2.332s-.236-.266-.716-.033c-.484.237-.774.765-.774.765s-.224.35.252.294a2.8 2.8 0 0 0 1.014-.336c.12-.063.466-.396.224-.69m-6.818-93.942s3.315-3.105 5.674-7.198c1.408-2.438 2.02-8.12.812-6.698-.548.639-1.202 3.594-2.247 5.77-1.488 3.104-4.671 7.505-4.671 7.505s-.685 1.47.432.62m-13.208 7.864s-.352.266-.196.713c.164.448.847.107.847.107s1.517-.573 3.12-.639c1.611-.065 3.835.415 3.835.415s1.061.293 1.24.359c.177.064.755.35.846.383.096.033.639.307.948.028.318-.28-1.927-2.312-4.213-2.62-3.803-.518-6.309 1.114-6.309 1.114zm-15.689 13.411c.276.223 1.55-2.196 2.616-3.725.778-1.128 2.2-3.006 2.2-3.006s.634-.863-.447-.378c-.446.195-1.653 1.114-2.503 2.806-.726 1.436-2.139 4.069-1.866 4.303m-8.793-10.53s-.273.927.828 2.106c1.102 1.175 1.386 2.149 2.09 1.446.196-.186-.687-1.78-1.137-2.218q-.405-.388-.783-.802l-.282-.233-.37-.201-.205-.084c-.002 0-.065-.056-.141-.014m-3.562-8.997s-1.188.224-1.485.798c-.294.577 1.37.228 1.37.228s1.108.065 1.133-.36c.028-.423-.144-.475-1.018-.666M75.954 121.86c-.601-.182-.706 1.017-.783 1.399-.075.387.268 1.165.405 1.156.144-.004.628-.76.655-1.133s.263-1.259-.277-1.422m19.643 23.345s-1.084-.857-1.251-.516c-.16.334.897 1.851.897 1.851s.32.493.82.265c.496-.228.317-.773.317-.773s-.335-.71-.783-.827M87.4 119.949s-.275-.065-.382.265c-.1.331-.088.882-.16 1.534-.064.517.132 1.888.132 1.888s.106 1.082.32 1.743c.235.704.865 1.707.865 1.707s.237.522.524.498c.287-.028.221-.373.221-.373s-.909-3.612-.942-3.981c-.11-1.198-.1-2.666-.1-2.666l-.01-.224s-.008-.376-.468-.391m1.424-11.02s-.506-.102-.964.867c-.464.975-.369 1.366-.329 1.412.037.047.41.032.997-.867.58-.896.453-1.231.453-1.231s-.033-.181-.157-.181m13.774 9.99s.611.9-.553.694c-1.161-.209-3.601-2.13-4.589-2.647-.98-.517-2.592-.69-1.913-1.287.118-.106.15-.204.35-.214.2-.009.862.256.906.276.038.022 1.754.727 1.818.75.063.028 1.022.438 1.708.84.688.405 1.8 1.183 1.8 1.183zm32.125 27.652c.316 1.002-3.656-2.098-5.785-3.737-5.642-4.339-12.548-13.243-11.686-14.027.717-.652 3.547 3.427 7.696 7.916 4.429 4.79 9.589 9.255 9.775 9.848m16.583-4.258c-1.226 1.316-1.664 2.999-.956 4.257.7 1.22.914-1.785 1.686-2.681.659-.764 1.063-.648 2.163-1.422 1.867-1.317-1.332-1.824-2.893-.154m-7.062-28.093c-.837-.14-.81 1.142-.69 2.06.56 4.084 2.391 7.231 4.839 10.2 1.492 1.798 5.576 5.015 6.057 4.502.171-.186-3.894-3.319-6.476-7.351-1.831-2.859-2.815-5.287-3.04-7.646-.029-.292.042-1.648-.69-1.765m-15.806-60.548c-1.844 1.002-5.037 1.878-5.037 1.878s-.147.312.263.28c2.735-.214 3.776-.564 5.238-1.203 1.453-.634 2.519-2.382 2.519-2.382s.588-1.077-.515-.187c-.336.272-1.462 1.06-2.468 1.614m22.211-7.02s-.625-.14-1.045.122c-.417.265-.298.48-.298.48s.644.504 1.11.578c.466.07 1.464.504 1.418.168-.038-.34-.598-.96-.784-1.128a1.1 1.1 0 0 0-.401-.22m-10.456 19.182c.11.22 1.978-.288 2.692-.69.569-.317.783-1.374.783-1.374s.158-1.03-.084-.635c-1.07 1.74-3.495 2.475-3.391 2.7m-.06-4.792c.753-1.44-2.072 1.506-3.511 2.271-.878.466-2.304 1.077-2.304 1.077s-.378.47.15.433c.529-.042 1.874.42 2.953-.429.254-.196 1.393-1.846 1.393-1.846s.955-.812 1.319-1.506m-.436 6.162c.054.238 3.228.154 4.021-.075.619-.18.956-1.29.956-1.29s.382-.965.061-.634c-1.433 1.459-5.091 1.758-5.038 2m-50.822 28.98s-.482-.171-1.079.728c-.592.89-3.253 4.927-2.778 5.528.559.704 2.864-3.613 3.565-4.424.707-.807.425-1.636.425-1.636s-.009-.181-.133-.195m58.008 72.967c-.279 1.343.066 4.082.522 4.624 1.129 1.362.438-2.125.596-3.347.136-1.147.286-1.538.84-2.759 1.007-2.192-1.362-1.38-1.958 1.482m-9.71-116.929s-.878.02-1.566.396c-.687.383-.869.91-.869.91s-.137.382-.042.596c.2.467 1.144-.237 1.813-.004.54.191.797.345 1.203.838.359.434.993 1.05 1.389.7s.254-1.222.254-1.222-.469-1.427-1.079-1.836c-.611-.406-1.103-.378-1.103-.378M122.585 62.28s-.487.08-.372.672c.116.592.435.498.435.498s1.016-.433.949-1.044c-.061-.62-1.012-.126-1.012-.126m-7.123-3.193s-.533.02-.907.68c-.374.662-.592 1.344-.592 1.344s-.179.871.136 1.141c.315.276.653-.564 1.102-.88.272-.196.438-.289.716-.48.383-.265 1.002.075.956-.7-.049-.773-.874-1.142-1.411-1.105m23.013-8.288s-1.212-.172-1.165.294c.04.429.66.172 1.056.35.387.168.634.237.943.526.227.2.199.597.479.601.386.005.304-.15.304-.15s-.346-1.044-.802-1.347c-.45-.292-.815-.274-.815-.274m13.527 4.885c-.178.657-.284.89-.284.89s-.342 1.339 1.016.844c1.351-.503.659-.288 1.625-.76.966-.47.934-.213 1.642-.181.241.009.393.023.755-.052.303-.06.177-.428-.503-.61-.733-.195-1.642-.144-2.685-.158-.607-.006-1.39-.625-1.566.027m.596-4.96s-.624-.135-1.045.126c-.423.266-.298.475-.298.475s.649.509 1.11.579c.466.078 1.464.507 1.426.167-.046-.34-.606-.955-.791-1.128a1.1 1.1 0 0 0-.402-.219m2.387 9.305s-.668-.13-1.12.126c-.456.252-.321.447-.321.447s.696.475 1.189.546c.494.065 1.565.47 1.523.15-.042-.318-.637-.9-.843-1.064-.204-.16-.428-.205-.428-.205m.195 3.38s-.704-.154-1.183.134c-.476.284-.332.517-.332.517s.732.546 1.254.63c.53.079 1.652.54 1.604.172-.047-.364-.67-1.035-.886-1.221-.214-.18-.457-.233-.457-.233m.323 3.29s-.766-.172-1.282.15c-.518.326-.363.582-.363.582s.795.62 1.359.709c.572.088 1.792.62 1.744.21-.05-.415-.736-1.175-.969-1.384a1.3 1.3 0 0 0-.489-.267m-.08 4.07s-.76-.172-1.282.153c-.518.322-.36.583-.36.583s.793.615 1.362.704c.57.093 1.799.62 1.743.205-.052-.415-.736-1.17-.97-1.38a1.3 1.3 0 0 0-.493-.265m-.554 7.93s-.766-.173-1.284.153c-.515.321-.362.582-.362.582s.791.62 1.36.709c.57.093 1.799.615 1.743.205-.05-.415-.736-1.175-.969-1.385a1.3 1.3 0 0 0-.488-.265m.515-3.973s-.879-.195-1.481.177c-.596.373-.416.672-.416.672s.92.718 1.572.82c.658.102 2.079.714 2.013.237-.056-.48-.847-1.356-1.118-1.594a1.44 1.44 0 0 0-.57-.312m-.894 7.552s-.625-.144-1.053.126c-.43.265-.298.48-.298.48s.652.51 1.124.583c.466.075 1.472.513 1.429.168-.042-.341-.606-.966-.795-1.138a1 1 0 0 0-.407-.219m-.591 3.44s-.518-.117-.872.108c-.356.219-.252.396-.252.396s.544.425.93.485c.389.06 1.226.42 1.19.14-.033-.284-.499-.801-.659-.946a.9.9 0 0 0-.337-.183m-.732 3.133s-.472-.108-.794.093c-.316.195-.224.36-.224.36s.486.382.84.433c.35.06 1.105.382 1.078.13-.034-.256-.454-.727-.598-.849-.144-.13-.302-.167-.302-.167m-.745 2.568s-.477-.106-.794.088c-.316.2-.224.364-.224.364s.49.377.839.433c.355.06 1.106.382 1.072.126-.032-.252-.451-.723-.596-.85-.14-.123-.297-.16-.297-.16m-.896 2.98s-.382-.089-.634.074c-.262.164-.182.294-.182.294s.396.303.676.354c.283.042.895.303.868.097-.028-.205-.368-.582-.487-.685a.6.6 0 0 0-.241-.135m-1.072 2.79s-.326-.069-.546.066c-.224.136-.157.252-.157.252s.34.261.581.3c.242.041.77.265.752.087-.024-.172-.322-.504-.416-.592a.5.5 0 0 0-.214-.112m-1.106 2.65s-.329-.07-.545.069c-.229.135-.158.247-.158.247s.346.266.588.303c.241.042.763.27.746.089-.028-.177-.319-.504-.42-.593-.1-.09-.211-.116-.211-.116m-71.69 13.485s-.553 1.071-.282 1.659c.273.588 1.018-.938 1.018-.938s.771-1.524.457-1.803c-.32-.284-.502.508-1.194 1.082"/></g><defs><clipPath id="clip0_452_414"><path fill="#e8002d" d="M0 0h278v278H0z"/></clipPath></defs></svg>